Amstelvar-Roman-opsz-max-wgthmax-wdthmax.ufo
<glyph name="exclam" format="2">
  <advance width="706"/>
  <unicode hex="0021"/>
  <outline>
    <contour>
      <point x="147.12307692307692" y="163.96923076923076" type="qcurve" smooth="yes"/>
      <point x="147.12307692307692" y="241.03076923076924"/>
      <point x="260.7692307692308" y="346.7846153846154"/>
      <point x="352.2" y="346.7846153846154" type="qcurve" smooth="yes"/>
      <point x="443.63076923076926" y="346.7846153846154"/>
      <point x="557.276923076923" y="240.4"/>
      <point x="557.276923076923" y="163.96923076923076" type="qcurve" smooth="yes"/>
      <point x="557.276923076923" y="85.64615384615385"/>
      <point x="443.63076923076926" y="-20.73846153846154"/>
      <point x="352.2" y="-20.73846153846154" type="qcurve" smooth="yes"/>
      <point x="261.4" y="-20.73846153846154"/>
      <point x="147.12307692307692" y="85.64615384615385"/>
    </contour>
    <contour>
      <point x="134.13846153846154" y="1230.1384615384616" type="line" smooth="yes"/>
      <point x="122.56842105263158" y="1364.9692307692308"/>
      <point x="254.2" y="1519.076923076923"/>
      <point x="348.0923076923077" y="1518.446153846154" type="qcurve" smooth="yes"/>
      <point x="442.9846153846154" y="1518.8153846153846"/>
      <point x="579.3546558704454" y="1364.9692307692308"/>
      <point x="566.5230769230769" y="1230.7692307692307" type="qcurve" smooth="yes"/>
      <point x="551.365991902834" y="1121.876923076923" type="line"/>
      <point x="446.0744939271255" y="756.4769230769231" type="line"/>
      <point x="395.59352226720654" y="475.44615384615383" type="line"/>
      <point x="304.06801619433196" y="475.44615384615383" type="line"/>
      <point x="252.95627530364374" y="756.4769230769231" type="line"/>
      <point x="148.6647773279352" y="1121.876923076923" type="line"/>
    </contour>
  </outline>
</glyph>
<glyph name="numbersign" format="2">
  <advance width="1144"/>
  <unicode hex="0023"/>
  <outline>
    <contour>
      <point x="26.10769230769231" y="378.96923076923076" type="line"/>
      <point x="26.10769230769231" y="636.6923076923077" type="line"/>
      <point x="1036.2769230769231" y="636.6923076923077" type="line"/>
      <point x="1036.2769230769231" y="378.96923076923076" type="line"/>
    </contour>
    <contour>
      <point x="108.12307692307692" y="846.2" type="line"/>
      <point x="108.12307692307692" y="1103.923076923077" type="line"/>
      <point x="1117.6615384615384" y="1103.923076923077" type="line"/>
      <point x="1117.6615384615384" y="846.2" type="line"/>
    </contour>
    <contour>
      <point x="196.53927125506073" y="-33.50769230769231" type="line"/>
      <point x="487.86234817813767" y="1501.8923076923077" type="line"/>
      <point x="546.9991902834008" y="1494.5076923076922" type="line"/>
      <point x="255.04534412955465" y="-40.89230769230769" type="line"/>
    </contour>
    <contour>
      <point x="590.1392712550607" y="-33.50769230769231" type="line"/>
      <point x="882.0931174089069" y="1501.8923076923077" type="line"/>
      <point x="940.5991902834008" y="1494.5076923076922" type="line"/>
      <point x="648.6453441295546" y="-40.89230769230769" type="line"/>
    </contour>
  </outline>
</glyph>
<glyph name="dollar" format="2">
  <advance width="1120"/>
  <unicode hex="0024"/>
  <outline>
    <contour>
      <point x="60.84615384615385" y="152.4923076923077" type="qcurve"/>
      <point x="113.92874493927125" y="260.7076923076923" type="line"/>
      <point x="166.5157894736842" y="173.7838056680162"/>
      <point x="374.68016194331983" y="65.65748987854252"/>
      <point x="514.5805668016195" y="65.65748987854252" type="qcurve" smooth="yes"/>
      <point x="639.6502024291498" y="65.65748987854252"/>
      <point x="747.7246963562753" y="194.48259109311743"/>
      <point x="747.7246963562753" y="304.57085020242914" type="qcurve" smooth="yes"/>
      <point x="747.7246963562753" y="425.4153846153846"/>
      <point x="598.1846153846154" y="542.3538461538461"/>
      <point x="435.8" y="633.4769230769231" type="qcurve" smooth="yes"/>
      <point x="255.33846153846153" y="732.2923076923076"/>
      <point x="74.15384615384616" y="956.5538461538462"/>
      <point x="74.15384615384616" y="1127.923076923077" type="qcurve" smooth="yes"/>
      <point x="74.15384615384616" y="1307.1846153846154"/>
      <point x="332.66153846153844" y="1510.7230769230769"/>
      <point x="540.2615384615385" y="1510.7230769230769" type="qcurve" smooth="yes"/>
      <point x="686.0153846153846" y="1510.7230769230769"/>
      <point x="880.3692307692307" y="1442.7230769230769"/>
      <point x="953.5538461538462" y="1383.4923076923078" type="qcurve"/>
      <point x="897.0348178137651" y="1285.7651821862348" type="line"/>
      <point x="820.2931174089069" y="1366.548987854251"/>
      <point x="637.0850202429149" y="1448.642914979757"/>
      <point x="538.4866396761133" y="1448.642914979757" type="qcurve" smooth="yes"/>
      <point x="440.7263157894737" y="1448.642914979757"/>
      <point x="327.88421052631577" y="1351.0801619433198"/>
      <point x="327.88421052631577" y="1252.0356275303645" type="qcurve" smooth="yes"/>
      <point x="327.88421052631577" y="1138.753846153846"/>
      <point x="473.0153846153846" y="1035.5076923076922"/>
      <point x="629.5846153846154" y="951.9538461538461" type="qcurve" smooth="yes"/>
      <point x="804.5384615384615" y="859.6"/>
      <point x="1049.1846153846154" y="616.0307692307692"/>
      <point x="1049.1846153846154" y="436.0153846153846" type="qcurve" smooth="yes"/>
      <point x="1049.1846153846154" y="229.53846153846155"/>
      <point x="791.1384615384616" y="-2.7846153846153845"/>
      <point x="555.1076923076923" y="-2.7846153846153845" type="qcurve" smooth="yes"/>
      <point x="372.53846153846155" y="-2.7846153846153845"/>
      <point x="126.49230769230769" y="76.43076923076923"/>
    </contour>
    <contour>
      <point x="507.7417004048583" y="-156.76923076923077" type="line"/>
      <point x="507.7417004048583" y="57.0" type="line"/>
      <point x="507.8105263157895" y="57.0" type="line"/>
      <point x="507.8105263157895" y="750.3846153846154" type="line"/>
      <point x="592.3587044534413" y="752.0" type="line"/>
      <point x="592.3587044534413" y="57.0" type="line"/>
      <point x="593.8502024291498" y="57.0" type="line"/>
      <point x="593.8502024291498" y="-152.0" type="line"/>
    </contour>
    <contour>
      <point x="499.37246963562757" y="1632.123076923077" type="line"/>
      <point x="586.7967611336032" y="1640.4615384615386" type="line"/>
      <point x="586.7967611336032" y="1423.0" type="line"/>
      <point x="585.3587044534413" y="1423.0" type="line"/>
      <point x="585.3587044534413" y="803.0" type="line"/>
      <point x="501.8105263157895" y="806.3846153846154" type="line"/>
      <point x="501.8105263157895" y="1423.0" type="line"/>
      <point x="499.37246963562757" y="1423.0" type="line"/>
    </contour>
  </outline>
</glyph>
<glyph name="ampersand" format="2">
  <advance width="1768"/>
  <unicode hex="0026"/>
  <outline>
    <contour>
      <point x="667.3230769230769" y="-31.784615384615385" type="qcurve" smooth="yes"/>
      <point x="372.38461538461536" y="-31.784615384615385"/>
      <point x="39.077732793522266" y="193.2072874493927"/>
      <point x="45.66234817813765" y="373.9951417004049" type="qcurve" smooth="yes"/>
      <point x="50.508502024291495" y="544.1530364372469"/>
      <point x="315.98785425101215" y="752.3765182186236"/>
      <point x="626.3773279352226" y="885.3012145748987" type="qcurve"/>
      <point x="757.8939271255061" y="950.5773279352226"/>
      <point x="897.851012145749" y="1116.0008097165992"/>
      <point x="897.851012145749" y="1220.5182186234817" type="qcurve" smooth="yes"/>
      <point x="897.851012145749" y="1321.5425101214576"/>
      <point x="787.8842105263159" y="1448.8850202429148"/>
      <point x="688.2178137651822" y="1448.8850202429148" type="qcurve" smooth="yes"/>
      <point x="592.021052631579" y="1448.8850202429148"/>
      <point x="484.6615384615385" y="1327.3352226720647"/>
      <point x="482.6615384615385" y="1230.502024291498" type="qcurve" smooth="yes"/>
      <point x="480.6615384615385" y="1135.3384615384616"/>
      <point x="599.1271255060728" y="981.7651821862348"/>
      <point x="754.0461538461539" y="859.3538461538461" type="qcurve"/>
      <point x="1332.123076923077" y="226.06153846153848" type="line" smooth="yes"/>
      <point x="1387.9222672064777" y="162.7757085020243"/>
      <point x="1471.1554655870445" y="128.22267206477733"/>
      <point x="1514.689068825911" y="128.22267206477733" type="qcurve" smooth="yes"/>
      <point x="1567.2615384615385" y="128.22267206477733"/>
      <point x="1658.0882591093118" y="184.19433198380568"/>
      <point x="1694.8283400809717" y="253.12307692307695" type="qcurve"/>
      <point x="1751.753846153846" y="185.98461538461538" type="line"/>
      <point x="1707.3846153846155" y="95.53846153846153"/>
      <point x="1537.1692307692308" y="-29.43076923076923"/>
      <point x="1369.0153846153846" y="-28.8" type="qcurve" smooth="yes"/>
      <point x="1250.0" y="-28.16923076923077"/>
      <point x="1038.0" y="66.75384615384615"/>
      <point x="954.4461538461538" y="165.53846153846155" type="qcurve" smooth="yes"/>
      <point x="428.9384615384615" y="740.8923076923077" type="line"/>
      <point x="308.131983805668" y="860.5255060728746"/>
      <point x="200.83076923076925" y="1051.2769230769231"/>
      <point x="197.7846153846154" y="1172.8307692307692" type="qcurve" smooth="yes"/>
      <point x="194.73846153846154" y="1342.553846153846"/>
      <point x="465.9384615384615" y="1528.8923076923077"/>
      <point x="675.9076923076923" y="1528.8923076923077" type="qcurve" smooth="yes"/>
      <point x="878.3384615384615" y="1528.8923076923077"/>
      <point x="1065.1846153846154" y="1342.8307692307692"/>
      <point x="1057.1846153846154" y="1205.4" type="qcurve" smooth="yes"/>
      <point x="1049.1846153846154" y="1058.7692307692307"/>
      <point x="805.6615384615385" y="866.8615384615384"/>
      <point x="657.5384615384615" y="804.5230769230769" type="qcurve"/>
      <point x="496.5076923076923" y="725.7538461538461"/>
      <point x="421.7927125506073" y="514.2040485829959"/>
      <point x="429.63076923076926" y="401.0923076923077" type="qcurve" smooth="yes"/>
      <point x="439.4153846153846" y="271.93441295546563"/>
      <point x="618.1659919028341" y="90.3757085020243"/>
      <point x="794.3238866396762" y="90.3757085020243" type="qcurve" smooth="yes"/>
      <point x="1055.446153846154" y="90.3757085020243"/>
      <point x="1416.2307692307693" y="477.66639676113357"/>
      <point x="1459.6267206477733" y="795.5991902834008" type="qcurve"/>
      <point x="1613.2" y="798.2615384615385" type="line"/>
      <point x="1570.5076923076922" y="463.53846153846155"/>
      <point x="1022.6769230769231" y="-31.784615384615385"/>
    </contour>
    <contour>
      <point x="1029.7724696356277" y="753.3506072874494" type="line"/>
      <point x="1054.7198380566801" y="827.038056680162"/>
      <point x="1149.4542510121457" y="918.234008097166"/>
      <point x="1200.238866396761" y="918.234008097166" type="qcurve" smooth="yes"/>
      <point x="1238.038866396761" y="918.234008097166"/>
      <point x="1532.4323886639677" y="821.4226720647773"/>
      <point x="1586.6939271255062" y="821.4226720647773" type="qcurve" smooth="yes"/>
      <point x="1621.1093117408907" y="821.4226720647773"/>
      <point x="1687.1983805668017" y="846.6234817813764"/>
      <point x="1712.4153846153847" y="883.514979757085" type="qcurve"/>
      <point x="1769.6680161943318" y="832.3093117408907" type="line"/>
      <point x="1740.2615384615385" y="768.217004048583"/>
      <point x="1624.076923076923" y="660.6923076923077"/>
      <point x="1578.6615384615384" y="660.6923076923077" type="qcurve" smooth="yes"/>
      <point x="1513.5230769230768" y="660.6923076923077"/>
      <point x="1207.0825910931173" y="748.6251012145749"/>
      <point x="1172.1287449392712" y="747.3635627530364" type="qcurve" smooth="yes"/>
      <point x="1136.544129554656" y="748.6251012145749"/>
      <point x="1081.6" y="728.57004048583"/>
      <point x="1061.753846153846" y="704.1538461538462" type="qcurve"/>
    </contour>
  </outline>
</glyph>
<glyph name="parenleft" format="2">
  <advance width="726"/>
  <unicode hex="0028"/>
  <outline>
    <contour>
      <point x="36.43076923076923" y="651.7368421052631" type="qcurve" smooth="yes"/>
      <point x="36.43076923076923" y="928.8372469635627"/>
      <point x="407.38704453441295" y="1390.4939271255062"/>
      <point x="648.3004048582995" y="1506.7004048582996" type="qcurve"/>
      <point x="703.1854251012146" y="1473.3975708502026" type="line"/>
      <point x="623.4340080971659" y="1348.9263157894738"/>
      <point x="519.3384615384615" y="912.2947368421053"/>
      <point x="519.3384615384615" y="652.7368421052631" type="qcurve" smooth="yes"/>
      <point x="519.3384615384615" y="390.86315789473684"/>
      <point x="624.2728744939271" y="-24.614574898785424"/>
      <point x="704.1854251012146" y="-159.23967611336033" type="qcurve"/>
      <point x="658.3004048582995" y="-202.22672064777328" type="line"/>
      <point x="407.75627530364375" y="-73.0744939271255"/>
      <point x="36.43076923076923" y="370.6825910931174"/>
    </contour>
  </outline>
</glyph>
<glyph name="parenright" format="2">
  <advance width="726"/>
  <unicode hex="0029"/>
  <outline>
    <contour>
      <point x="689.9076923076923" y="651.7368421052631" type="qcurve" smooth="yes"/>
      <point x="689.9076923076923" y="370.6825910931174"/>
      <point x="317.9514170040486" y="-73.0744939271255"/>
      <point x="67.03805668016194" y="-202.22672064777328" type="qcurve"/>
      <point x="22.153036437246964" y="-159.23967611336033" type="line"/>
      <point x="102.06558704453442" y="-24.614574898785424"/>
      <point x="206.0" y="390.86315789473684"/>
      <point x="206.0" y="652.7368421052631" type="qcurve" smooth="yes"/>
      <point x="206.0" y="912.2947368421053"/>
      <point x="102.27368421052631" y="1348.9263157894738"/>
      <point x="23.153036437246964" y="1473.3975708502026" type="qcurve"/>
      <point x="78.03805668016194" y="1506.7004048582996" type="line"/>
      <point x="318.9514170040486" y="1390.4939271255062"/>
      <point x="689.9076923076923" y="928.8372469635627"/>
    </contour>
  </outline>
</glyph>
<glyph name="comma" format="2">
  <advance width="616"/>
  <unicode hex="002C"/>
  <outline>
    <contour>
      <point x="106.32874493927126" y="-279.13684210526316" type="line"/>
      <point x="192.52631578947367" y="-223.57165991902835"/>
      <point x="316.2817813765182" y="-87.63481781376518"/>
      <point x="356.34412955465586" y="17.835627530364373" type="qcurve"/>
      <point x="208.75384615384615" y="10.25991902834008"/>
      <point x="92.06153846153846" y="128.84615384615384"/>
      <point x="92.06153846153846" y="210.90769230769232" type="qcurve" smooth="yes"/>
      <point x="92.06153846153846" y="291.6"/>
      <point x="214.7076923076923" y="410.0923076923077"/>
      <point x="311.87692307692305" y="410.0923076923077" type="qcurve" smooth="yes"/>
      <point x="406.9384615384615" y="410.0923076923077"/>
      <point x="532.3230769230769" y="297.66153846153844"/>
      <point x="532.3230769230769" y="189.27692307692308" type="qcurve" smooth="yes"/>
      <point x="532.3230769230769" y="47.56923076923077"/>
      <point x="278.4769230769231" y="-253.01538461538462"/>
      <point x="130.30769230769232" y="-314.0153846153846" type="qcurve"/>
    </contour>
  </outline>
</glyph>
<glyph name="one" format="2">
  <advance width="1423"/>
  <unicode hex="0031"/>
  <outline>
    <contour>
      <point x="230.15384615384616" y="0.0" type="line"/>
      <point x="230.15384615384616" y="56.477732793522264" type="line"/>
      <point x="505.53846153846155" y="91.47773279352226" type="line"/>
      <point x="505.53846153846155" y="754.0" type="line"/>
      <point x="501.6461538461538" y="1367.0736842105262" type="line"/>
      <point x="228.15384615384616" y="1387.1886639676113" type="line"/>
      <point x="228.15384615384616" y="1444.514979757085" type="line"/>
      <point x="968.276923076923" y="1511.0461538461539" type="line"/>
      <point x="993.3384615384615" y="1486.1384615384616" type="line"/>
      <point x="985.4461538461538" y="753.3692307692307" type="line"/>
      <point x="985.4461538461538" y="91.47773279352226" type="line"/>
      <point x="1253.8923076923077" y="56.477732793522264" type="line"/>
      <point x="1253.8923076923077" y="0.0" type="line"/>
    </contour>
  </outline>
</glyph>
<glyph name="three" format="2">
  <advance width="1423"/>
  <unicode hex="0033"/>
  <outline>
    <contour>
      <point x="54.84453441295547" y="158.5408906882591" type="qcurve"/>
      <point x="97.24615384615385" y="245.28259109311745" type="line"/>
      <point x="113.13360323886641" y="200.31983805668017"/>
      <point x="286.01376518218626" y="85.95789473684212"/>
      <point x="394.5797570850202" y="85.95789473684212" type="qcurve" smooth="yes"/>
      <point x="523.8153846153846" y="85.95789473684212"/>
      <point x="665.7692307692307" y="273.9400809716599"/>
      <point x="665.7692307692307" y="452.9141700404858" type="qcurve" smooth="yes"/>
      <point x="665.7692307692307" y="633.2736842105263"/>
      <point x="506.948987854251" y="777.089068825911"/>
      <point x="388.2582995951417" y="777.089068825911" type="qcurve" smooth="yes"/>
      <point x="307.4769230769231" y="777.089068825911" type="line"/>
      <point x="301.3481781376518" y="854.0356275303644" type="line"/>
      <point x="382.0769230769231" y="856.5133603238867" type="line" smooth="yes"/>
      <point x="468.37165991902833" y="857.1514170040485"/>
      <point x="629.4283400809716" y="1003.4923076923077"/>
      <point x="626.4283400809716" y="1159.6072874493927" type="qcurve" smooth="yes"/>
      <point x="624.4283400809716" y="1281.906882591093"/>
      <point x="516.6437246963562" y="1388.0"/>
      <point x="421.3878542510122" y="1388.0" type="qcurve" smooth="yes"/>
      <point x="345.7522267206478" y="1388.0"/>
      <point x="198.80323886639678" y="1315.0704453441297"/>
      <point x="158.9255060728745" y="1265.5878542510122" type="qcurve"/>
      <point x="128.2647773279352" y="1345.697975708502" type="line"/>
      <point x="182.39676113360326" y="1408.068016194332"/>
      <point x="451.03076923076924" y="1524.0"/>
      <point x="669.8858299595141" y="1524.0" type="qcurve" smooth="yes"/>
      <point x="888.8097165991903" y="1524.0"/>
      <point x="1167.2307692307693" y="1364.446153846154"/>
      <point x="1167.2307692307693" y="1213.3846153846155" type="qcurve" smooth="yes"/>
      <point x="1167.2307692307693" y="1060.8461538461538"/>
      <point x="956.6704453441296" y="869.6995951417005"/>
      <point x="743.2453441295546" y="846.8534412955466" type="qcurve"/>
      <point x="743.2453441295546" y="839.8534412955466" type="line"/>
      <point x="963.080971659919" y="828.531983805668"/>
      <point x="1236.2" y="642.1076923076923"/>
      <point x="1236.2" y="453.69635627530363" type="qcurve" smooth="yes"/>
      <point x="1236.2" y="249.90769230769232"/>
      <point x="904.6615384615385" y="-27.892307692307693"/>
      <point x="608.7076923076924" y="-27.892307692307693" type="qcurve" smooth="yes"/>
      <point x="359.32307692307694" y="-27.892307692307693"/>
      <point x="86.66153846153847" y="98.53927125506074"/>
    </contour>
  </outline>
</glyph>
<glyph name="four" format="2">
  <advance width="1423"/>
  <unicode hex="0034"/>
  <outline>
    <contour>
      <point x="42.55384615384615" y="512.6615384615385" type="line"/>
      <point x="733.8153846153846" y="1491.4923076923078" type="line"/>
      <point x="1064.8153846153846" y="1472.6" type="line"/>
      <point x="1109.246153846154" y="1442.4615384615386" type="line"/>
      <point x="1104.246153846154" y="521.9384615384615" type="line"/>
      <point x="1103.246153846154" y="91.47773279352226" type="line"/>
      <point x="1303.0" y="56.477732793522264" type="line"/>
      <point x="1303.0" y="0.0" type="line"/>
      <point x="397.5230769230769" y="0.0" type="line"/>
      <point x="397.5230769230769" y="56.477732793522264" type="line"/>
      <point x="634.5538461538462" y="91.47773279352226" type="line"/>
      <point x="630.876923076923" y="523.0923076923077" type="line"/>
      <point x="628.6615384615385" y="1229.5676113360323" type="line"/>
      <point x="161.4817813765182" y="581.5538461538462" type="line"/>
      <point x="159.58947368421053" y="565.4461538461538" type="line"/>
      <point x="1350.446153846154" y="571.123076923077" type="line"/>
      <point x="1350.446153846154" y="462.38461538461536" type="line"/>
      <point x="56.87692307692308" y="433.6" type="line"/>
    </contour>
  </outline>
</glyph>
<glyph name="six" format="2">
  <advance width="1423"/>
  <unicode hex="0036"/>
  <outline>
    <contour>
      <point x="65.93846153846154" y="655.9076923076923" type="qcurve" smooth="yes"/>
      <point x="65.93846153846154" y="1072.5692307692307"/>
      <point x="617.587044534413" y="1536.268016194332"/>
      <point x="1099.617813765182" y="1534.7603238866395" type="qcurve"/>
      <point x="1087.940890688259" y="1462.8097165991903" type="line"/>
      <point x="845.8202429149798" y="1453.1538461538462"/>
      <point x="568.0" y="1020.4696356275304"/>
      <point x="568.0" y="643.3327935222671" type="qcurve" smooth="yes"/>
      <point x="568.0" y="253.1773279352227"/>
      <point x="650.0769230769231" y="29.01538461538462"/>
      <point x="735.4" y="29.01538461538462" type="qcurve" smooth="yes"/>
      <point x="821.5595141700405" y="29.01538461538462"/>
      <point x="918.7538461538461" y="184.92793522267206"/>
      <point x="918.7538461538461" y="447.285020242915" type="qcurve" smooth="yes"/>
      <point x="918.7538461538461" y="710.8566801619434"/>
      <point x="849.2307692307693" y="845.5473684210526"/>
      <point x="777.5408906882592" y="845.5473684210526" type="qcurve" smooth="yes"/>
      <point x="753.791093117409" y="845.5473684210526"/>
      <point x="678.8615384615384" y="818.9263157894736"/>
      <point x="662.7530364372469" y="801.2" type="qcurve"/>
      <point x="645.4234817813765" y="856.1846153846154" type="line"/>
      <point x="669.2696356275303" y="885.9230769230769"/>
      <point x="815.0615384615385" y="939.2923076923076"/>
      <point x="909.5846153846154" y="939.2923076923076" type="qcurve" smooth="yes"/>
      <point x="1109.77004048583" y="939.2923076923076"/>
      <point x="1363.0307692307692" y="723.0696356275303"/>
      <point x="1363.0307692307692" y="451.53846153846155" type="qcurve" smooth="yes"/>
      <point x="1363.0307692307692" y="240.2923076923077"/>
      <point x="1007.6153846153846" y="-25.26153846153846"/>
      <point x="719.1384615384616" y="-25.26153846153846" type="qcurve" smooth="yes"/>
      <point x="417.53846153846155" y="-25.26153846153846"/>
      <point x="65.93846153846154" y="285.7692307692308"/>
    </contour>
  </outline>
</glyph>
<glyph name="eight" format="2">
  <advance width="1423"/>
  <unicode hex="0038"/>
  <outline>
    <contour>
      <point x="93.01538461538462" y="354.71174089068825" type="qcurve" smooth="yes"/>
      <point x="93.01538461538462" y="513.1538461538462"/>
      <point x="389.34412955465586" y="731.5740890688259"/>
      <point x="644.4866396761133" y="797.2404858299595" type="qcurve"/>
      <point x="681.5295546558705" y="780.1004048582995" type="line"/>
      <point x="611.1562753036437" y="713.6842105263158"/>
      <point x="474.80971659919027" y="490.7206477732794"/>
      <point x="474.80971659919027" y="315.35789473684207" type="qcurve" smooth="yes"/>
      <point x="474.80971659919027" y="158.79838056680163"/>
      <point x="585.5417004048583" y="18.961133603238867"/>
      <point x="680.1846153846154" y="18.961133603238867" type="qcurve" smooth="yes"/>
      <point x="769.5595141700405" y="18.961133603238867"/>
      <point x="885.1813765182187" y="152.96032388663969"/>
      <point x="885.1813765182187" y="281.00566801619436" type="qcurve" smooth="yes"/>
      <point x="885.1813765182187" y="411.0364372469636"/>
      <point x="727.5384615384615" y="582.4153846153846"/>
      <point x="578.6" y="660.7846153846153" type="qcurve" smooth="yes"/>
      <point x="363.03076923076924" y="763.6769230769231"/>
      <point x="192.81538461538463" y="972.1538461538462"/>
      <point x="196.81538461538463" y="1151.0923076923077" type="qcurve" smooth="yes"/>
      <point x="200.81538461538463" y="1314.1538461538462"/>
      <point x="459.2153846153846" y="1518.6923076923076"/>
      <point x="714.1692307692308" y="1518.6923076923076" type="qcurve" smooth="yes"/>
      <point x="960.8153846153846" y="1518.6923076923076"/>
      <point x="1209.9384615384615" y="1362.5692307692307"/>
      <point x="1209.9384615384615" y="1210.8947368421052" type="qcurve" smooth="yes"/>
      <point x="1209.9384615384615" y="1079.0510121457492"/>
      <point x="972.4178137651822" y="878.4736842105264"/>
      <point x="781.3578947368421" y="824.7255060728745" type="qcurve"/>
      <point x="721.5716599190284" y="835.127935222672" type="line"/>
      <point x="800.5643724696356" y="902.5433198380566"/>
      <point x="888.089068825911" y="1102.9862348178137"/>
      <point x="888.089068825911" y="1226.931983805668" type="qcurve" smooth="yes"/>
      <point x="888.089068825911" y="1353.2186234817814"/>
      <point x="787.3716599190284" y="1466.1522267206478"/>
      <point x="711.4769230769231" y="1466.1522267206478" type="qcurve" smooth="yes"/>
      <point x="648.2016194331984" y="1466.1522267206478"/>
      <point x="565.4113360323887" y="1380.565991902834"/>
      <point x="565.4113360323887" y="1268.4267206477732" type="qcurve" smooth="yes"/>
      <point x="565.4113360323887" y="1143.9246963562753"/>
      <point x="693.6153846153846" y="1004.1538461538462"/>
      <point x="881.4923076923077" y="924.8461538461538" type="qcurve" smooth="yes"/>
      <point x="1078.2153846153847" y="842.8"/>
      <point x="1329.7230769230769" y="603.4461538461538"/>
      <point x="1329.7230769230769" y="413.44615384615383" type="qcurve" smooth="yes"/>
      <point x="1329.7230769230769" y="207.92307692307693"/>
      <point x="1005.876923076923" y="-26.630769230769232"/>
      <point x="686.3846153846154" y="-26.630769230769232" type="qcurve" smooth="yes"/>
      <point x="387.1384615384615" y="-26.630769230769232"/>
      <point x="93.01538461538462" y="181.92307692307693"/>
    </contour>
  </outline>
</glyph>
<glyph name="less" format="2">
  <advance width="992"/>
  <unicode hex="003C"/>
  <outline>
    <contour>
      <point x="102.0" y="634.0" type="qcurve"/>
      <point x="113.35384615384615" y="651.0307692307692"/>
      <point x="700.0923076923077" y="1065.0323886639676"/>
      <point x="754.3635627530364" y="1102.2080971659918" type="qcurve" smooth="yes"/>
      <point x="797.6202429149797" y="1141.5076923076922"/>
      <point x="902.6615384615385" y="986.387044534413"/>
      <point x="866.7789473684211" y="945.1894736842105" type="qcurve" smooth="yes"/>
      <point x="809.2210526315789" y="897.6631578947369"/>
      <point x="540.1538461538462" y="642.6769230769231"/>
      <point x="526.276923076923" y="635.1076923076923" type="qcurve"/>
      <point x="540.1538461538462" y="628.8"/>
      <point x="831.5279352226721" y="359.19919028340087"/>
      <point x="870.4639676113361" y="323.2477732793522" type="qcurve" smooth="yes"/>
      <point x="903.4" y="283.3117408906882"/>
      <point x="793.6736842105264" y="138.2923076923077"/>
      <point x="765.7862348178138" y="161.068016194332" type="qcurve" smooth="yes"/>
      <point x="690.7530364372469" y="204.8663967611336"/>
      <point x="102.0" y="620.7538461538461"/>
    </contour>
  </outline>
</glyph>
<glyph name="greater" format="2">
  <advance width="992"/>
  <unicode hex="003E"/>
  <outline>
    <contour>
      <point x="120.75951417004048" y="333.0259109311741" type="qcurve" smooth="yes"/>
      <point x="166.31740890688258" y="370.5522267206478"/>
      <point x="451.38461538461536" y="628.1692307692308"/>
      <point x="465.26153846153846" y="635.7384615384616" type="qcurve"/>
      <point x="451.38461538461536" y="642.0461538461539"/>
      <point x="176.0105263157895" y="909.6469635627531"/>
      <point x="125.0744939271255" y="955.5983805668016" type="qcurve" smooth="yes"/>
      <point x="90.13846153846154" y="995.5344129554657"/>
      <point x="194.8647773279352" y="1146.553846153846"/>
      <point x="238.75222672064777" y="1109.778137651822" type="qcurve" smooth="yes"/>
      <point x="314.78542510121457" y="1065.97975708502"/>
      <point x="889.5384615384615" y="644.0923076923077"/>
      <point x="889.5384615384615" y="630.8461538461538" type="qcurve"/>
      <point x="878.1846153846154" y="613.8153846153846"/>
      <point x="277.44615384615383" y="205.81376518218622"/>
      <point x="224.1748987854251" y="168.63805668016192" type="qcurve" smooth="yes"/>
      <point x="196.91821862348178" y="143.33846153846153"/>
      <point x="86.87692307692308" y="291.82834008097166"/>
    </contour>
  </outline>
</glyph>
<glyph name="question" format="2">
  <advance width="1031"/>
  <unicode hex="003F"/>
  <outline>
    <contour>
      <point x="163.5846153846154" y="162.7076923076923" type="qcurve" smooth="yes"/>
      <point x="163.5846153846154" y="238.5076923076923"/>
      <point x="277.8615384615385" y="345.5230769230769"/>
      <point x="368.6615384615385" y="345.5230769230769" type="qcurve" smooth="yes"/>
      <point x="459.46153846153845" y="345.5230769230769"/>
      <point x="573.1076923076923" y="238.5076923076923"/>
      <point x="573.1076923076923" y="162.7076923076923" type="qcurve" smooth="yes"/>
      <point x="573.1076923076923" y="85.64615384615385"/>
      <point x="459.46153846153845" y="-22.0"/>
      <point x="368.6615384615385" y="-22.0" type="qcurve" smooth="yes"/>
      <point x="277.8615384615385" y="-22.0"/>
      <point x="163.5846153846154" y="85.64615384615385"/>
    </contour>
    <contour>
      <point x="57.276923076923076" y="1223.3927125506073" type="qcurve" smooth="yes"/>
      <point x="57.276923076923076" y="1339.1149797570852"/>
      <point x="278.0" y="1535.5846153846153"/>
      <point x="499.33846153846156" y="1535.5846153846153" type="qcurve" smooth="yes"/>
      <point x="739.2153846153847" y="1535.5846153846153"/>
      <point x="998.5538461538462" y="1336.0153846153846"/>
      <point x="998.5538461538462" y="1164.8923076923077" type="qcurve" smooth="yes"/>
      <point x="998.5538461538462" y="1027.2817813765182"/>
      <point x="882.7141700404859" y="826.6477732793522"/>
      <point x="690.7384615384615" y="732.8307692307692" type="qcurve" smooth="yes"/>
      <point x="605.9514170040485" y="686.6850202429149"/>
      <point x="402.84129554655874" y="602.9157894736842"/>
      <point x="402.84129554655874" y="494.0574898785425" type="qcurve" smooth="yes"/>
      <point x="402.84129554655874" y="474.18461538461537" type="line"/>
      <point x="320.36518218623485" y="474.18461538461537" type="line"/>
      <point x="312.6218623481781" y="578.6825910931174" type="line" smooth="yes"/>
      <point x="298.61538461538464" y="702.8834008097166"/>
      <point x="399.65263157894736" y="880.6777327935223"/>
      <point x="468.0153846153846" y="938.7384615384616" type="qcurve" smooth="yes"/>
      <point x="507.1085020242915" y="974.3797570850203"/>
      <point x="571.8153846153846" y="1135.8542510121456"/>
      <point x="571.8153846153846" y="1249.463157894737" type="qcurve" smooth="yes"/>
      <point x="571.8153846153846" y="1349.1902834008097"/>
      <point x="496.1595141700405" y="1432.2283400809717"/>
      <point x="421.6518218623482" y="1432.2283400809717" type="qcurve" smooth="yes"/>
      <point x="324.01457489878544" y="1432.2283400809717"/>
      <point x="205.86315789473684" y="1350.8753036437247"/>
      <point x="205.86315789473684" y="1278.575708502024" type="qcurve" smooth="yes"/>
      <point x="205.86315789473684" y="1253.3465587044534"/>
      <point x="318.61538461538464" y="1189.561943319838"/>
      <point x="317.3538461538461" y="1128.3927125506073" type="qcurve" smooth="yes"/>
      <point x="315.46153846153845" y="1084.1773279352226"/>
      <point x="257.44615384615383" y="1017.9004048582996"/>
      <point x="198.69230769230768" y="1017.9004048582996" type="qcurve" smooth="yes"/>
      <point x="143.03076923076924" y="1017.9004048582996"/>
      <point x="57.276923076923076" y="1119.1773279352226"/>
    </contour>
  </outline>
</glyph>
<glyph name="at" format="2">
  <advance width="1665"/>
  <unicode hex="0040"/>
  <outline>
    <contour>
      <point x="66.38461538461539" y="761.1384615384616" type="qcurve" smooth="yes"/>
      <point x="66.38461538461539" y="1071.3076923076924"/>
      <point x="516.919028340081" y="1516.4769230769232"/>
      <point x="826.3384615384615" y="1516.4769230769232" type="qcurve" smooth="yes"/>
      <point x="1143.2137651821863" y="1516.4769230769232"/>
      <point x="1548.4566801619433" y="1110.6615384615384"/>
      <point x="1548.4566801619433" y="806.1360323886639" type="qcurve" smooth="yes"/>
      <point x="1548.4566801619433" y="567.1384615384616"/>
      <point x="1302.076923076923" y="343.5230769230769"/>
      <point x="1118.4923076923078" y="343.5230769230769" type="qcurve" smooth="yes"/>
      <point x="1036.553846153846" y="343.5230769230769"/>
      <point x="933.9230769230769" y="397.3538461538462"/>
      <point x="908.4461538461538" y="454.96923076923076" type="qcurve"/>
      <point x="884.2153846153847" y="406.18461538461537"/>
      <point x="804.3692307692307" y="343.7692307692308"/>
      <point x="731.9384615384615" y="343.7692307692308" type="qcurve" smooth="yes"/>
      <point x="591.1076923076923" y="343.7692307692308"/>
      <point x="452.46153846153845" y="446.9846153846154"/>
      <point x="452.46153846153845" y="572.4461538461538" type="qcurve" smooth="yes"/>
      <point x="452.46153846153845" y="688.876923076923"/>
      <point x="666.876923076923" y="814.0615384615385"/>
      <point x="945.3076923076923" y="890.876923076923" type="qcurve"/>
      <point x="947.6291497975708" y="861.8817813765182" type="line"/>
      <point x="816.5692307692308" y="809.531983805668"/>
      <point x="727.361943319838" y="669.1919028340081"/>
      <point x="727.361943319838" y="560.4137651821862" type="qcurve" smooth="yes"/>
      <point x="727.361943319838" y="486.02024291497975"/>
      <point x="755.2267206477733" y="410.98785425101215"/>
      <point x="818.2728744939271" y="410.98785425101215" type="qcurve" smooth="yes"/>
      <point x="849.0145748987854" y="410.98785425101215"/>
      <point x="879.3692307692307" y="455.6016194331984"/>
      <point x="888.6995951417005" y="499.36842105263156" type="qcurve"/>
      <point x="891.6461538461539" y="977.2323886639676" type="line" smooth="yes"/>
      <point x="892.6461538461539" y="1045.4331983805666"/>
      <point x="820.6364372469636" y="1128.1246963562753"/>
      <point x="737.7319838056679" y="1128.1246963562753" type="qcurve" smooth="yes"/>
      <point x="680.7854251012146" y="1128.1246963562753"/>
      <point x="592.9449392712551" y="1081.7174089068826"/>
      <point x="590.6040485829959" y="1035.2080971659918" type="qcurve"/>
      <point x="610.251012145749" y="1026.3012145748987"/>
      <point x="682.3554655870446" y="961.7983805668016"/>
      <point x="683.0412955465587" y="935.1174089068826" type="qcurve" smooth="yes"/>
      <point x="680.6259109311741" y="907.2097165991903"/>
      <point x="632.0923076923077" y="861.1538461538462"/>
      <point x="586.0461538461539" y="861.1538461538462" type="qcurve" smooth="yes"/>
      <point x="548.5692307692308" y="861.1538461538462"/>
      <point x="489.3076923076923" y="923.6307692307693"/>
      <point x="489.3076923076923" y="977.8461538461538" type="qcurve" smooth="yes"/>
      <point x="489.3076923076923" y="1055.4307692307693"/>
      <point x="635.0923076923077" y="1182.123076923077"/>
      <point x="805.4461538461538" y="1182.123076923077" type="qcurve" smooth="yes"/>
      <point x="966.1538461538462" y="1182.123076923077"/>
      <point x="1153.8" y="1050.6307692307691"/>
      <point x="1153.2769230769231" y="900.2461538461539" type="qcurve" smooth="yes"/>
      <point x="1156.961133603239" y="433.42995951417004" type="line" smooth="yes"/>
      <point x="1167.6842105263158" y="408.2218623481781"/>
      <point x="1199.9854251012146" y="385.748987854251"/>
      <point x="1244.025910931174" y="385.748987854251" type="qcurve" smooth="yes"/>
      <point x="1307.8437246963563" y="385.748987854251"/>
      <point x="1450.897165991903" y="560.1668016194332"/>
      <point x="1450.897165991903" y="763.3554655870446" type="qcurve" smooth="yes"/>
      <point x="1450.897165991903" y="1097.9182186234816"/>
      <point x="1092.527125506073" y="1464.0785425101215"/>
      <point x="831.9692307692308" y="1464.0785425101215" type="qcurve" smooth="yes"/>
      <point x="551.8995951417005" y="1464.0785425101215"/>
      <point x="167.88663967611336" y="1057.3481781376518"/>
      <point x="165.9935222672065" y="764.034008097166" type="qcurve" smooth="yes"/>
      <point x="164.1004048582996" y="365.8194331983805"/>
      <point x="529.051012145749" y="15.07692307692308"/>
      <point x="799.1214574898785" y="15.07692307692308" type="qcurve" smooth="yes"/>
      <point x="910.0834008097166" y="15.07692307692308"/>
      <point x="1099.6016194331985" y="83.90769230769232"/>
      <point x="1181.1724696356275" y="161.82995951417004" type="qcurve"/>
      <point x="1195.004048582996" y="121.77327935222672" type="line"/>
      <point x="1130.6356275303644" y="44.52550607287449"/>
      <point x="905.6712550607288" y="-21.47692307692308"/>
      <point x="789.5927125506072" y="-21.47692307692308" type="qcurve" smooth="yes"/>
      <point x="489.87287449392716" y="-21.47692307692308"/>
      <point x="66.38461538461539" y="327.89230769230767"/>
    </contour>
  </outline>
</glyph>
<glyph name="A" format="2">
  <advance width="1354"/>
  <unicode hex="0041"/>
  <outline>
    <contour>
      <point x="-0.719028340080972" y="-1.0" type="line"/>
      <point x="-0.719028340080972" y="70.42914979757086" type="line"/>
      <point x="137.72064777327935" y="110.74493927125505" type="line"/>
      <point x="289.1265272826153" y="691.7099160070095" type="line"/>
      <point x="459.3009124418394" y="1498.7384615384615" type="line"/>
      <point x="896.9422079883981" y="1498.7384615384615" type="line"/>
      <point x="1091.6972626744819" y="669.6181612182005" type="line"/>
      <point x="1236.7459544383346" y="104.42914979757083" type="line"/>
      <point x="1353.403444316877" y="70.42914979757086" type="line"/>
      <point x="1353.403444316877" y="0.0" type="line"/>
      <point x="578.3880597014926" y="0.0" type="line"/>
      <point x="578.3880597014926" y="70.42914979757086" type="line"/>
      <point x="715.2536467460269" y="104.42914979757083" type="line"/>
      <point x="554.776596773219" y="684.8165689769775" type="line"/>
      <point x="459.7041513082362" y="1201.1796875944167" type="line"/>
      <point x="372.64223215904286" y="692.179415674663" type="line"/>
      <point x="216.85668016194333" y="111.37570850202431" type="line"/>
      <point x="402.8251012145749" y="70.42914979757086" type="line"/>
      <point x="402.8251012145749" y="0.0" type="line"/>
    </contour>
    <contour>
      <point x="493.4217566016073" y="574.9417004048582" type="line"/>
      <point x="728.5757870566197" y="578.3684210526316" type="line"/>
      <point x="735.1938818055471" y="516.7740890688259" type="line"/>
      <point x="493.4217566016073" y="516.7740890688259" type="line"/>
    </contour>
    <contour>
      <point x="282.41943319838055" y="516.7740890688259" type="line"/>
      <point x="277.56474711462926" y="577.3684210526316" type="line"/>
      <point x="493.4217566016073" y="574.9417004048582" type="line"/>
      <point x="493.4217566016073" y="516.7740890688259" type="line"/>
    </contour>
  </outline>
</glyph>
<glyph name="B" format="2">
  <advance width="1461"/>
  <unicode hex="0042"/>
  <outline>
    <contour>
      <point x="28.753846153846155" y="0.0" type="line"/>
      <point x="28.753846153846155" y="57.42914979757085" type="line"/>
      <point x="179.63076923076923" y="92.42914979757086" type="line"/>
      <point x="181.63076923076923" y="754.0" type="line"/>
      <point x="179.63076923076923" y="1405.2995951417004" type="line"/>
      <point x="28.753846153846155" y="1439.2995951417004" type="line"/>
      <point x="28.753846153846155" y="1500.0" type="line"/>
      <point x="943.2121699196326" y="1500.0" type="line" smooth="yes"/>
      <point x="1149.1407003444317" y="1500.0"/>
      <point x="1338.4276119402984" y="1312.0"/>
      <point x="1338.4276119402984" y="1170.8923076923077" type="qcurve" smooth="yes"/>
      <point x="1338.4276119402984" y="1034.6307692307691"/>
      <point x="1209.3833252764516" y="861.2193908997522"/>
      <point x="1088.566185267992" y="836.2702066590126" type="qcurve"/>
      <point x="1088.566185267992" y="829.2702066590126" type="line"/>
      <point x="1229.5659888815035" y="808.3945706689226"/>
      <point x="1404.0191733639494" y="609.6769230769231"/>
      <point x="1404.0191733639494" y="437.4153846153846" type="qcurve" smooth="yes"/>
      <point x="1404.0191733639494" y="248.52307692307693"/>
      <point x="1208.7300803673938" y="1.0"/>
      <point x="970.9920206659012" y="0.0" type="qcurve" smooth="yes"/>
    </contour>
    <contour>
      <point x="669.4307692307692" y="87.96437246963563" type="line"/>
      <point x="690.2736842105263" y="67.3336032388664" type="line"/>
      <point x="741.0438002296212" y="67.3336032388664" type="line" smooth="yes"/>
      <point x="835.6904133180252" y="67.3336032388664"/>
      <point x="910.957634902411" y="232.93279352226722"/>
      <point x="910.957634902411" y="433.68744939271255" type="qcurve" smooth="yes"/>
      <point x="910.957634902411" y="619.446963562753"/>
      <point x="832.9097014925374" y="782.9465587044534"/>
      <point x="761.739150401837" y="782.9465587044534" type="qcurve" smooth="yes"/>
      <point x="670.4923076923077" y="782.9465587044534" type="line"/>
      <point x="666.1692307692308" y="774.1562753036437" type="line"/>
    </contour>
    <contour>
      <point x="666.8" y="856.6963562753036" type="line"/>
      <point x="669.123076923077" y="845.4372469635628" type="line"/>
      <point x="736.1274397244546" y="845.4372469635628" type="line" smooth="yes"/>
      <point x="807.8498851894374" y="845.4372469635628"/>
      <point x="841.5268656716418" y="1010.5554655870445"/>
      <point x="841.5268656716418" y="1170.9587044534414" type="qcurve" smooth="yes"/>
      <point x="841.5268656716418" y="1323.2526315789473"/>
      <point x="784.1970149253732" y="1438.6566801619433"/>
      <point x="729.4745694603904" y="1438.9724696356277" type="qcurve" smooth="yes"/>
      <point x="682.7481781376518" y="1438.9724696356277" type="line"/>
      <point x="669.8" y="1429.4445344129554" type="line"/>
    </contour>
  </outline>
</glyph>
<glyph name="C" format="2">
  <advance width="1133"/>
  <unicode hex="0043"/>
  <outline>
    <contour>
      <point x="54.90769230769231" y="754.4461538461538" type="qcurve" smooth="yes"/>
      <point x="54.90769230769231" y="1131.1692307692308"/>
      <point x="443.4133180252583" y="1517.7384615384615"/>
      <point x="693.7267176264426" y="1517.7384615384615" type="qcurve" smooth="yes"/>
      <point x="784.4712550607287" y="1517.7384615384615"/>
      <point x="915.0844643180858" y="1479.3125506072874"/>
      <point x="980.0018641609767" y="1429.6388663967612" type="qcurve"/>
      <point x="1002.0694966463229" y="1493.0615384615385" type="line"/>
      <point x="1102.0184845005742" y="1493.0615384615385" type="line"/>
      <point x="1097.281642395311" y="1054.7076923076922" type="line"/>
      <point x="1004.7909541362014" y="1054.7076923076922" type="line"/>
      <point x="932.1612846697685" y="1344.9141700404857" type="line" smooth="yes"/>
      <point x="876.5403770620582" y="1408.8825910931175"/>
      <point x="776.6777750921507" y="1447.8728744939272"/>
      <point x="738.9405251072573" y="1447.8728744939272" type="qcurve" smooth="yes"/>
      <point x="639.2809837452414" y="1447.8728744939272"/>
      <point x="590.3384615384615" y="1141.1587044534415"/>
      <point x="590.3384615384615" y="737.7149797570851" type="qcurve" smooth="yes"/>
      <point x="589.7076923076924" y="355.5109311740891"/>
      <point x="704.2118254879449" y="79.38623481781377"/>
      <point x="810.1940600640522" y="79.38623481781377" type="qcurve" smooth="yes"/>
      <point x="873.424699377606" y="79.38623481781377"/>
      <point x="1028.6277992627954" y="209.59409329868873"/>
      <point x="1060.3294307813162" y="300.194664330171" type="qcurve"/>
      <point x="1119.7840141398271" y="268.7425101214575" type="line"/>
      <point x="1089.3948909299656" y="126.5676113360324"/>
      <point x="871.5855096984714" y="-24.47692307692308"/>
      <point x="683.6979938364856" y="-24.47692307692308" type="qcurve" smooth="yes"/>
      <point x="436.4373708381171" y="-24.47692307692308"/>
      <point x="54.90769230769231" y="358.66882591093116"/>
    </contour>
  </outline>
</glyph>
<glyph name="E" format="2">
  <advance width="1206"/>
  <unicode hex="0045"/>
  <outline>
    <contour>
      <point x="28.753846153846155" y="0.0" type="line"/>
      <point x="28.753846153846155" y="57.42914979757085" type="line"/>
      <point x="179.63076923076923" y="91.1676113360324" type="line"/>
      <point x="181.63076923076923" y="754.6307692307693" type="line"/>
      <point x="179.63076923076923" y="1407.191902834008" type="line"/>
      <point x="28.753846153846155" y="1441.191902834008" type="line"/>
      <point x="28.753846153846155" y="1500.0" type="line"/>
      <point x="1100.4331500392773" y="1500.0" type="line"/>
      <point x="1100.4331500392773" y="1156.6615384615384" type="line"/>
      <point x="1025.4712067194394" y="1156.6615384615384" type="line"/>
      <point x="923.5837573267266" y="1427.191902834008" type="line"/>
      <point x="732.4712550607287" y="1427.191902834008" type="line"/>
      <point x="672.4307692307692" y="1404.4534412955466" type="line"/>
      <point x="670.4307692307692" y="786.7886639676113" type="line"/>
      <point x="672.4307692307692" y="108.22024291497974" type="line"/>
      <point x="734.0461538461539" y="81.32793522267207" type="line"/>
      <point x="943.255223880597" y="81.32793522267207" type="line"/>
      <point x="1087.5119040425402" y="383.33846153846156" type="line"/>
      <point x="1161.1588676052934" y="383.33846153846156" type="line"/>
      <point x="1123.7896368360628" y="0.0" type="line"/>
    </contour>
    <contour>
      <point x="429.36923076923074" y="754.6048582995951" type="line"/>
      <point x="429.36923076923074" y="823.7109311740891" type="line"/>
      <point x="910.1732068402924" y="831.8186234817813" type="line"/>
      <point x="970.9343404435314" y="995.8558704453441" type="line"/>
      <point x="1031.9497250589159" y="995.8558704453441" type="line"/>
      <point x="1031.9497250589159" y="572.302024291498" type="line"/>
      <point x="970.9343404435314" y="572.302024291498" type="line"/>
      <point x="910.1732068402924" y="746.4971659919029" type="line"/>
    </contour>
  </outline>
</glyph>
<glyph name="G" format="2">
  <advance width="1428"/>
  <unicode hex="0047"/>
  <outline>
    <contour>
      <point x="55.53846153846154" y="733.6307692307693" type="qcurve" smooth="yes"/>
      <point x="55.53846153846154" y="1126.753846153846"/>
      <point x="403.0513142788083" y="1517.7384615384615"/>
      <point x="730.6994682458155" y="1517.7384615384615" type="qcurve" smooth="yes"/>
      <point x="854.0811589824158" y="1517.7384615384615"/>
      <point x="1031.0470300320262" y="1473.051821862348"/>
      <point x="1104.0338781799508" y="1425.8542510121456" type="qcurve"/>
      <point x="1122.5741887727354" y="1493.0615384615385" type="line"/>
      <point x="1212.4252009184845" y="1493.0615384615385" type="line"/>
      <point x="1212.4252009184845" y="1053.446153846154" type="line"/>
      <point x="1119.9337029427759" y="1053.446153846154" type="line"/>
      <point x="1050.3209438636775" y="1331.0890688259108" type="line" smooth="yes"/>
      <point x="992.211922170524" y="1389.0459151610369"/>
      <point x="866.360366185268" y="1450.8520605474653"/>
      <point x="782.9978699619312" y="1450.8520605474653" type="qcurve" smooth="yes"/>
      <point x="678.1603873345822" y="1450.8520605474653"/>
      <point x="591.1518943742824" y="1174.9076923076923"/>
      <point x="590.3384615384615" y="755.1304489697263" type="qcurve" smooth="yes"/>
      <point x="588.8942594718715" y="309.4662336092815"/>
      <point x="684.6924225028703" y="56.22753036437247"/>
      <point x="782.3980663484199" y="56.22753036437247" type="qcurve" smooth="yes"/>
      <point x="798.7603329506314" y="56.22753036437247"/>
      <point x="815.1075200918484" y="57.001380748081466"/>
      <point x="820.3428817451205" y="59.79676113360324" type="qcurve"/>
      <point x="820.3428817451205" y="595.5554655870445" type="line"/>
      <point x="704.3582663605051" y="625.5554655870445" type="line"/>
      <point x="704.3582663605051" y="697.9846153846154" type="line"/>
      <point x="1371.0044202066592" y="697.9846153846154" type="line"/>
      <point x="1371.0044202066592" y="625.5554655870445" type="line"/>
      <point x="1292.7736509758897" y="595.5554655870445" type="line"/>
      <point x="1292.7736509758897" y="178.81538461538463" type="line"/>
      <point x="1180.2876004592424" y="61.63748564867968"/>
      <point x="865.9037887485649" y="-24.47692307692308"/>
      <point x="671.1158499002962" y="-24.47692307692308" type="qcurve" smooth="yes"/>
      <point x="435.5654420206659" y="-24.47692307692308"/>
      <point x="55.53846153846154" y="321.2041331802526"/>
    </contour>
  </outline>
</glyph>
<glyph name="J" format="2">
  <advance width="942"/>
  <unicode hex="004A"/>
  <outline>
    <contour>
      <point x="32.69070034443169" y="-106.54322617680829" type="qcurve"/>
      <point x="37.1060849598163" y="-22.41691038733459" type="line"/>
      <point x="54.90998851894375" y="-23.86501601305214"/>
      <point x="79.85430539609644" y="-15.987512840655018"/>
      <point x="104.81509758897818" y="-6.279811468970937" type="qcurve" smooth="yes"/>
      <point x="146.4946613088404" y="5.632841863556703"/>
      <point x="213.95384615384614" y="112.74434406912803"/>
      <point x="213.95384615384614" y="226.00242914979756" type="qcurve" smooth="yes"/>
      <point x="216.95384615384614" y="703.5384615384615" type="line"/>
      <point x="214.95384615384614" y="1406.8785425101214" type="line"/>
      <point x="44.61538461538461" y="1440.8785425101214" type="line"/>
      <point x="44.61538461538461" y="1500.0" type="line"/>
      <point x="861.7846153846153" y="1500.0" type="line"/>
      <point x="861.7846153846153" y="1440.8785425101214" type="line"/>
      <point x="708.7538461538461" y="1406.8785425101214" type="line"/>
      <point x="707.7538461538461" y="703.5384615384615" type="line"/>
      <point x="708.0769230769231" y="283.5230769230769" type="line" smooth="yes"/>
      <point x="707.3711825487945" y="138.82916188289323"/>
      <point x="489.60987370838114" y="-65.87095292766935"/>
      <point x="308.7181400688863" y="-84.72422502870265" type="qcurve" smooth="yes"/>
      <point x="264.32571756601607" y="-103.94758897818599"/>
      <point x="82.19598163030999" y="-112.2528702640643"/>
    </contour>
  </outline>
</glyph>
<glyph name="K" format="2">
  <advance width="1575"/>
  <unicode hex="004B"/>
  <outline>
    <contour>
      <point x="28.753846153846155" y="0.0" type="line"/>
      <point x="28.753846153846155" y="57.42914979757085" type="line"/>
      <point x="179.63076923076923" y="92.42914979757086" type="line"/>
      <point x="181.63076923076923" y="754.0" type="line"/>
      <point x="179.63076923076923" y="1405.2995951417004" type="line"/>
      <point x="28.753846153846155" y="1439.2995951417004" type="line"/>
      <point x="28.753846153846155" y="1500.0" type="line"/>
      <point x="827.6153846153846" y="1500.0" type="line"/>
      <point x="827.6153846153846" y="1439.2995951417004" type="line"/>
      <point x="671.8" y="1405.2995951417004" type="line"/>
      <point x="667.9076923076923" y="754.0" type="line"/>
      <point x="671.8" y="92.42914979757086" type="line"/>
      <point x="801.3076923076923" y="57.42914979757085" type="line"/>
      <point x="801.3076923076923" y="0.0" type="line"/>
    </contour>
    <contour>
      <point x="543.5230769230769" y="474.0445344129555" type="line"/>
      <point x="531.6307692307693" y="552.5942050879207" type="line"/>
      <point x="1169.5715692791107" y="1410.4542510121457" type="line"/>
      <point x="997.811372288356" y="1440.2995951417004" type="line"/>
      <point x="997.811372288356" y="1500.0" type="line"/>
      <point x="1461.510967430056" y="1500.0" type="line"/>
      <point x="1461.510967430056" y="1440.2995951417004" type="line"/>
      <point x="1257.2575261345096" y="1409.8226720647774" type="line"/>
      <point x="953.9533506556287" y="969.686292223095" type="line"/>
      <point x="897.3328267569038" y="902.4755272221886" type="line"/>
    </contour>
    <contour>
      <point x="728.4752855157411" y="742.9990210888876" type="line"/>
      <point x="1072.7508369085745" y="1116.2645658347935" type="line"/>
      <point x="1483.918254879449" y="94.0080971659919" type="line"/>
      <point x="1576.519064596048" y="57.42914979757085" type="line"/>
      <point x="1576.519064596048" y="0.0" type="line"/>
      <point x="867.2056619735332" y="0.0" type="line"/>
      <point x="867.2056619735332" y="57.42914979757085" type="line"/>
      <point x="953.493921082845" y="92.42914979757086" type="line"/>
    </contour>
  </outline>
</glyph>
<glyph name="M" format="2">
  <advance width="1796"/>
  <unicode hex="004D"/>
  <outline>
    <contour>
      <point x="37.753846153846155" y="0.0" type="line"/>
      <point x="37.753846153846155" y="57.42914979757085" type="line"/>
      <point x="206.29311740890688" y="95.90283400809717" type="line"/>
      <point x="208.29311740890688" y="749.5846153846154" type="line"/>
      <point x="207.55465587044534" y="1402.825910931174" type="line"/>
      <point x="37.753846153846155" y="1440.2995951417004" type="line"/>
      <point x="37.753846153846155" y="1500.0" type="line"/>
      <point x="693.6542510121457" y="1500.0" type="line"/>
      <point x="778.2606229983685" y="920.599598163031" type="line"/>
      <point x="862.5086228775153" y="389.56437246963566" type="line"/>
      <point x="958.8748504441356" y="923.560127500151" type="line"/>
      <point x="1041.1418575140492" y="1500.0" type="line"/>
      <point x="1706.9175660160734" y="1500.0" type="line"/>
      <point x="1706.9175660160734" y="1440.2995951417004" type="line"/>
      <point x="1567.0406429391503" y="1406.2995951417004" type="line"/>
      <point x="1565.0406429391503" y="752.1076923076923" type="line"/>
      <point x="1567.0406429391503" y="92.42914979757086" type="line"/>
      <point x="1706.9175660160734" y="57.42914979757085" type="line"/>
      <point x="1706.9175660160734" y="0.0" type="line"/>
      <point x="947.1483352468426" y="1.2615384615384615" type="line"/>
      <point x="947.1483352468426" y="58.690688259109315" type="line"/>
      <point x="1072.2406429391503" y="92.42914979757086" type="line"/>
      <point x="1075.2406429391503" y="750.1076923076923" type="line"/>
      <point x="1070.3483352468427" y="1399.6923076923076" type="line"/>
      <point x="977.0735119946825" y="799.4675901867182" type="line"/>
      <point x="844.2300803673937" y="2.569230769230769" type="line"/>
      <point x="492.68595081273793" y="2.569230769230769" type="line"/>
      <point x="380.489440449574" y="735.3373708381172" type="line"/>
      <point x="257.3619433198381" y="1402.8048582995953" type="line"/>
      <point x="252.83805668016197" y="749.5846153846154" type="line"/>
      <point x="255.46882591093117" y="95.90283400809717" type="line"/>
      <point x="392.1692307692308" y="58.690688259109315" type="line"/>
      <point x="392.1692307692308" y="1.2615384615384615" type="line"/>
    </contour>
  </outline>
</glyph>
<glyph name="N" format="2">
  <advance width="1363"/>
  <unicode hex="004E"/>
  <outline>
    <contour>
      <point x="28.753846153846155" y="0.0" type="line"/>
      <point x="28.753846153846155" y="57.42914979757085" type="line"/>
      <point x="195.88016194331982" y="94.32388663967612" type="line"/>
      <point x="199.14170040485828" y="753.3692307692307" type="line"/>
      <point x="197.14170040485828" y="1404.4048582995952" type="line"/>
      <point x="28.753846153846155" y="1440.2995951417004" type="line"/>
      <point x="28.753846153846155" y="1500.0" type="line"/>
      <point x="676.2874493927126" y="1500.0" type="line"/>
      <point x="910.8335700042298" y="929.3335941748746" type="line"/>
      <point x="1089.2083872137289" y="469.8198622273249" type="line"/>
      <point x="1086.9468487521904" y="804.2615384615384" type="line"/>
      <point x="1082.4237718291133" y="1404.4048582995952" type="line"/>
      <point x="907.1541362015831" y="1440.2995951417004" type="line"/>
      <point x="907.1541362015831" y="1500.0" type="line"/>
      <point x="1345.0310592785063" y="1500.0" type="line"/>
      <point x="1345.0310592785063" y="1440.2995951417004" type="line"/>
      <point x="1173.0148649465225" y="1404.4048582995952" type="line"/>
      <point x="1169.753326484984" y="778.3692307692307" type="line"/>
      <point x="1168.276403408061" y="0.0" type="line"/>
      <point x="762.685310290652" y="0.0" type="line"/>
      <point x="503.7761224243157" y="651.6907305577377" type="line"/>
      <point x="276.1595141700405" y="1219.8510967430057" type="line"/>
      <point x="278.1595141700405" y="692.8" type="line"/>
      <point x="283.3133603238866" y="94.32388663967612" type="line"/>
      <point x="451.2105263157895" y="57.42914979757085" type="line"/>
      <point x="451.2105263157895" y="0.0" type="line"/>
    </contour>
  </outline>
</glyph>
<glyph name="P" format="2">
  <advance width="1443"/>
  <unicode hex="0050"/>
  <outline>
    <contour>
      <point x="28.753846153846155" y="0.0" type="line"/>
      <point x="28.753846153846155" y="57.42914979757085" type="line"/>
      <point x="179.63076923076923" y="93.42914979757086" type="line"/>
      <point x="181.63076923076923" y="754.0" type="line"/>
      <point x="179.63076923076923" y="1405.2995951417004" type="line"/>
      <point x="28.753846153846155" y="1439.2995951417004" type="line"/>
      <point x="28.753846153846155" y="1500.0" type="line"/>
      <point x="932.8191733639495" y="1500.0" type="line" smooth="yes"/>
      <point x="1159.2792192881745" y="1500.0"/>
      <point x="1401.9869115958668" y="1287.097975708502"/>
      <point x="1401.9869115958668" y="1081.042105263158" type="qcurve" smooth="yes"/>
      <point x="1401.9869115958668" y="819.6290561363224"/>
      <point x="1104.4308840413319" y="581.1854251012146"/>
      <point x="820.8908725602755" y="581.1854251012146" type="qcurve" smooth="yes"/>
      <point x="776.5371986222733" y="581.1854251012146"/>
      <point x="664.1020665901264" y="592.1225058915946"/>
      <point x="595.4769230769231" y="608.2923076923076" type="qcurve"/>
      <point x="604.4769230769231" y="692.302024291498" type="line"/>
      <point x="653.9538461538461" y="679.4631578947369"/>
      <point x="723.4461538461538" y="667.5165991902834"/>
      <point x="751.7181400688863" y="667.5165991902834" type="qcurve" smooth="yes"/>
      <point x="810.8345579793341" y="667.5165991902834"/>
      <point x="904.0792192881745" y="834.9805668016195"/>
      <point x="900.0792192881745" y="1069.0356275303645" type="qcurve" smooth="yes"/>
      <point x="897.0792192881745" y="1246.6364372469636"/>
      <point x="773.3869115958668" y="1411.5060728744938"/>
      <point x="690.8345579793341" y="1411.5060728744938" type="qcurve" smooth="yes"/>
      <point x="692.8574898785425" y="1411.5060728744938" type="line"/>
      <point x="671.8" y="1393.7182186234816" type="line"/>
      <point x="670.4307692307692" y="764.0" type="line"/>
      <point x="672.4307692307692" y="92.42914979757086" type="line"/>
      <point x="823.4153846153846" y="57.42914979757085" type="line"/>
      <point x="823.4153846153846" y="0.0" type="line"/>
    </contour>
  </outline>
</glyph>
<glyph name="Q" format="2">
  <advance width="1502"/>
  <unicode hex="0051"/>
  <outline>
    <contour>
      <point x="55.53846153846154" y="737.1282162064173" type="qcurve" smooth="yes"/>
      <point x="55.53846153846154" y="1089.1384615384616"/>
      <point x="428.80907305577375" y="1526.3692307692309"/>
      <point x="760.844374282434" y="1526.3692307692309" type="qcurve" smooth="yes"/>
      <point x="1093.4729590911838" y="1526.3692307692309"/>
      <point x="1465.743570608496" y="1115.6153846153845"/>
      <point x="1465.743570608496" y="757.1857574475799" type="qcurve" smooth="yes"/>
      <point x="1465.743570608496" y="452.770442322799"/>
      <point x="1115.761943319838" y="-9.027811348117714"/>
      <point x="767.9209650129918" y="-9.027811348117714" type="qcurve" smooth="yes"/>
      <point x="461.3604054625657" y="-9.027811348117714"/>
      <point x="55.53846153846154" y="392.9021179527464"/>
    </contour>
    <contour>
      <point x="589.3384615384615" y="786.165753217717" type="qcurve" smooth="yes"/>
      <point x="587.262680524503" y="390.23768203516835"/>
      <point x="694.6426642093178" y="79.97195903075715"/>
      <point x="762.3276814309022" y="79.97195903075715" type="qcurve" smooth="yes"/>
      <point x="840.4951447217354" y="79.97195903075715"/>
      <point x="928.3885823916853" y="342.83958245211187"/>
      <point x="926.943570608496" y="762.3873768807783" type="qcurve" smooth="yes"/>
      <point x="924.8677895945375" y="1150.4389600580096"/>
      <point x="829.122675086108" y="1461.7554655870447"/>
      <point x="758.8068886337543" y="1461.7554655870447" type="qcurve" smooth="yes"/>
      <point x="684.3842709529276" y="1461.7554655870447"/>
      <point x="590.7834733216508" y="1188.7490815154995"/>
    </contour>
    <contour>
      <point x="180.31425463774247" y="-415.44102362680525" type="qcurve"/>
      <point x="138.85332950631457" y="-401.06584385763495" type="line"/>
      <point x="190.88299897274757" y="-259.613067254819"/>
      <point x="410.9433349447096" y="-78.28636775635991"/>
      <point x="501.5447579914195" y="-60.40863496283763" type="qcurve"/>
      <point x="858.439537132153" y="318.51367454226835" type="line"/>
      <point x="899.9334642576591" y="261.01731826696476" type="line"/>
      <point x="573.3390899752251" y="-60.00782524623844" type="line"/>
      <point x="997.5928605958062" y="-133.83543718653695" type="line"/>
      <point x="1169.012293794187" y="-171.0815910326908"/>
      <point x="1325.8997431868993" y="-117.42814973714425"/>
      <point x="1371.0503504743488" y="-10.820052571152335" type="qcurve"/>
      <point x="1406.9450873164542" y="-20.588473623783912" type="line"/>
      <point x="1371.5693788144297" y="-183.2807813160916"/>
      <point x="1159.0649253731342" y="-437.6945464982778"/>
      <point x="1048.268164239531" y="-437.6807813160916" type="qcurve"/>
      <point x="463.3779563719863" y="-306.4693637077769" type="line"/>
      <point x="324.97805909722643" y="-294.4904163393559"/>
      <point x="244.93892078071184" y="-324.1924406308538"/>
    </contour>
  </outline>
</glyph>
<glyph name="R" format="2">
  <advance width="1526"/>
  <unicode hex="0052"/>
  <outline>
    <contour>
      <point x="28.753846153846155" y="0.0" type="line"/>
      <point x="28.753846153846155" y="57.42914979757085" type="line"/>
      <point x="179.63076923076923" y="92.42914979757086" type="line"/>
      <point x="181.63076923076923" y="765.9846153846154" type="line"/>
      <point x="179.63076923076923" y="1405.2995951417004" type="line"/>
      <point x="28.753846153846155" y="1439.2995951417004" type="line"/>
      <point x="28.753846153846155" y="1500.0" type="line"/>
      <point x="977.8061423650976" y="1500.0" type="line" smooth="yes"/>
      <point x="1177.4631458094145" y="1500.0"/>
      <point x="1381.0037887485648" y="1309.9983805668016"/>
      <point x="1381.0037887485648" y="1132.9036437246964" type="qcurve" smooth="yes"/>
      <point x="1381.0037887485648" y="968.0477732793522"/>
      <point x="1170.1207807118255" y="717.5659919028341"/>
      <point x="998.8984500574052" y="717.5659919028341" type="qcurve" smooth="yes"/>
      <point x="928.7541331802527" y="717.5659919028341"/>
      <point x="479.7846153846154" y="722.3578947368421"/>
      <point x="433.83076923076925" y="727.4113360323887" type="qcurve"/>
      <point x="434.0923076923077" y="814.8874493927126" type="line"/>
      <point x="741.7300803673938" y="812.9951417004048" type="line" smooth="yes"/>
      <point x="825.1591274397244" y="812.9951417004048"/>
      <point x="892.6169919632607" y="959.0728744939272"/>
      <point x="892.6169919632607" y="1133.1052631578948" type="qcurve" smooth="yes"/>
      <point x="892.6169919632607" y="1287.0599190283401"/>
      <point x="814.0293340987371" y="1411.8234817813764"/>
      <point x="742.7868541905855" y="1411.5076923076922" type="qcurve" smooth="yes"/>
      <point x="695.7433198380567" y="1410.8761133603239" type="line"/>
      <point x="673.7465587044534" y="1395.1951417004047" type="line"/>
      <point x="671.4307692307692" y="759.4615384615385" type="line"/>
      <point x="672.4307692307692" y="92.42914979757086" type="line"/>
      <point x="825.3076923076923" y="57.42914979757085" type="line"/>
      <point x="825.3076923076923" y="0.0" type="line"/>
    </contour>
    <contour>
      <point x="754.4609402380809" y="738.3287449392712" type="line"/>
      <point x="1196.2139253127077" y="796.8056680161943" type="line"/>
      <point x="1352.6823312586864" y="334.0744939271255" type="line" smooth="yes"/>
      <point x="1413.736240860475" y="170.71283159103268"/>
      <point x="1457.9950510604872" y="69.68663967611336"/>
      <point x="1534.556994380325" y="56.79838056680162" type="qcurve"/>
      <point x="1534.556994380325" y="-0.6307692307692307" type="line"/>
      <point x="998.335132032147" y="-0.6307692307692307" type="line"/>
      <point x="937.7043628013777" y="61.676923076923075" type="line"/>
    </contour>
  </outline>
</glyph>
<glyph name="S" format="2">
  <advance width="1073"/>
  <unicode hex="0053"/>
  <outline>
    <contour>
      <point x="26.696356275303646" y="-0.36923076923076925" type="line"/>
      <point x="31.11740890688259" y="432.5230769230769" type="line"/>
      <point x="103.97894736842106" y="432.5230769230769" type="line"/>
      <point x="141.33650975889782" y="346.20323886639676" type="line" smooth="yes"/>
      <point x="181.08273611698593" y="216.97165991902835"/>
      <point x="335.83154269140135" y="60.3417004048583"/>
      <point x="465.23609281527587" y="60.3417004048583" type="qcurve" smooth="yes"/>
      <point x="560.3915221463533" y="60.3417004048583"/>
      <point x="680.6751253852196" y="163.5595987672971"/>
      <point x="680.6751253852196" y="269.1723064837754" type="qcurve" smooth="yes"/>
      <point x="680.6751253852196" y="349.81488005317544"/>
      <point x="575.6300138981208" y="477.8897667532782"/>
      <point x="414.6695721795879" y="575.2250075533266" type="qcurve" smooth="yes"/>
      <point x="176.23082663605052" y="698.2068282071425"/>
      <point x="27.121354764638347" y="972.814867967853"/>
      <point x="27.121354764638347" y="1136.8741978367273" type="qcurve" smooth="yes"/>
      <point x="27.121354764638347" y="1320.4414586984108"/>
      <point x="270.629394525349" y="1525.7384615384615"/>
      <point x="491.79697866940603" y="1525.7384615384615" type="qcurve" smooth="yes"/>
      <point x="632.4353072693214" y="1525.7384615384615"/>
      <point x="788.7976071061697" y="1469.3141700404858"/>
      <point x="850.9910266481357" y="1417.0615384615385" type="qcurve"/>
      <point x="899.2517130944468" y="1500.0" type="line"/>
      <point x="955.9488790863496" y="1500.0" type="line"/>
      <point x="952.4751948758233" y="1111.323076923077" type="line"/>
      <point x="887.4047495316937" y="1111.323076923077" type="line"/>
      <point x="844.2752885370717" y="1190.1441295546558" type="line" smooth="yes"/>
      <point x="801.6288960058009" y="1310.4030001812798"/>
      <point x="655.1694392410417" y="1435.0234817813764"/>
      <point x="546.4266662638225" y="1435.0234817813764" type="qcurve" smooth="yes"/>
      <point x="450.6354039519004" y="1435.0234817813764"/>
      <point x="367.5526013656414" y="1358.044365218442"/>
      <point x="367.5526013656414" y="1279.5820684029247" type="qcurve" smooth="yes"/>
      <point x="367.5526013656414" y="1172.4164511450842"/>
      <point x="488.6698048220436" y="1069.9198048220437"/>
      <point x="647.4052812858783" y="967.5048794489093" type="qcurve" smooth="yes"/>
      <point x="881.8356486796785" y="841.0977611940298"/>
      <point x="1043.3016073478761" y="584.0397244546498"/>
      <point x="1043.3016073478761" y="398.85706991359" type="qcurve" smooth="yes"/>
      <point x="1043.3016073478761" y="203.93543416520635"/>
      <point x="761.3827512236388" y="-24.153846153846153"/>
      <point x="544.3557858480874" y="-24.153846153846153" type="qcurve" smooth="yes"/>
      <point x="408.8674512055109" y="-24.153846153846153"/>
      <point x="241.00194271557191" y="26.369230769230768"/>
      <point x="156.18251858118316" y="92.3076923076923" type="qcurve"/>
      <point x="94.86315789473684" y="-0.36923076923076925" type="line"/>
    </contour>
  </outline>
</glyph>
<glyph name="U" format="2">
  <advance width="1434"/>
  <unicode hex="0055"/>
  <outline>
    <contour>
      <point x="19.638866396761134" y="1440.2995951417004" type="line"/>
      <point x="19.638866396761134" y="1500.0" type="line"/>
      <point x="818.5004048582996" y="1500.0" type="line"/>
      <point x="818.5004048582996" y="1440.2995951417004" type="line"/>
      <point x="687.6234817813764" y="1406.2995951417004" type="line"/>
      <point x="684.6234817813764" y="794.0" type="line"/>
      <point x="685.5859961326968" y="402.6412955465587" type="line" smooth="yes"/>
      <point x="686.5859961326968" y="229.4898785425101"/>
      <point x="774.0204967067497" y="88.0744939271255"/>
      <point x="894.3817481418816" y="88.0744939271255" type="qcurve" smooth="yes"/>
      <point x="1024.9711523354886" y="88.0744939271255"/>
      <point x="1178.9799806634842" y="269.06882591093114"/>
      <point x="1178.3101063508368" y="442.5878542510122" type="qcurve" smooth="yes"/>
      <point x="1176.6019366729108" y="803.4736842105264" type="line"/>
      <point x="1175.6019366729108" y="1399.9838056680162" type="line"/>
      <point x="1009.5396821560215" y="1439.9838056680162" type="line"/>
      <point x="1009.5396821560215" y="1499.6842105263158" type="line"/>
      <point x="1406.8838117106775" y="1499.6842105263158" type="line"/>
      <point x="1406.8838117106775" y="1439.9838056680162" type="line"/>
      <point x="1235.2028400507586" y="1399.9838056680162" type="line"/>
      <point x="1237.0912441839387" y="803.4736842105264" type="line"/>
      <point x="1236.7922200737205" y="435.10769230769233" type="line" smooth="yes"/>
      <point x="1236.5841229077287" y="205.6153846153846"/>
      <point x="988.4246872922836" y="-22.215384615384615"/>
      <point x="738.3269260982537" y="-22.215384615384615" type="qcurve" smooth="yes"/>
      <point x="461.78105927850623" y="-22.215384615384615"/>
      <point x="175.04753459423532" y="195.66153846153847"/>
      <point x="175.41676536346608" y="425.0" type="qcurve" smooth="yes"/>
      <point x="176.41676536346608" y="794.0" type="line"/>
      <point x="175.41676536346608" y="1406.2995951417004" type="line"/>
    </contour>
  </outline>
</glyph>
<glyph name="V" format="2">
  <advance width="1357"/>
  <unicode hex="0056"/>
  <outline>
    <contour>
      <point x="-2.618623481781376" y="1441.5611336032389" type="line"/>
      <point x="-2.618623481781376" y="1500.0" type="line"/>
      <point x="775.5506072874495" y="1500.0" type="line"/>
      <point x="775.5506072874495" y="1441.5611336032389" type="line"/>
      <point x="636.1651821862348" y="1407.5611336032389" type="line"/>
      <point x="753.9104598465165" y="882.777355127198" type="line"/>
      <point x="894.2612272644873" y="334.8431294942293" type="line"/>
      <point x="1001.2757236086773" y="843.4774185751405" type="line"/>
      <point x="1112.2651096743004" y="1401.561943319838" type="line"/>
      <point x="940.1687533989968" y="1441.5611336032389" type="line"/>
      <point x="940.1687533989968" y="1500.0" type="line"/>
      <point x="1355.70559550426" y="1500.0" type="line"/>
      <point x="1355.70559550426" y="1441.5611336032389" type="line"/>
      <point x="1195.1930448969724" y="1405.0331983805668" type="line"/>
      <point x="1071.4258535258928" y="848.3151942715571" type="line"/>
      <point x="895.1580609100247" y="1.2615384615384615" type="line"/>
      <point x="460.3580609100248" y="1.2615384615384615" type="line"/>
      <point x="263.50041090096084" y="803.8059338932866" type="line"/>
      <point x="115.93441295546558" y="1407.5611336032389" type="line"/>
    </contour>
  </outline>
</glyph>
<glyph name="W" format="2">
  <advance width="2003"/>
  <unicode hex="0057"/>
  <outline>
    <contour>
      <point x="-3.568421052631578" y="1441.5611336032389" type="line"/>
      <point x="-3.568421052631578" y="1500.0" type="line"/>
      <point x="730.1854251012146" y="1500.0" type="line"/>
      <point x="730.1854251012146" y="1441.5611336032389" type="line"/>
      <point x="617.212145748988" y="1407.5611336032389" type="line"/>
      <point x="723.9357997462082" y="870.2489938969122" type="line"/>
      <point x="815.5702912562692" y="411.63629524442564" type="line"/>
      <point x="926.5478820472537" y="871.3950752311318" type="line"/>
      <point x="1011.3399299051302" y="1228.6165055290348" type="line"/>
      <point x="1080.5828448848872" y="1145.6310804278205" type="line"/>
      <point x="979.414704816001" y="785.6233639494834" type="line"/>
      <point x="803.0464892138499" y="1.2615384615384615" type="line"/>
      <point x="401.61814913287816" y="1.2615384615384615" type="line"/>
      <point x="249.2176657199831" y="774.1971297359356" type="line"/>
      <point x="117.6161943319838" y="1407.5611336032389" type="line"/>
    </contour>
    <contour>
      <point x="803.5074324732612" y="1443.2995951417004" type="line"/>
      <point x="803.5074324732612" y="1500.0" type="line"/>
      <point x="1489.7843555501843" y="1500.0" type="line"/>
      <point x="1489.7843555501843" y="1443.2995951417004" type="line"/>
      <point x="1366.6969484560998" y="1409.2995951417004" type="line"/>
      <point x="1487.210716659617" y="868.469363707777" type="line"/>
      <point x="1589.2362166898304" y="430.3682790500937" type="line"/>
      <point x="1648.5810592785062" y="838.0249138920781" type="line"/>
      <point x="1751.6032690797026" y="1398.0914979757085" type="line"/>
      <point x="1579.5401534835942" y="1441.5611336032389" type="line"/>
      <point x="1579.5401534835942" y="1500.0" type="line"/>
      <point x="2001.1895461961449" y="1500.0" type="line"/>
      <point x="2001.1895461961449" y="1441.5611336032389" type="line"/>
      <point x="1821.4186959937158" y="1403.140890688259" type="line"/>
      <point x="1726.1524382137893" y="838.2656474711464" type="line"/>
      <point x="1591.1171883497493" y="1.2615384615384615" type="line"/>
      <point x="1200.414354341652" y="1.2615384615384615" type="line"/>
      <point x="1057.969557072935" y="732.2010574657078" type="line"/>
      <point x="896.3625355006345" y="1409.2995951417004" type="line"/>
    </contour>
  </outline>
</glyph>
<glyph name="Y" format="2">
  <advance width="1296"/>
  <unicode hex="0059"/>
  <outline>
    <contour>
      <point x="-23.132793522267203" y="1440.2995951417004" type="line"/>
      <point x="-23.132793522267203" y="1500.0" type="line"/>
      <point x="737.9287449392713" y="1500.0" type="line"/>
      <point x="737.9287449392713" y="1440.2995951417004" type="line"/>
      <point x="630.6404858299595" y="1406.2995951417004" type="line"/>
      <point x="738.6265907305577" y="1106.9715330231434" type="line"/>
      <point x="865.0331349326244" y="749.2602423107136" type="line"/>
      <point x="972.3204634721133" y="1041.2498368481479" type="line"/>
      <point x="1097.3183817753338" y="1397.4566801619433" type="line"/>
      <point x="947.1540516043267" y="1440.2995951417004" type="line"/>
      <point x="947.1540516043267" y="1500.0" type="line"/>
      <point x="1318.2771285274034" y="1500.0" type="line"/>
      <point x="1318.2771285274034" y="1440.2995951417004" type="line"/>
      <point x="1154.4358752794733" y="1396.825910931174" type="line"/>
      <point x="1041.6970330533566" y="1045.1813432835822" type="line"/>
      <point x="902.4474711462929" y="644.5030877998671" type="line"/>
      <point x="903.763260619977" y="91.42914979757086" type="line"/>
      <point x="1059.1171067738233" y="58.690688259109315" type="line"/>
      <point x="1059.1171067738233" y="0.0" type="line"/>
      <point x="249.60941446613086" y="0.0" type="line"/>
      <point x="249.60941446613086" y="58.690688259109315" type="line"/>
      <point x="407.33249138920786" y="91.42914979757086" type="line"/>
      <point x="409.33249138920786" y="603.2083509577618" type="line"/>
      <point x="234.27049368541907" y="1031.3737657864524" type="line"/>
      <point x="81.47125506072875" y="1406.2995951417004" type="line"/>
    </contour>
  </outline>
</glyph>
<glyph name="Z" format="2">
  <advance width="1170"/>
  <unicode hex="005A"/>
  <outline>
    <contour>
      <point x="78.57898966704937" y="0.0" type="line"/>
      <point x="60.37327935222672" y="65.9336032388664" type="line"/>
      <point x="555.5959423530123" y="1404.302834008097" type="line"/>
      <point x="547.2809625959272" y="1427.191902834008" type="line"/>
      <point x="261.8698048220436" y="1427.191902834008" type="line"/>
      <point x="132.20259834431084" y="1125.6307692307691" type="line"/>
      <point x="67.44308417427035" y="1125.6307692307691" type="line"/>
      <point x="67.44308417427035" y="1500.0" type="line"/>
      <point x="1104.6983926521239" y="1500.0" type="line"/>
      <point x="1104.6983926521239" y="1423.8008097165991" type="line"/>
      <point x="623.3465073418333" y="104.74251012145751" type="line"/>
      <point x="631.085778596894" y="80.69635627530366" type="line"/>
      <point x="911.379364312043" y="80.69635627530366" type="line"/>
      <point x="1064.1000120853223" y="411.96923076923076" type="line"/>
      <point x="1148.694344069128" y="411.96923076923076" type="line"/>
      <point x="1105.694344069128" y="0.0" type="line"/>
    </contour>
  </outline>
</glyph>
<glyph name="bracketleft" format="2">
  <advance width="683"/>
  <unicode hex="005B"/>
  <outline>
    <contour>
      <point x="91.16923076923077" y="508.0" type="line"/>
      <point x="82.95384615384616" y="1453.817004048583" type="line"/>
      <point x="68.36923076923077" y="1470.0323886639676" type="line"/>
      <point x="68.36923076923077" y="1500.0" type="line"/>
      <point x="658.0615384615385" y="1500.0" type="line"/>
      <point x="658.0615384615385" y="1469.0323886639676" type="line"/>
      <point x="482.5692307692308" y="1453.817004048583" type="line"/>
      <point x="476.87692307692305" y="508.0" type="line"/>
      <point x="482.5692307692308" y="-225.66396761133603" type="line"/>
      <point x="658.0615384615385" y="-240.87935222672064" type="line"/>
      <point x="658.0615384615385" y="-271.21538461538466" type="line"/>
      <point x="68.36923076923077" y="-271.21538461538466" type="line"/>
      <point x="68.36923076923077" y="-241.87935222672064" type="line"/>
      <point x="82.95384615384616" y="-225.66396761133603" type="line"/>
    </contour>
  </outline>
</glyph>
<glyph name="backslash" format="2">
  <advance width="855"/>
  <unicode hex="005C"/>
  <outline>
    <contour>
      <point x="29.560323886639672" y="1503.676113360324" type="line"/>
      <point x="248.58542510121455" y="1589.2242914979759" type="line"/>
      <point x="827.1085020242915" y="-97.2914979757085" type="line"/>
      <point x="606.4526315789474" y="-181.47044534412956" type="line"/>
    </contour>
  </outline>
</glyph>
<glyph name="bracketright" format="2">
  <advance width="683"/>
  <unicode hex="005D"/>
  <outline>
    <contour>
      <point x="25.076923076923077" y="-271.8461538461538" type="line"/>
      <point x="25.076923076923077" y="-240.87854251012146" type="line"/>
      <point x="200.56923076923078" y="-225.66315789473686" type="line"/>
      <point x="206.26153846153846" y="508.0" type="line"/>
      <point x="200.56923076923078" y="1453.817004048583" type="line"/>
      <point x="25.076923076923077" y="1469.0323886639676" type="line"/>
      <point x="25.076923076923077" y="1500.0" type="line"/>
      <point x="614.7692307692307" y="1500.0" type="line"/>
      <point x="614.7692307692307" y="1470.0323886639676" type="line"/>
      <point x="600.1846153846154" y="1453.817004048583" type="line"/>
      <point x="591.9692307692308" y="508.0" type="line"/>
      <point x="600.1846153846154" y="-225.66315789473686" type="line"/>
      <point x="614.7692307692307" y="-241.87854251012146" type="line"/>
      <point x="614.7692307692307" y="-271.8461538461538" type="line"/>
    </contour>
  </outline>
</glyph>
<glyph name="asciicircum" format="2">
  <advance width="1260"/>
  <unicode hex="005E"/>
  <outline>
    <contour>
      <point x="111.90769230769232" y="937.0089068825911" type="line"/>
      <point x="149.85991902834007" y="990.7894736842105"/>
      <point x="605.0769230769231" y="1511.0923076923077"/>
      <point x="613.5692307692308" y="1519.5846153846153" type="qcurve"/>
      <point x="625.5846153846154" y="1511.0923076923077"/>
      <point x="1102.8170040485832" y="989.2655870445344"/>
      <point x="1147.6615384615384" y="937.3773279352226" type="qcurve"/>
      <point x="1070.9271255060728" y="881.0" type="line"/>
      <point x="983.7044534412956" y="962.1643724696356"/>
      <point x="619.8461538461538" y="1239.246153846154"/>
      <point x="614.3076923076923" y="1243.676923076923" type="qcurve"/>
      <point x="607.2923076923076" y="1236.6615384615384"/>
      <point x="271.7692307692308" y="965.8008097165992"/>
      <point x="188.74898785425103" y="881.1076923076923" type="qcurve"/>
    </contour>
  </outline>
</glyph>
<glyph name="underscore" format="2">
  <advance width="1411"/>
  <unicode hex="005F"/>
  <outline>
    <contour>
      <point x="-16.215384615384615" y="-530.8307692307692" type="line"/>
      <point x="-16.215384615384615" y="-296.96923076923076" type="line"/>
      <point x="699.4769230769231" y="-290.86153846153843" type="line"/>
      <point x="1427.0615384615385" y="-296.96923076923076" type="line"/>
      <point x="1427.0615384615385" y="-530.8307692307692" type="line"/>
      <point x="699.4769230769231" y="-530.5230769230769" type="line"/>
    </contour>
  </outline>
</glyph>
<glyph name="grave" format="2">
  <advance width="943"/>
  <unicode hex="0060"/>
  <outline>
    <contour>
      <point x="226.90769230769232" y="1409.5076923076922" type="qcurve" smooth="yes"/>
      <point x="226.90769230769232" y="1440.8923076923077"/>
      <point x="293.1384615384615" y="1513.3692307692309"/>
      <point x="334.67692307692306" y="1513.3692307692309" type="qcurve" smooth="yes"/>
      <point x="373.32307692307694" y="1513.3692307692309"/>
      <point x="451.1943319838057" y="1458.8097165991903"/>
      <point x="481.0" y="1405.3773279352226" type="qcurve" smooth="yes"/>
      <point x="623.2" y="1134.1838056680162" type="line"/>
      <point x="587.2615384615385" y="1102.6615384615384" type="line"/>
      <point x="301.63076923076926" y="1279.838056680162" type="line" smooth="yes"/>
      <point x="259.87611336032387" y="1304.0599190283401"/>
      <point x="226.90769230769232" y="1385.0615384615385"/>
    </contour>
  </outline>
</glyph>
<glyph name="a" format="2">
  <advance width="1255"/>
  <unicode hex="0061"/>
  <outline>
    <contour>
      <point x="18.092307692307692" y="262.2307692307692" type="qcurve" smooth="yes"/>
      <point x="18.092307692307692" y="416.1384615384615"/>
      <point x="292.547187141217" y="576.8"/>
      <point x="634.1295063145809" y="615.4153846153846" type="qcurve"/>
      <point x="639.6478185993111" y="548.208906882591" type="line"/>
      <point x="543.6696326061997" y="528.4283400809716"/>
      <point x="465.36923076923074" y="392.8591093117409"/>
      <point x="467.36923076923074" y="286.63643724696357" type="qcurve" smooth="yes"/>
      <point x="468.36923076923074" y="187.52512236388907"/>
      <point x="512.581887123089" y="102.99271255060728"/>
      <point x="571.5766360505166" y="102.99271255060728" type="qcurve" smooth="yes"/>
      <point x="601.4780711825488" y="102.99271255060728"/>
      <point x="622.73794489093" y="154.7408906882591"/>
      <point x="624.7314580941446" y="210.46477732793522" type="qcurve"/>
      <point x="628.1756601607348" y="578.9020242914979" type="line" smooth="yes"/>
      <point x="630.2131458094145" y="755.2306665055291"/>
      <point x="527.0365943561545" y="917.578947368421"/>
      <point x="424.3709227143634" y="917.578947368421" type="qcurve" smooth="yes"/>
      <point x="397.84044051000063" y="917.578947368421"/>
      <point x="303.290661067134" y="883.3104115052269"/>
      <point x="312.1783582089553" y="859.5283279956493" type="qcurve"/>
      <point x="334.0169345579793" y="841.2332074445586"/>
      <point x="373.6331802525832" y="787.3983382681732"/>
      <point x="374.74087256027553" y="749.9367998066348" type="qcurve" smooth="yes"/>
      <point x="376.3254879448909" y="694.4598767297117"/>
      <point x="311.2966704936854" y="627.961943319838"/>
      <point x="248.97359357060853" y="622.961943319838" type="qcurve" smooth="yes"/>
      <point x="183.01974741676236" y="617.961943319838"/>
      <point x="90.28518943742824" y="685.4"/>
      <point x="90.28518943742824" y="756.723076923077" type="qcurve" smooth="yes"/>
      <point x="90.28518943742824" y="865.0671641791045"/>
      <point x="347.3164179104478" y="1025.2769230769231"/>
      <point x="597.4141791044776" y="1025.2769230769231" type="qcurve" smooth="yes"/>
      <point x="854.8330654420206" y="1025.2769230769231"/>
      <point x="1099.1247416762342" y="847.8314006888634"/>
      <point x="1102.3862801377727" y="666.0916188289323" type="qcurve" smooth="yes"/>
      <point x="1108.540126291619" y="98.20566801619434" type="line"/>
      <point x="1238.0939724454652" y="63.20566801619434" type="line"/>
      <point x="1238.0939724454652" y="0.0" type="line"/>
      <point x="676.4016647531572" y="0.0" type="line"/>
      <point x="640.8016647531573" y="40.184615384615384" type="line"/>
      <point x="637.4411021814008" y="95.16923076923077" type="line"/>
      <point x="604.3351320321469" y="45.215384615384615"/>
      <point x="485.40614236509765" y="-17.0"/>
      <point x="370.72485648679674" y="-17.0" type="qcurve" smooth="yes"/>
      <point x="182.07629161882892" y="-17.0"/>
      <point x="18.092307692307692" y="122.49535017221584"/>
    </contour>
  </outline>
</glyph>
<glyph name="b" format="2">
  <advance width="1402"/>
  <unicode hex="0062"/>
  <outline>
    <contour>
      <point x="142.92307692307693" y="-1.2615384615384615" type="line"/>
      <point x="150.92307692307693" y="477.0" type="line"/>
      <point x="148.92307692307693" y="1397.8461538461538" type="line"/>
      <point x="20.47692307692308" y="1434.1538461538462" type="line"/>
      <point x="20.47692307692308" y="1500.0" type="line"/>
      <point x="547.7076923076924" y="1521.3846153846155" type="line"/>
      <point x="576.5538461538462" y="1520.123076923077" type="line"/>
      <point x="628.5076923076923" y="1474.3846153846155" type="line"/>
      <point x="627.5076923076923" y="874.2671641791045" type="line"/>
      <point x="653.4838691159587" y="927.3393226176809"/>
      <point x="795.2865097588979" y="1021.5384615384615"/>
      <point x="909.2206659012629" y="1021.5384615384615" type="qcurve" smooth="yes"/>
      <point x="1098.857979334099" y="1021.5384615384615"/>
      <point x="1357.4407003444317" y="766.6153846153846"/>
      <point x="1357.4407003444317" y="533.1384615384616" type="qcurve" smooth="yes"/>
      <point x="1357.4407003444317" y="275.5076923076923"/>
      <point x="1097.9088978185994" y="-13.26153846153846"/>
      <point x="890.8377726750861" y="-13.26153846153846" type="qcurve" smooth="yes"/>
      <point x="773.188346727899" y="-13.26153846153846"/>
      <point x="623.5967611336033" y="58.72631578947369"/>
      <point x="580.4801619433198" y="115.19433198380567" type="qcurve"/>
      <point x="467.5506072874494" y="-1.5773279352226721" type="line"/>
    </contour>
    <contour>
      <point x="631.1846153846154" y="407.1093117408907" type="line"/>
      <point x="626.2500574052813" y="231.94574898785424" type="line"/>
      <point x="638.2858208955224" y="170.27125506072872"/>
      <point x="698.4789322617681" y="88.69392712550606"/>
      <point x="734.1092996555683" y="88.69392712550606" type="qcurve" smooth="yes"/>
      <point x="784.7754305396096" y="88.69392712550606"/>
      <point x="854.0560849598162" y="259.9303643724696"/>
      <point x="854.0560849598162" y="485.87935222672064" type="qcurve" smooth="yes"/>
      <point x="854.0560849598162" y="725.2348178137652"/>
      <point x="800.036969001148" y="871.2080971659918"/>
      <point x="738.9641216991963" y="871.2080971659918" type="qcurve" smooth="yes"/>
      <point x="701.2962686567164" y="871.2080971659918"/>
      <point x="645.3272101033295" y="801.8307692307692"/>
      <point x="627.2500574052813" y="750.2939271255061" type="qcurve"/>
    </contour>
  </outline>
</glyph>
<glyph name="c" format="2">
  <advance width="1051"/>
  <unicode hex="0063"/>
  <outline>
    <contour>
      <point x="41.90769230769231" y="468.73846153846154" type="qcurve" smooth="yes"/>
      <point x="41.90769230769231" y="747.1927125506072"/>
      <point x="354.57348178137653" y="1026.5384615384614"/>
      <point x="613.0227959393318" y="1026.5384615384614" type="qcurve" smooth="yes"/>
      <point x="707.094374282434" y="1026.5384615384614"/>
      <point x="840.7111728805365" y="990.7457489878543"/>
      <point x="879.4501540878603" y="967.7983805668016" type="qcurve"/>
      <point x="907.7158257296513" y="1014.4291497975709" type="line"/>
      <point x="994.6105625717566" y="1013.9846153846154" type="line"/>
      <point x="986.3839265212399" y="694.5538461538462" type="line"/>
      <point x="893.1151006103087" y="688.3821862348177" type="line"/>
      <point x="856.5715420871352" y="799.6080971659918" type="line" smooth="yes"/>
      <point x="833.910574657079" y="866.4397697746086"/>
      <point x="756.7440902773582" y="942.9449392712551"/>
      <point x="705.7715451084658" y="942.9449392712551" type="qcurve" smooth="yes"/>
      <point x="650.5057979334099" y="942.9449392712551"/>
      <point x="546.9230769230769" y="761.7805668016194"/>
      <point x="546.9230769230769" y="489.68502024291496" type="qcurve" smooth="yes"/>
      <point x="546.9230769230769" y="273.01457489878544"/>
      <point x="657.0607347876004" y="105.04939271255061"/>
      <point x="736.4307390174633" y="105.04939271255061" type="qcurve" smooth="yes"/>
      <point x="797.5251676838479" y="105.04939271255061"/>
      <point x="932.6690404254033" y="176.62885974983382"/>
      <point x="975.5660100308177" y="261.56484983986945" type="qcurve"/>
      <point x="1020.6023536165326" y="198.2923076923077" type="line"/>
      <point x="974.9030998851894" y="105.2"/>
      <point x="753.6101033295063" y="-27.0"/>
      <point x="582.3864523536165" y="-27.0" type="qcurve" smooth="yes"/>
      <point x="347.37990815154996" y="-27.0"/>
      <point x="41.90769230769231" y="242.06963562753037"/>
    </contour>
  </outline>
</glyph>
<glyph name="e" format="2">
  <advance width="1150"/>
  <unicode hex="0065"/>
  <outline>
    <contour>
      <point x="42.53846153846154" y="500.2307692307692" type="qcurve" smooth="yes"/>
      <point x="42.53846153846154" y="758.6461538461539"/>
      <point x="343.30752009184846" y="1026.5384615384614"/>
      <point x="607.2273823191733" y="1026.5384615384614" type="qcurve" smooth="yes"/>
      <point x="846.6664179104478" y="1026.5384615384614"/>
      <point x="1111.926693455798" y="785.5846153846154"/>
      <point x="1121.3238805970147" y="576.7846153846153" type="qcurve"/>
      <point x="1121.9546498277841" y="508.9141700404858" type="line"/>
      <point x="455.9722732491389" y="508.9141700404858" type="line"/>
      <point x="455.9722732491389" y="577.8105263157895" type="line"/>
      <point x="718.2385280077345" y="577.8105263157895" type="line"/>
      <point x="719.1116411867786" y="765.5376518218624"/>
      <point x="704.4950057405282" y="957.1004048582995"/>
      <point x="634.1485074626866" y="957.1004048582995" type="qcurve" smooth="yes"/>
      <point x="589.8742189860415" y="957.1004048582995"/>
      <point x="536.9692307692308" y="812.1441295546559"/>
      <point x="537.3384615384615" y="538.3408906882592" type="qcurve" smooth="yes"/>
      <point x="537.7076923076924" y="269.9757085020243"/>
      <point x="632.2601637561182" y="103.10607287449392"/>
      <point x="750.7933651580155" y="103.10607287449392" type="qcurve" smooth="yes"/>
      <point x="856.5601063508369" y="103.10607287449392"/>
      <point x="1013.6758776965374" y="215.9093117408907"/>
      <point x="1060.7809444679435" y="278.3293159707535" type="qcurve"/>
      <point x="1103.239150401837" y="216.27692307692308" type="line"/>
      <point x="1055.8293915040183" y="125.44615384615385"/>
      <point x="815.2605625717565" y="-27.0"/>
      <point x="624.5582663605052" y="-27.0" type="qcurve" smooth="yes"/>
      <point x="370.47003444316874" y="-27.0"/>
      <point x="42.53846153846154" y="246.69230769230768"/>
    </contour>
  </outline>
</glyph>
<glyph name="f" format="2">
  <advance width="841"/>
  <unicode hex="0066"/>
  <outline>
    <contour>
      <point x="24.16923076923077" y="0.0" type="line"/>
      <point x="24.16923076923077" y="63.20566801619434" type="line"/>
      <point x="145.98461538461538" y="98.20566801619434" type="line"/>
      <point x="154.5076923076923" y="520.4615384615385" type="line"/>
      <point x="156.4" y="868.5465587044534" type="line"/>
      <point x="23.53846153846154" y="892.0712550607287" type="line"/>
      <point x="23.53846153846154" y="963.5392712550607" type="line"/>
      <point x="156.76923076923077" y="976.9157894736842" type="line"/>
      <point x="150.98461538461538" y="1180.5384615384614" type="line" smooth="yes"/>
      <point x="147.09230769230768" y="1342.8461538461538"/>
      <point x="322.3607921928817" y="1528.2153846153847"/>
      <point x="505.16383467278996" y="1528.2153846153847" type="qcurve" smooth="yes"/>
      <point x="608.6908151549942" y="1528.2153846153847"/>
      <point x="759.7528732853948" y="1495.961133603239"/>
      <point x="797.8015499425948" y="1476.6995951417005" type="qcurve" smooth="yes"/>
      <point x="815.9379146776241" y="1465.7546558704453" type="line"/>
      <point x="821.7016647531573" y="1370.3417004048583" type="line"/>
      <point x="815.7439150401838" y="1375.3417004048583" type="line" smooth="yes"/>
      <point x="799.4409873708381" y="1382.6032388663969"/>
      <point x="738.8966704936854" y="1398.6493927125507"/>
      <point x="710.2158438576349" y="1398.6493927125507" type="qcurve" smooth="yes"/>
      <point x="679.7540757749714" y="1398.6493927125507"/>
      <point x="643.3004048582995" y="1356.4647773279353"/>
      <point x="642.3538461538461" y="1306.6647773279353" type="qcurve" smooth="yes"/>
      <point x="638.8307692307692" y="966.6" type="line"/>
      <point x="817.0964408725604" y="966.6" type="line"/>
      <point x="817.0964408725604" y="885.9133603238866" type="line"/>
      <point x="638.4615384615385" y="884.6518218623482" type="line"/>
      <point x="634.9384615384615" y="520.4615384615385" type="line"/>
      <point x="632.6307692307693" y="98.20566801619434" type="line"/>
      <point x="793.9076923076923" y="63.20566801619434" type="line"/>
      <point x="793.9076923076923" y="0.0" type="line"/>
    </contour>
  </outline>
</glyph>
<glyph name="g" format="2">
  <advance width="1120"/>
  <unicode hex="0067"/>
  <outline>
    <contour>
      <point x="3.3999999999999986" y="-234.6995951417004" type="qcurve" smooth="yes"/>
      <point x="3.3999999999999986" y="-143.90526315789475"/>
      <point x="216.54655870445345" y="-15.753036437246964"/>
      <point x="412.5004048582996" y="2.6137651821862358" type="qcurve"/>
      <point x="403.4502024291498" y="-18.875303643724695" type="line"/>
      <point x="342.7230769230769" y="-57.182995951417006"/>
      <point x="255.0285274034685" y="-175.21457489878543"/>
      <point x="255.0285274034685" y="-249.99028340080972" type="qcurve" smooth="yes"/>
      <point x="255.0285274034685" y="-338.2453441295546"/>
      <point x="404.1350172215844" y="-427.17004048583"/>
      <point x="496.5806060789171" y="-427.17004048583" type="qcurve" smooth="yes"/>
      <point x="660.3933983926521" y="-427.17004048583"/>
      <point x="759.258438576349" y="-318.9425101214575"/>
      <point x="759.258438576349" y="-245.5757085020243" type="qcurve" smooth="yes"/>
      <point x="759.258438576349" y="-181.94898785425102"/>
      <point x="661.6156263218321" y="-122.2260045924225"/>
      <point x="523.7909873708381" y="-109.9471297359357" type="qcurve" smooth="yes"/>
      <point x="277.97921928817453" y="-95.29902411021814"/>
      <point x="33.8951205510907" y="52.96923076923077"/>
      <point x="33.8951205510907" y="134.16194331983806" type="qcurve" smooth="yes"/>
      <point x="33.8951205510907" y="187.95666289719708"/>
      <point x="128.43358597412018" y="306.51460899665926"/>
      <point x="246.44615384615383" y="357.40161943319833" type="qcurve"/>
      <point x="304.83390537192577" y="348.67935222672065" type="line"/>
      <point x="231.26079132964443" y="306.43741227350813"/>
      <point x="204.7441295546559" y="238.46786210647167"/>
      <point x="204.7441295546559" y="235.71902834008097" type="qcurve" smooth="yes"/>
      <point x="204.7441295546559" y="196.39595141700406"/>
      <point x="315.5807964227446" y="169.43076923076922"/>
      <point x="554.6139494833525" y="153.18461538461537" type="qcurve" smooth="yes"/>
      <point x="893.0725028702641" y="133.6769230769231"/>
      <point x="1138.3507462686566" y="7.353846153846153"/>
      <point x="1138.3507462686566" y="-141.16923076923078" type="qcurve" smooth="yes"/>
      <point x="1138.3507462686566" y="-292.33846153846156"/>
      <point x="839.1054535017222" y="-478.33846153846156"/>
      <point x="561.653311378331" y="-478.33846153846156" type="qcurve" smooth="yes"/>
      <point x="289.8720647773279" y="-478.33846153846156"/>
      <point x="3.3999999999999986" y="-333.7076923076923"/>
    </contour>
    <contour>
      <point x="55.169230769230765" y="634.0307692307692" type="qcurve" smooth="yes"/>
      <point x="55.169230769230765" y="825.4615384615385"/>
      <point x="298.4988518943743" y="1021.5384615384615"/>
      <point x="542.1331228473019" y="1021.5384615384615" type="qcurve" smooth="yes"/>
      <point x="784.3606773823192" y="1021.5384615384615"/>
      <point x="1034.5451205510908" y="830.0461538461539"/>
      <point x="1035.5451205510908" y="639.0307692307692" type="qcurve" smooth="yes"/>
      <point x="1037.17588978186" y="449.2307692307692"/>
      <point x="789.3231917336395" y="229.15384615384616"/>
      <point x="548.319690011481" y="229.15384615384616" type="qcurve" smooth="yes"/>
      <point x="305.6854190585534" y="229.15384615384616"/>
      <point x="55.169230769230765" y="440.4923076923077"/>
    </contour>
    <contour>
      <point x="461.12307692307695" y="647.2356275303644" type="qcurve" smooth="yes"/>
      <point x="461.12307692307695" y="441.58380566801617"/>
      <point x="499.5216599190283" y="284.7417004048583"/>
      <point x="554.1145930267691" y="284.7417004048583" type="qcurve" smooth="yes"/>
      <point x="599.1309565532661" y="284.7417004048583"/>
      <point x="636.7037313432836" y="434.0558704453441"/>
      <point x="636.7037313432836" y="640.919028340081" type="qcurve" smooth="yes"/>
      <point x="636.7037313432836" y="838.1417004048583"/>
      <point x="584.6206900719077" y="963.1004048582995"/>
      <point x="540.5127349084537" y="963.1004048582995" type="qcurve" smooth="yes"/>
      <point x="501.51009426551457" y="963.1004048582995"/>
      <point x="461.12307692307695" y="843.9935222672065"/>
    </contour>
    <contour>
      <point x="668.0505831168047" y="918.7708502024292" type="line"/>
      <point x="658.4165750196387" y="984.3392712550608" type="line"/>
      <point x="1096.3490241102181" y="988.5538461538462" type="line"/>
      <point x="1096.3490241102181" y="890.8056680161943" type="line"/>
    </contour>
  </outline>
</glyph>
<glyph name="h" format="2">
  <advance width="1456"/>
  <unicode hex="0068"/>
  <outline>
    <contour>
      <point x="20.384615384615387" y="0.0" type="line"/>
      <point x="20.384615384615387" y="63.20566801619434" type="line"/>
      <point x="155.76923076923077" y="98.20566801619434" type="line"/>
      <point x="157.76923076923077" y="511.53846153846155" type="line"/>
      <point x="150.72307692307692" y="1397.5311740890688" type="line"/>
      <point x="22.907692307692308" y="1434.4696356275304" type="line"/>
      <point x="22.907692307692308" y="1500.0" type="line"/>
      <point x="553.9230769230769" y="1522.0153846153846" type="line"/>
      <point x="587.8153846153846" y="1521.3846153846155" type="line"/>
      <point x="634.723076923077" y="1475.0153846153846" type="line"/>
      <point x="630.3076923076923" y="857.5846153846154" type="line"/>
      <point x="684.0396670493685" y="922.1692307692308"/>
      <point x="873.966475315729" y="1021.5384615384615"/>
      <point x="1006.5736509758898" y="1021.5384615384615" type="qcurve" smooth="yes"/>
      <point x="1167.2204936854191" y="1021.5384615384615"/>
      <point x="1305.027898966705" y="852.3846153846154"/>
      <point x="1305.027898966705" y="748.2461538461539" type="qcurve" smooth="yes"/>
      <point x="1305.027898966705" y="695.8153846153846"/>
      <point x="1305.4346153846154" y="511.53846153846155"/>
      <point x="1305.4346153846154" y="510.53846153846155" type="qcurve"/>
      <point x="1311.027898966705" y="98.20566801619434" type="line"/>
      <point x="1442.7355912743972" y="63.20566801619434" type="line"/>
      <point x="1442.7355912743972" y="0.0" type="line"/>
      <point x="735.3048220436281" y="0.0" type="line"/>
      <point x="735.3048220436281" y="63.20566801619434" type="line"/>
      <point x="826.8211825487945" y="98.20566801619434" type="line"/>
      <point x="830.414466130884" y="459.53846153846155" type="line"/>
      <point x="828.5221584385763" y="682.9627530364372" type="line" smooth="yes"/>
      <point x="827.891389207807" y="779.1473684210526"/>
      <point x="781.6974167623421" y="841.7935222672064"/>
      <point x="744.689150401837" y="841.7935222672064" type="qcurve" smooth="yes"/>
      <point x="703.2397244546498" y="841.7935222672064"/>
      <point x="644.8983926521239" y="785.4704453441295"/>
      <point x="630.9384615384615" y="755.408906882591" type="qcurve"/>
      <point x="627.3076923076923" y="459.53846153846155" type="line"/>
      <point x="629.9009758897818" y="98.20566801619434" type="line"/>
      <point x="742.8" y="63.20566801619434" type="line"/>
      <point x="742.8" y="0.0" type="line"/>
    </contour>
  </outline>
</glyph>
<glyph name="j" format="2">
  <advance width="753"/>
  <unicode hex="006A"/>
  <outline>
    <contour>
      <point x="9.446153846153845" y="-460.05287026406427" type="qcurve"/>
      <point x="5.661538461538463" y="-374.1905220859266" type="line"/>
      <point x="60.62950631458094" y="-372.26939694241344"/>
      <point x="142.5833524684271" y="-261.62995951417"/>
      <point x="142.5833524684271" y="-161.52226720647775" type="qcurve" smooth="yes"/>
      <point x="144.10642939150404" y="507.84615384615387" type="line"/>
      <point x="142.73719862227324" y="874.0623481781377" type="line"/>
      <point x="7.352583237657864" y="907.2161943319838" type="line"/>
      <point x="7.352583237657864" y="971.4307692307692" type="line"/>
      <point x="503.75258323765786" y="1005.9538461538461" type="line"/>
      <point x="572.5525832376579" y="1005.9538461538461" type="line"/>
      <point x="623.1218140068886" y="954.4307692307692" type="line"/>
      <point x="614.5987370838117" y="507.84615384615387" type="line"/>
      <point x="620.1218140068886" y="-75.70769230769231" type="line" smooth="yes"/>
      <point x="621.7525832376579" y="-261.0153846153846"/>
      <point x="340.487141216992" y="-463.013662456946"/>
    </contour>
    <contour>
      <point x="91.0910447761194" y="1280.4307692307693" type="qcurve" smooth="yes"/>
      <point x="91.0910447761194" y="1353.076923076923"/>
      <point x="234.04489092996556" y="1454.553846153846"/>
      <point x="360.95258323765785" y="1454.553846153846" type="qcurve" smooth="yes"/>
      <point x="484.3833524684271" y="1454.553846153846"/>
      <point x="636.4448909299656" y="1357.6"/>
      <point x="635.4448909299656" y="1280.4307692307693" type="qcurve" smooth="yes"/>
      <point x="635.4448909299656" y="1213.1538461538462"/>
      <point x="491.8602755453502" y="1117.676923076923"/>
      <point x="362.95258323765785" y="1117.676923076923" type="qcurve" smooth="yes"/>
      <point x="240.52181400688863" y="1117.676923076923"/>
      <point x="91.0910447761194" y="1214.6307692307691"/>
    </contour>
  </outline>
</glyph>
<glyph name="m" format="2">
  <advance width="2051"/>
  <unicode hex="006D"/>
  <outline>
    <contour>
      <point x="20.384615384615387" y="0.0" type="line"/>
      <point x="20.384615384615387" y="63.20566801619434" type="line"/>
      <point x="152.6153846153846" y="98.20566801619434" type="line"/>
      <point x="155.87692307692308" y="554.838056680162" type="line"/>
      <point x="152.6153846153846" y="872.4834008097166" type="line"/>
      <point x="20.384615384615387" y="905.6372469635628" type="line"/>
      <point x="20.384615384615387" y="971.4307692307692" type="line"/>
      <point x="574.6" y="1013.4307692307692" type="line"/>
      <point x="599.5076923076923" y="996.5230769230769" type="line"/>
      <point x="611.1538461538462" y="854.9538461538461" type="line"/>
      <point x="658.4791044776119" y="931.8"/>
      <point x="839.7049368541906" y="1022.1692307692308"/>
      <point x="975.5736509758898" y="1022.1692307692308" type="qcurve" smooth="yes"/>
      <point x="1093.5491963260622" y="1022.1692307692308"/>
      <point x="1224.6580548673637" y="929.6923076923077"/>
      <point x="1246.9569762523415" y="837.897975708502" type="qcurve"/>
      <point x="1284.0682730074325" y="925.3222672064777"/>
      <point x="1467.8206175599735" y="1022.1692307692308"/>
      <point x="1605.3265786452353" y="1022.1692307692308" type="qcurve" smooth="yes"/>
      <point x="1759.2176234213548" y="1022.1692307692308"/>
      <point x="1895.7634902411019" y="870.6769230769231"/>
      <point x="1895.7634902411019" y="754.5538461538462" type="qcurve" smooth="yes"/>
      <point x="1894.7634902411019" y="696.4461538461538"/>
      <point x="1897.2076923076925" y="523.1538461538462"/>
      <point x="1897.2076923076925" y="523.1538461538462" type="qcurve"/>
      <point x="1902.3942594718715" y="97.20566801619434" type="line"/>
      <point x="2037.8865671641788" y="63.20566801619434" type="line"/>
      <point x="2037.8865671641788" y="0.0" type="line"/>
      <point x="1346.7431113662456" y="0.0" type="line"/>
      <point x="1346.7431113662456" y="63.20566801619434" type="line"/>
      <point x="1420.042365097589" y="98.20566801619434" type="line"/>
      <point x="1422.6356486796785" y="509.4097165991903" type="line"/>
      <point x="1422.6356486796785" y="683.5943319838057" type="line" smooth="yes"/>
      <point x="1422.6356486796785" y="769.6866396761134"/>
      <point x="1381.3378874856485" y="844.3174089068826"/>
      <point x="1342.254649827784" y="844.3174089068826" type="qcurve" smooth="yes"/>
      <point x="1321.956027554535" y="844.3174089068826"/>
      <point x="1272.1767750317242" y="810.0429149797571"/>
      <point x="1258.1221584385764" y="745.5708502024291" type="qcurve"/>
      <point x="1258.7529276693456" y="736.2558704453442"/>
      <point x="1260.496153846154" y="486.15384615384613"/>
      <point x="1260.496153846154" y="486.15384615384613" type="qcurve"/>
      <point x="1262.682721010333" y="98.20566801619434" type="line"/>
      <point x="1348.9173938002295" y="63.20566801619434" type="line"/>
      <point x="1348.9173938002295" y="0.0" type="line"/>
      <point x="703.8768656716418" y="0.0" type="line"/>
      <point x="703.8768656716418" y="63.20566801619434" type="line"/>
      <point x="786.3308266360506" y="98.20566801619434" type="line"/>
      <point x="787.9241102181401" y="566.5481781376518" type="line"/>
      <point x="787.9241102181401" y="716.5943319838057" type="line" smooth="yes"/>
      <point x="787.9241102181401" y="785.6866396761134"/>
      <point x="758.8926521239955" y="843.3174089068826"/>
      <point x="717.2815729047072" y="844.3174089068826" type="qcurve" smooth="yes"/>
      <point x="691.68392652124" y="845.3174089068826"/>
      <point x="640.6743398392653" y="808.7789473684211"/>
      <point x="626.7846153846153" y="767.9327935222672" type="qcurve"/>
      <point x="625.1538461538462" y="586.7327935222672" type="line"/>
      <point x="626.7471297359357" y="98.20566801619434" type="line"/>
      <point x="718.5384615384615" y="63.20566801619434" type="line"/>
      <point x="718.5384615384615" y="0.0" type="line"/>
    </contour>
  </outline>
</glyph>
<glyph name="n" format="2">
  <advance width="2170"/>
  <unicode hex="006E"/>
  <outline>
    <contour>
      <point x="64.38461538461539" y="0.0" type="line"/>
      <point x="64.38461538461539" y="67.52145748987854" type="line"/>
      <point x="245.98461538461538" y="102.52145748987854" type="line"/>
      <point x="248.6153846153846" y="525.4153846153846" type="line"/>
      <point x="244.72307692307692" y="872.1676113360323" type="line"/>
      <point x="54.38461538461539" y="905.3214574898785" type="line"/>
      <point x="54.38461538461539" y="973.4307692307692" type="line"/>
      <point x="750.254945054945" y="1013.4307692307692" type="line"/>
      <point x="780.1626373626373" y="996.5230769230769" type="line"/>
      <point x="790.0225563909773" y="770.42995951417" type="line"/>
      <point x="882.5478147147433" y="860.9068825910931"/>
      <point x="1218.3291126783663" y="1022.1692307692308"/>
      <point x="1434.428596030835" y="1022.1692307692308" type="qcurve" smooth="yes"/>
      <point x="1701.4270870920125" y="1022.1692307692308"/>
      <point x="1951.0846727898966" y="815.0153846153846"/>
      <point x="1951.0846727898966" y="656.0615384615385" type="qcurve" smooth="yes"/>
      <point x="1951.0846727898966" y="599.6461538461539"/>
      <point x="1955.1468263080203" y="594.2615384615384"/>
      <point x="1955.520452681647" y="538.2923076923076" type="qcurve" smooth="yes"/>
      <point x="1954.893587010005" y="101.52145748987854" type="line"/>
      <point x="2147.2320485484665" y="67.52145748987854" type="line"/>
      <point x="2147.2320485484665" y="0.0" type="line"/>
      <point x="1234.515565031983" y="0.0" type="line"/>
      <point x="1234.515565031983" y="67.52145748987854" type="line"/>
      <point x="1385.1771034935214" y="102.52145748987854" type="line"/>
      <point x="1390.7703870756109" y="503.7327935222672" type="line"/>
      <point x="1390.3636706577004" y="602.2251012145749" type="line" smooth="yes"/>
      <point x="1390.3636706577004" y="734.1635627530364"/>
      <point x="1286.647482368378" y="843.0558704453441"/>
      <point x="1151.1902493029359" y="843.0558704453441" type="qcurve" smooth="yes"/>
      <point x="1038.840708545186" y="843.0558704453441"/>
      <point x="857.7648187633263" y="725.8404858299594"/>
      <point x="805.5472527472527" y="680.0404858299595" type="qcurve"/>
      <point x="804.1780219780219" y="504.99433198380564" type="line"/>
      <point x="807.8087912087913" y="102.52145748987854" type="line"/>
      <point x="982.8241758241759" y="67.52145748987854" type="line"/>
      <point x="982.8241758241759" y="0.0" type="line"/>
    </contour>
  </outline>
</glyph>
<glyph name="q" format="2">
  <advance width="1372"/>
  <unicode hex="0071"/>
  <outline>
    <contour>
      <point x="43.64615384615385" y="490.55384615384617" type="qcurve" smooth="yes"/>
      <point x="43.64615384615385" y="763.8153846153846"/>
      <point x="326.2886911595867" y="1020.1692307692308"/>
      <point x="526.8540757749713" y="1020.1692307692308" type="qcurve" smooth="yes"/>
      <point x="609.864064293915" y="1020.1692307692308"/>
      <point x="719.3262916188289" y="976.0903559127439"/>
      <point x="761.1332376578645" y="931.3518943742824" type="qcurve"/>
      <point x="828.7640068886337" y="1003.9076923076923" type="line"/>
      <point x="1349.5793915040183" y="969.5384615384615" type="line"/>
      <point x="1349.5793915040183" y="904.3773279352226" type="line"/>
      <point x="1242.348622273249" y="884.9004048582996" type="line"/>
      <point x="1238.871699196326" y="438.4923076923077" type="line"/>
      <point x="1238.6101607347875" y="-370.17894736842106" type="line"/>
      <point x="1365.2101607347877" y="-405.17894736842106" type="line"/>
      <point x="1365.2101607347877" y="-467.38461538461536" type="line"/>
      <point x="613.2563145809414" y="-467.38461538461536" type="line"/>
      <point x="613.2563145809414" y="-405.17894736842106" type="line"/>
      <point x="756.0716991963261" y="-372.17894736842106" type="line"/>
      <point x="762.6649827784157" y="83.2923076923077" type="line"/>
      <point x="718.1483926521239" y="38.753846153846155"/>
      <point x="583.8235361653271" y="-9.0"/>
      <point x="494.990355912744" y="-9.0" type="qcurve" smooth="yes"/>
      <point x="318.27416762342136" y="-9.0"/>
      <point x="43.64615384615385" y="226.5076923076923"/>
    </contour>
    <contour>
      <point x="551.1846153846154" y="502.14170040485834" type="qcurve" smooth="yes"/>
      <point x="551.1846153846154" y="232.83238866396763"/>
      <point x="613.418254879449" y="93.23643724696356"/>
      <point x="663.7940298507463" y="93.23643724696356" type="qcurve" smooth="yes"/>
      <point x="699.7234213547647" y="93.23643724696356"/>
      <point x="753.9204362801378" y="161.04125324793037"/>
      <point x="767.6610792192882" y="216.77728563659437" type="qcurve"/>
      <point x="767.4784156142366" y="813.0089068825911" type="line"/>
      <point x="755.2185993111366" y="857.3214574898785"/>
      <point x="706.8341561423651" y="911.2655870445344"/>
      <point x="676.9422502870264" y="911.2655870445344" type="qcurve" smooth="yes"/>
      <point x="622.6789322617681" y="911.2655870445344"/>
      <point x="551.1846153846154" y="769.5659919028341"/>
    </contour>
  </outline>
</glyph>
<glyph name="r" format="2">
  <advance width="984"/>
  <unicode hex="0072"/>
  <anchor x="278.46153846153845" y="1.2615384615384615" name="bottom"/>
  <outline>
    <contour>
      <point x="23.384615384615387" y="0.0" type="line"/>
      <point x="23.384615384615387" y="63.20566801619434" type="line"/>
      <point x="151.6153846153846" y="98.20566801619434" type="line"/>
      <point x="153.6153846153846" y="504.15384615384613" type="line"/>
      <point x="152.6153846153846" y="872.1676113360323" type="line"/>
      <point x="20.384615384615387" y="905.3214574898785" type="line"/>
      <point x="20.384615384615387" y="971.4307692307692" type="line"/>
      <point x="573.9692307692308" y="1013.4307692307692" type="line"/>
      <point x="598.876923076923" y="996.5230769230769" type="line"/>
      <point x="605.4640612725844" y="824.6051483473321" type="line"/>
      <point x="639.2160916067437" y="910.2412532479303"/>
      <point x="801.2585533869117" y="1004.5384615384615"/>
      <point x="908.9071182548795" y="1004.5384615384615" type="qcurve" smooth="yes"/>
      <point x="949.620895522388" y="1004.5384615384615" type="line"/>
      <point x="949.620895522388" y="669.7692307692307" type="line"/>
      <point x="869.607940056801" y="669.7692307692307" type="line"/>
      <point x="802.1228261526376" y="829.5368421052631" type="line"/>
      <point x="753.8539247084416" y="841.6364372469636"/>
      <point x="644.9371986222733" y="793.7678409571575"/>
      <point x="632.1538461538462" y="757.2137651821862" type="qcurve"/>
      <point x="630.1538461538462" y="504.15384615384613" type="line"/>
      <point x="632.1538461538462" y="98.20566801619434" type="line"/>
      <point x="781.9076923076923" y="63.20566801619434" type="line"/>
      <point x="781.9076923076923" y="0.0" type="line"/>
    </contour>
  </outline>
</glyph>
<glyph name="s" format="2">
  <advance width="1100"/>
  <unicode hex="0073"/>
  <outline>
    <contour>
      <point x="55.536842105263155" y="0.0" type="line"/>
      <point x="55.536842105263155" y="311.2923076923077" type="line"/>
      <point x="127.97165991902835" y="311.2923076923077" type="line"/>
      <point x="160.52793522267206" y="227.96032388663969" type="line" smooth="yes"/>
      <point x="199.24696356275302" y="124.76194331983805"/>
      <point x="375.93927125506076" y="33.172469635627536"/>
      <point x="487.1036437246964" y="33.172469635627536" type="qcurve" smooth="yes"/>
      <point x="575.1052631578947" y="33.172469635627536"/>
      <point x="650.3838056680162" y="93.58461538461539"/>
      <point x="650.3838056680162" y="149.7352226720648" type="qcurve" smooth="yes"/>
      <point x="650.3838056680162" y="216.78542510121457"/>
      <point x="524.2923076923076" y="285.9846153846154"/>
      <point x="405.2153846153846" y="336.66153846153844" type="qcurve" smooth="yes"/>
      <point x="205.5076923076923" y="411.2307692307692"/>
      <point x="60.49230769230769" y="571.876923076923"/>
      <point x="60.49230769230769" y="715.6769230769231" type="qcurve" smooth="yes"/>
      <point x="60.49230769230769" y="854.5230769230769"/>
      <point x="293.04615384615386" y="1020.2307692307693"/>
      <point x="536.9020242914979" y="1020.2307692307693" type="qcurve" smooth="yes"/>
      <point x="647.22995951417" y="1020.2307692307693"/>
      <point x="824.4842105263158" y="979.2348178137652"/>
      <point x="877.5481781376518" y="950.1789473684211" type="qcurve"/>
      <point x="924.0437246963562" y="1014.6769230769231" type="line"/>
      <point x="988.3093117408907" y="1014.6769230769231" type="line"/>
      <point x="988.3093117408907" y="707.6923076923077" type="line"/>
      <point x="911.2421052631579" y="707.6923076923077" type="line"/>
      <point x="892.2955465587044" y="731.9360323886639" type="line" smooth="yes"/>
      <point x="852.6331983805669" y="852.8777327935223"/>
      <point x="675.6574898785425" y="961.3206477732793"/>
      <point x="583.5983805668016" y="961.3206477732793" type="qcurve" smooth="yes"/>
      <point x="506.5902834008097" y="961.3206477732793"/>
      <point x="430.17004048583" y="910.8995951417005"/>
      <point x="430.17004048583" y="864.3732793522267" type="qcurve" smooth="yes"/>
      <point x="430.17004048583" y="816.6404858299595"/>
      <point x="534.2995951417005" y="744.5085020242915"/>
      <point x="676.2688259109312" y="689.2" type="qcurve" smooth="yes"/>
      <point x="872.1303643724697" y="615.9991902834008"/>
      <point x="1048.4307692307693" y="447.5692307692308"/>
      <point x="1048.4307692307693" y="312.44615384615383" type="qcurve" smooth="yes"/>
      <point x="1048.4307692307693" y="154.12307692307692"/>
      <point x="788.0461538461539" y="-25.107692307692307"/>
      <point x="579.17004048583" y="-25.107692307692307" type="qcurve" smooth="yes"/>
      <point x="419.080971659919" y="-25.107692307692307"/>
      <point x="209.1757085020243" y="26.464777327935224"/>
      <point x="157.52307692307693" y="54.268016194331985" type="qcurve"/>
      <point x="113.5927125506073" y="0.0" type="line"/>
    </contour>
  </outline>
</glyph>
<glyph name="t" format="2">
  <advance width="850"/>
  <unicode hex="0074"/>
  <outline>
    <contour>
      <point x="13.8" y="894.8453441295546" type="line"/>
      <point x="13.8" y="980.1433198380566" type="line"/>
      <point x="167.8" y="1002.5740890688259"/>
      <point x="339.47854251012143" y="1153.2234817813764"/>
      <point x="384.9076923076923" y="1311.1846153846154" type="qcurve"/>
      <point x="584.7692307692307" y="1311.1846153846154" type="line"/>
      <point x="629.2615384615385" y="1237.1457489878544" type="line"/>
      <point x="624.2615384615385" y="976.378947368421" type="line"/>
      <point x="817.0769230769231" y="977.957894736842" type="line"/>
      <point x="817.0769230769231" y="897.8987854251012" type="line"/>
      <point x="621.5230769230769" y="896.3198380566802" type="line"/>
      <point x="617.3076923076923" y="520.4615384615385" type="line"/>
      <point x="624.2" y="223.9757085020243" type="line" smooth="yes"/>
      <point x="625.2" y="177.868016194332"/>
      <point x="671.4234817813765" y="130.2939271255061"/>
      <point x="697.7538461538461" y="124.30283400809716" type="qcurve" smooth="yes"/>
      <point x="822.1846153846154" y="118.9425101214575" type="line"/>
      <point x="822.1846153846154" y="40.73684210526316" type="line"/>
      <point x="365.2" y="-15.0" type="line"/>
      <point x="245.55384615384617" y="-16.26153846153846"/>
      <point x="133.4" y="88.47692307692307"/>
      <point x="135.4" y="175.64615384615385" type="qcurve" smooth="yes"/>
      <point x="141.13846153846154" y="520.4615384615385" type="line"/>
      <point x="141.13846153846154" y="885.3668016194331" type="line"/>
    </contour>
  </outline>
</glyph>
<glyph name="u" format="2">
  <advance width="1530"/>
  <unicode hex="0075"/>
  <outline>
    <contour>
      <point x="12.169230769230769" y="905.0056680161944" type="line"/>
      <point x="12.169230769230769" y="971.4307692307692" type="line"/>
      <point x="502.0923076923077" y="1003.4307692307692" type="line"/>
      <point x="580.0923076923077" y="1003.4307692307692" type="line"/>
      <point x="619.3076923076923" y="954.4307692307692" type="line"/>
      <point x="618.3076923076923" y="491.6923076923077" type="line"/>
      <point x="618.3076923076923" y="322.4323886639676" type="line" smooth="yes"/>
      <point x="618.3076923076923" y="200.02348178137652"/>
      <point x="678.8453441295546" y="152.0064777327935"/>
      <point x="720.8105263157895" y="152.0064777327935" type="qcurve" smooth="yes"/>
      <point x="768.6153846153846" y="151.0064777327935"/>
      <point x="874.9538461538461" y="198.96032388663969"/>
      <point x="896.3846153846154" y="242.96032388663966" type="qcurve"/>
      <point x="898.6469635627531" y="491.6923076923077" type="line"/>
      <point x="896.0153846153846" y="875.0056680161944" type="line"/>
      <point x="772.0" y="905.0056680161944" type="line"/>
      <point x="772.0" y="971.4307692307692" type="line"/>
      <point x="1258.7076923076922" y="1003.4307692307692" type="line"/>
      <point x="1336.7076923076922" y="1003.4307692307692" type="line"/>
      <point x="1376.553846153846" y="954.4307692307692" type="line"/>
      <point x="1374.553846153846" y="491.6923076923077" type="line"/>
      <point x="1376.553846153846" y="126.84210526315789" type="line"/>
      <point x="1506.0461538461539" y="96.84210526315789" type="line"/>
      <point x="1506.0461538461539" y="24.107692307692307" type="line"/>
      <point x="978.0153846153846" y="-9.892307692307693" type="line"/>
      <point x="921.0153846153846" y="37.10769230769231" type="line"/>
      <point x="896.3846153846154" y="130.84615384615384" type="line"/>
      <point x="835.4769230769231" y="60.36923076923077"/>
      <point x="608.6153846153846" y="-16.06153846153846"/>
      <point x="471.55384615384617" y="-16.06153846153846" type="qcurve" smooth="yes"/>
      <point x="303.4769230769231" y="-16.06153846153846"/>
      <point x="141.92307692307693" y="139.1076923076923"/>
      <point x="141.92307692307693" y="272.6307692307692" type="qcurve" smooth="yes"/>
      <point x="141.92307692307693" y="347.67692307692306"/>
      <point x="140.76923076923077" y="531.6769230769231"/>
      <point x="140.76923076923077" y="519.6923076923077" type="qcurve" smooth="yes"/>
      <point x="137.76923076923077" y="875.0056680161944" type="line"/>
    </contour>
  </outline>
</glyph>
<glyph name="v" format="2">
  <advance width="1330"/>
  <unicode hex="0076"/>
  <outline>
    <contour>
      <point x="-11.353846153846153" y="924.5368421052631" type="line"/>
      <point x="-11.353846153846153" y="999.5384615384615" type="line"/>
      <point x="738.4769230769231" y="999.5384615384615" type="line"/>
      <point x="738.4769230769231" y="924.5368421052631" type="line"/>
      <point x="628.5692307692308" y="888.5368421052631" type="line"/>
      <point x="744.4663967611336" y="576.0769230769231" type="line"/>
      <point x="868.1943319838057" y="283.5797570850202" type="line"/>
      <point x="976.1384615384616" y="572.7109311740891" type="line"/>
      <point x="1083.4542510121457" y="883.2218623481782" type="line"/>
      <point x="941.4170040485831" y="924.5368421052631" type="line"/>
      <point x="941.4170040485831" y="999.5384615384615" type="line"/>
      <point x="1334.2" y="999.5384615384615" type="line"/>
      <point x="1334.2" y="924.5368421052631" type="line"/>
      <point x="1182.3732793522267" y="885.7449392712551" type="line"/>
      <point x="1057.3060728744938" y="563.3692307692307" type="line"/>
      <point x="867.0226720647773" y="1.2615384615384615" type="line"/>
      <point x="458.4307692307692" y="1.2615384615384615" type="line"/>
      <point x="281.1433198380567" y="464.18461538461537" type="line"/>
      <point x="109.76923076923077" y="889.5368421052631" type="line"/>
    </contour>
  </outline>
</glyph>
<glyph name="w" format="2">
  <advance width="1872"/>
  <unicode hex="0077"/>
  <outline>
    <contour>
      <point x="-11.353846153846153" y="924.5368421052631" type="line"/>
      <point x="-11.353846153846153" y="999.5384615384615" type="line"/>
      <point x="657.0615384615385" y="999.5384615384615" type="line"/>
      <point x="657.0615384615385" y="924.5368421052631" type="line"/>
      <point x="567.3076923076923" y="889.5368421052631" type="line"/>
      <point x="657.7789473684211" y="578.5538461538462" type="line"/>
      <point x="745.4145748987854" y="276.4307692307692" type="line"/>
      <point x="820.9433198380567" y="500.8" type="line"/>
      <point x="923.1028340080971" y="812.7740890688259" type="line"/>
      <point x="995.7821862348178" y="774.2923076923076" type="line"/>
      <point x="896.1514170040485" y="480.44615384615383" type="line"/>
      <point x="754.3975708502023" y="1.2615384615384615" type="line"/>
      <point x="353.38461538461536" y="1.2615384615384615" type="line"/>
      <point x="206.936032388664" y="514.6" type="line"/>
      <point x="95.44615384615385" y="889.5368421052631" type="line"/>
    </contour>
    <contour>
      <point x="762.6153846153846" y="924.5368421052631" type="line"/>
      <point x="762.6153846153846" y="999.5384615384615" type="line"/>
      <point x="1388.553846153846" y="999.5384615384615" type="line"/>
      <point x="1388.553846153846" y="924.5368421052631" type="line"/>
      <point x="1307.2769230769231" y="889.5368421052631" type="line"/>
      <point x="1394.1773279352226" y="571.9076923076923" type="line"/>
      <point x="1475.9668016194332" y="290.8" type="line"/>
      <point x="1546.400809716599" y="549.3230769230769" type="line"/>
      <point x="1635.2412955465586" y="880.3813765182186" type="line"/>
      <point x="1502.9384615384615" y="924.5368421052631" type="line"/>
      <point x="1502.9384615384615" y="999.5384615384615" type="line"/>
      <point x="1863.0923076923077" y="999.5384615384615" type="line"/>
      <point x="1863.0923076923077" y="924.5368421052631" type="line"/>
      <point x="1729.7821862348178" y="882.2736842105263" type="line"/>
      <point x="1637.9263157894738" y="542.1384615384616" type="line"/>
      <point x="1501.157894736842" y="1.2615384615384615" type="line"/>
      <point x="1101.0923076923077" y="1.2615384615384615" type="line"/>
      <point x="952.0194331983805" y="540.4769230769231" type="line"/>
      <point x="859.4153846153846" y="889.5368421052631" type="line"/>
    </contour>
  </outline>
</glyph>
<glyph name="z" format="2">
  <advance width="1100"/>
  <unicode hex="007A"/>
  <outline>
    <contour>
      <point x="36.95384615384616" y="0.0" type="line"/>
      <point x="36.95384615384616" y="79.42591093117409" type="line"/>
      <point x="529.2923076923076" y="919.9935222672065" type="line"/>
      <point x="248.20323886639676" y="919.9935222672065" type="line"/>
      <point x="159.4137651821862" y="664.5384615384615" type="line"/>
      <point x="81.76923076923077" y="664.5384615384615" type="line"/>
      <point x="81.76923076923077" y="999.5384615384615" type="line"/>
      <point x="1040.3846153846155" y="999.5384615384615" type="line"/>
      <point x="1040.3846153846155" y="917.3279352226721" type="line"/>
      <point x="571.7692307692307" y="79.86072874493928" type="line"/>
      <point x="898.5198380566802" y="79.86072874493928" type="line"/>
      <point x="998.0364372469636" y="328.84615384615387" type="line"/>
      <point x="1071.8923076923077" y="328.84615384615387" type="line"/>
      <point x="1071.8923076923077" y="0.0" type="line"/>
    </contour>
  </outline>
</glyph>
<glyph name="bar" format="2">
  <advance width="695"/>
  <unicode hex="007C"/>
  <outline>
    <contour>
      <point x="178.72793522267204" y="-527.8" type="line"/>
      <point x="191.9894736842105" y="-65.56923076923077" type="line"/>
      <point x="207.35870445344128" y="242.43076923076924" type="line"/>
      <point x="206.62024291497974" y="822.4307692307692" type="line"/>
      <point x="193.8817813765182" y="1130.4307692307693" type="line"/>
      <point x="179.9894736842105" y="1520.6048582995952" type="line"/>
      <point x="512.025910931174" y="1536.5384615384614" type="line"/>
      <point x="500.6566801619433" y="1144.3076923076924" type="line"/>
      <point x="487.8105263157895" y="836.3076923076923" type="line"/>
      <point x="488.54898785425104" y="256.3076923076923" type="line"/>
      <point x="500.02591093117405" y="-51.69230769230769" type="line"/>
      <point x="513.2874493927126" y="-508.70850202429153" type="line"/>
    </contour>
  </outline>
</glyph>
<glyph name="braceright" format="2">
  <advance width="745"/>
  <unicode hex="007D"/>
  <outline>
    <contour>
      <point x="16.369230769230768" y="-245.4574898785425" type="qcurve"/>
      <point x="16.369230769230768" y="-216.4412955465587" type="line"/>
      <point x="49.536842105263155" y="-219.70526315789473"/>
      <point x="102.48502024291497" y="-220.33765182186235"/>
      <point x="129.23886639676113" y="-220.33765182186235" type="qcurve" smooth="yes"/>
      <point x="217.0080971659919" y="-220.33765182186235"/>
      <point x="285.8080971659919" y="-105.6259109311741"/>
      <point x="285.8080971659919" y="-10.567611336032407" type="qcurve" smooth="yes"/>
      <point x="285.8080971659919" y="83.44453441295545"/>
      <point x="111.24615384615385" y="373.80404858299596"/>
      <point x="111.24615384615385" y="477.33117408906884" type="qcurve" smooth="yes"/>
      <point x="111.24615384615385" y="556.8574898785425"/>
      <point x="225.14008097165993" y="655.8939271255061"/>
      <point x="355.1433198380567" y="678.8955465587044" type="qcurve"/>
      <point x="229.82672064777327" y="702.7886639676113"/>
      <point x="111.24615384615385" y="795.7246963562753"/>
      <point x="111.24615384615385" y="870.8599190283401" type="qcurve" smooth="yes"/>
      <point x="111.24615384615385" y="966.9101214574899"/>
      <point x="250.56113360323883" y="1184.2963562753037"/>
      <point x="250.56113360323883" y="1278.046963562753" type="qcurve" smooth="yes"/>
      <point x="250.56113360323883" y="1377.5206477732795"/>
      <point x="175.82267206477732" y="1472.8785425101214"/>
      <point x="88.7919028340081" y="1472.8785425101214" type="qcurve" smooth="yes"/>
      <point x="62.66882591093117" y="1472.8785425101214"/>
      <point x="41.49230769230769" y="1471.9311740890687"/>
      <point x="14.0" y="1467.7206477732793" type="qcurve"/>
      <point x="14.0" y="1496.842105263158" type="line"/>
      <point x="41.477732793522264" y="1503.0"/>
      <point x="274.59190283400807" y="1510.0"/>
      <point x="313.9303643724696" y="1510.0" type="qcurve" smooth="yes"/>
      <point x="435.8380566801619" y="1510.0"/>
      <point x="635.7919028340082" y="1361.2923076923078"/>
      <point x="635.7919028340082" y="1223.7384615384615" type="qcurve" smooth="yes"/>
      <point x="635.7919028340082" y="1121.5076923076922"/>
      <point x="480.4923076923077" y="924.1538461538462"/>
      <point x="480.4923076923077" y="840.6615384615385" type="qcurve" smooth="yes"/>
      <point x="480.4923076923077" y="758.4615384615385"/>
      <point x="576.0" y="689.4607287449393"/>
      <point x="637.4615384615385" y="686.6145748987855" type="qcurve" smooth="yes"/>
      <point x="708.5384615384615" y="684.1838056680161" type="line"/>
      <point x="708.5384615384615" y="646.3279352226721" type="line"/>
      <point x="485.9076923076923" y="638.127935222672" type="line"/>
      <point x="485.9076923076923" y="554.4923076923077" type="line"/>
      <point x="485.9076923076923" y="435.2307692307692"/>
      <point x="670.4080971659919" y="139.23076923076923"/>
      <point x="671.0388663967611" y="31.953846153846143" type="qcurve" smooth="yes"/>
      <point x="671.6696356275303" y="-106.86153846153846"/>
      <point x="478.82348178137653" y="-261.61538461538464"/>
      <point x="324.54655870445345" y="-261.61538461538464" type="qcurve" smooth="yes"/>
      <point x="287.1004048582996" y="-261.61538461538464"/>
      <point x="43.84615384615385" y="-250.982995951417"/>
    </contour>
  </outline>
</glyph>
<glyph name="currency" format="2">
  <advance width="1263"/>
  <unicode hex="00A4"/>
  <outline>
    <contour>
      <point x="199.283828543805" y="904.41671918027" type="qcurve" smooth="yes"/>
      <point x="199.283828543805" y="1089.2936422571927"/>
      <point x="443.32998238995884" y="1349.8167191802695"/>
      <point x="640.683828543805" y="1349.8167191802695" type="qcurve" smooth="yes"/>
      <point x="840.6684439284204" y="1349.8167191802695"/>
      <point x="1087.0838285438049" y="1106.7705653341156"/>
      <point x="1087.0838285438049" y="909.7859499495007" type="qcurve" smooth="yes"/>
      <point x="1087.0838285438049" y="724.9090268725777"/>
      <point x="845.0376746976513" y="458.01671918026983"/>
      <point x="646.0530593130358" y="458.01671918026983" type="qcurve" smooth="yes"/>
      <point x="447.6992131591896" y="458.01671918026983"/>
      <point x="199.283828543805" y="705.0628730264237"/>
    </contour>
    <contour>
      <point x="398.17613623611265" y="916.5244114879622" type="qcurve" smooth="yes"/>
      <point x="399.17613623611265" y="803.1397961033468"/>
      <point x="530.6684439284204" y="648.1705653341161"/>
      <point x="638.683828543805" y="648.1705653341161" type="qcurve" smooth="yes"/>
      <point x="756.0684439284204" y="648.1705653341161"/>
      <point x="881.1915208514973" y="788.4013345648854"/>
      <point x="881.1915208514973" y="907.41671918027" type="qcurve" smooth="yes"/>
      <point x="881.1915208514973" y="1013.8013345648853"/>
      <point x="749.6992131591896" y="1154.6628730264235"/>
      <point x="640.683828543805" y="1154.6628730264235" type="qcurve" smooth="yes"/>
      <point x="522.9299823899589" y="1154.6628730264235"/>
      <point x="397.17613623611265" y="1027.5397961033468"/>
    </contour>
    <contour>
      <point x="328.92998238995875" y="1172.0167191802695" type="line"/>
      <point x="78.6069054668819" y="1407.201334564885" type="line"/>
      <point x="185.2649314157955" y="1518.3362835907221" type="line"/>
      <point x="427.38800833887245" y="1274.3208989753375" type="line"/>
    </contour>
    <contour>
      <point x="973.1299823899589" y="1159.401334564885" type="line"/>
      <point x="874.6719564410453" y="1261.7055143599528" type="line"/>
      <point x="1123.1027256718144" y="1518.3362835907221" type="line"/>
      <point x="1229.760751620728" y="1407.201334564885" type="line"/>
    </contour>
    <contour>
      <point x="335.23767469765113" y="630.0628730264237" type="line"/>
      <point x="433.6957006465648" y="527.7586932313562" type="line"/>
      <point x="185.2649314157955" y="271.75869323135623" type="line"/>
      <point x="78.6069054668819" y="382.26287302642373" type="line"/>
    </contour>
    <contour>
      <point x="966.8222900822666" y="636.3705653341161" type="line"/>
      <point x="1229.760751620728" y="382.26287302642373" type="line"/>
      <point x="1123.1027256718144" y="271.75869323135623" type="line"/>
      <point x="868.3642641333529" y="534.0663855390485" type="line"/>
    </contour>
  </outline>
</glyph>
<glyph name="dieresis" format="2">
  <advance width="943"/>
  <unicode hex="00A8"/>
  <outline>
    <contour>
      <point x="524.723076923077" y="1221.246153846154" type="qcurve" smooth="yes"/>
      <point x="524.723076923077" y="1283.4153846153847"/>
      <point x="597.6769230769231" y="1352.7384615384615"/>
      <point x="660.2153846153847" y="1352.7384615384615" type="qcurve" smooth="yes"/>
      <point x="721.6461538461539" y="1352.7384615384615"/>
      <point x="795.7076923076924" y="1279.9384615384615"/>
      <point x="795.7076923076924" y="1221.246153846154" type="qcurve" smooth="yes"/>
      <point x="795.7076923076924" y="1159.7076923076922"/>
      <point x="724.123076923077" y="1088.753846153846"/>
      <point x="660.2153846153847" y="1088.753846153846" type="qcurve" smooth="yes"/>
      <point x="598.7846153846153" y="1088.753846153846"/>
      <point x="524.723076923077" y="1161.8153846153846"/>
    </contour>
    <contour>
      <point x="147.55384615384617" y="1221.246153846154" type="qcurve" smooth="yes"/>
      <point x="147.55384615384617" y="1283.4153846153847"/>
      <point x="219.5076923076923" y="1352.7384615384615"/>
      <point x="283.04615384615386" y="1352.7384615384615" type="qcurve" smooth="yes"/>
      <point x="344.4769230769231" y="1352.7384615384615"/>
      <point x="418.53846153846155" y="1279.9384615384615"/>
      <point x="418.53846153846155" y="1221.246153846154" type="qcurve" smooth="yes"/>
      <point x="418.53846153846155" y="1159.7076923076922"/>
      <point x="345.95384615384614" y="1088.753846153846"/>
      <point x="283.04615384615386" y="1088.753846153846" type="qcurve" smooth="yes"/>
      <point x="221.6153846153846" y="1088.753846153846"/>
      <point x="147.55384615384617" y="1161.8153846153846"/>
    </contour>
  </outline>
</glyph>
<glyph name="copyright" format="2">
  <advance width="1871"/>
  <unicode hex="00A9"/>
  <outline>
    <contour>
      <point x="491.5230769230769" y="637.6923076923077" type="qcurve" smooth="yes"/>
      <point x="491.5230769230769" y="877.123076923077"/>
      <point x="771.123076923077" y="1119.2307692307693"/>
      <point x="999.8461538461538" y="1119.2307692307693" type="qcurve" smooth="yes"/>
      <point x="1085.2153846153847" y="1119.2307692307693"/>
      <point x="1185.4923076923078" y="1091.753846153846"/>
      <point x="1221.1692307692308" y="1070.753846153846" type="qcurve"/>
      <point x="1253.5692307692307" y="1114.3846153846155" type="line"/>
      <point x="1336.5692307692307" y="1108.676923076923" type="line"/>
      <point x="1335.4769230769232" y="809.2461538461539" type="line"/>
      <point x="1245.8923076923077" y="799.9692307692308" type="line"/>
      <point x="1222.8" y="863.2461538461539" type="line"/>
      <point x="1226.9384615384615" y="933.9230769230769"/>
      <point x="1130.7846153846153" y="1026.5846153846153"/>
      <point x="1056.7384615384615" y="1026.5846153846153" type="qcurve" smooth="yes"/>
      <point x="956.723076923077" y="1026.5846153846153"/>
      <point x="838.5384615384615" y="856.7384615384616"/>
      <point x="838.5384615384615" y="651.276923076923" type="qcurve" smooth="yes"/>
      <point x="838.5384615384615" y="479.3692307692308"/>
      <point x="973.6769230769231" y="329.7692307692308"/>
      <point x="1097.2615384615385" y="329.7692307692308" type="qcurve" smooth="yes"/>
      <point x="1170.8923076923077" y="329.7692307692308"/>
      <point x="1281.4615384615386" y="371.6307692307692"/>
      <point x="1317.676923076923" y="429.5692307692308" type="qcurve"/>
      <point x="1354.1846153846154" y="379.67692307692306" type="line"/>
      <point x="1326.8923076923077" y="309.24615384615385"/>
      <point x="1145.8461538461538" y="182.15384615384616"/>
      <point x="962.4461538461538" y="182.15384615384616" type="qcurve" smooth="yes"/>
      <point x="765.3538461538461" y="182.15384615384616"/>
      <point x="491.5230769230769" y="416.24615384615385"/>
    </contour>
    <contour>
      <point x="80.18461538461538" y="681.2153846153847" type="qcurve" smooth="yes"/>
      <point x="80.18461538461538" y="1044.6"/>
      <point x="563.9692307692308" y="1535.9384615384615"/>
      <point x="937.6923076923077" y="1535.9384615384615" type="qcurve" smooth="yes"/>
      <point x="1310.0461538461539" y="1535.9384615384615"/>
      <point x="1791.2" y="1069.9692307692308"/>
      <point x="1791.2" y="702.2153846153847" type="qcurve" smooth="yes"/>
      <point x="1791.2" y="298.7230769230769"/>
      <point x="1317.0461538461539" y="-212.98461538461538"/>
      <point x="949.0615384615385" y="-212.98461538461538" type="qcurve" smooth="yes"/>
      <point x="569.7076923076924" y="-212.98461538461538"/>
      <point x="80.18461538461538" y="286.7230769230769"/>
    </contour>
    <contour>
      <point x="217.01538461538462" y="676.2153846153847" type="qcurve" smooth="yes"/>
      <point x="217.01538461538462" y="346.16923076923075"/>
      <point x="640.0769230769231" y="-90.55384615384615"/>
      <point x="953.6" y="-90.55384615384615" type="qcurve" smooth="yes"/>
      <point x="1259.3846153846155" y="-90.55384615384615"/>
      <point x="1654.3692307692309" y="357.18461538461537"/>
      <point x="1654.3692307692309" y="692.8461538461538" type="qcurve" smooth="yes"/>
      <point x="1654.3692307692309" y="987.2615384615384"/>
      <point x="1251.2615384615385" y="1413.5076923076922"/>
      <point x="923.1076923076923" y="1413.5076923076922" type="qcurve" smooth="yes"/>
      <point x="617.0" y="1413.5076923076922"/>
      <point x="217.01538461538462" y="979.2615384615384"/>
    </contour>
  </outline>
</glyph>
<glyph name="registered" format="2">
  <advance width="1871"/>
  <unicode hex="00AE"/>
  <outline>
    <contour>
      <point x="80.18461538461538" y="681.2153846153847" type="qcurve" smooth="yes"/>
      <point x="80.18461538461538" y="1044.6"/>
      <point x="563.9692307692308" y="1535.9384615384615"/>
      <point x="937.6923076923077" y="1535.9384615384615" type="qcurve" smooth="yes"/>
      <point x="1310.0461538461539" y="1535.9384615384615"/>
      <point x="1791.2" y="1069.9692307692308"/>
      <point x="1791.2" y="702.2153846153847" type="qcurve" smooth="yes"/>
      <point x="1791.2" y="298.7230769230769"/>
      <point x="1317.0461538461539" y="-212.98461538461538"/>
      <point x="949.0615384615385" y="-212.98461538461538" type="qcurve" smooth="yes"/>
      <point x="569.7076923076924" y="-212.98461538461538"/>
      <point x="80.18461538461538" y="286.7230769230769"/>
    </contour>
    <contour>
      <point x="217.01538461538462" y="676.2153846153847" type="qcurve" smooth="yes"/>
      <point x="217.01538461538462" y="346.16923076923075"/>
      <point x="640.0769230769231" y="-90.55384615384615"/>
      <point x="953.6" y="-90.55384615384615" type="qcurve" smooth="yes"/>
      <point x="1259.3846153846155" y="-90.55384615384615"/>
      <point x="1654.3692307692309" y="357.18461538461537"/>
      <point x="1654.3692307692309" y="692.8461538461538" type="qcurve" smooth="yes"/>
      <point x="1654.3692307692309" y="987.2615384615384"/>
      <point x="1251.2615384615385" y="1413.5076923076922"/>
      <point x="923.1076923076923" y="1413.5076923076922" type="qcurve" smooth="yes"/>
      <point x="617.0" y="1413.5076923076922"/>
      <point x="217.01538461538462" y="979.2615384615384"/>
    </contour>
    <contour>
      <point x="555.3538461538461" y="230.24615384615385" type="line"/>
      <point x="555.9846153846154" y="279.87692307692305" type="line"/>
      <point x="639.1076923076923" y="301.3538461538462" type="line"/>
      <point x="648.2153846153847" y="709.123076923077" type="line"/>
      <point x="637.2153846153847" y="1033.9384615384615" type="line"/>
      <point x="551.6615384615385" y="1056.3076923076924" type="line"/>
      <point x="552.9230769230769" y="1135.2" type="line"/>
      <point x="982.2153846153847" y="1135.2" type="line" smooth="yes"/>
      <point x="1120.0307692307692" y="1135.2"/>
      <point x="1284.1076923076923" y="1003.9692307692308"/>
      <point x="1284.1076923076923" y="883.8461538461538" type="qcurve" smooth="yes"/>
      <point x="1284.1076923076923" y="749.2461538461539"/>
      <point x="1090.446153846154" y="607.6923076923077"/>
      <point x="980.2153846153847" y="607.6923076923077" type="qcurve" smooth="yes"/>
      <point x="935.5230769230769" y="607.6923076923077"/>
      <point x="843.1846153846154" y="615.4307692307692"/>
      <point x="821.7076923076924" y="615.4307692307692" type="qcurve"/>
      <point x="820.4461538461538" y="695.7384615384616" type="line"/>
      <point x="897.2615384615385" y="695.7384615384616" type="line" smooth="yes"/>
      <point x="1002.3846153846154" y="695.7384615384616"/>
      <point x="1075.6615384615384" y="788.2615384615385"/>
      <point x="1075.6615384615384" y="881.7846153846153" type="qcurve" smooth="yes"/>
      <point x="1075.6615384615384" y="973.0461538461539"/>
      <point x="1005.6461538461539" y="1043.9384615384615"/>
      <point x="914.6307692307693" y="1043.9384615384615" type="qcurve" smooth="yes"/>
      <point x="871.5076923076923" y="1043.9384615384615" type="line"/>
      <point x="853.0307692307692" y="1029.676923076923" type="line"/>
      <point x="843.1846153846154" y="689.123076923077" type="line"/>
      <point x="852.9230769230769" y="301.3538461538462" type="line"/>
      <point x="938.5230769230769" y="279.87692307692305" type="line"/>
      <point x="938.5230769230769" y="230.24615384615385" type="line"/>
    </contour>
    <contour>
      <point x="894.0307692307692" y="666.0307692307692" type="line"/>
      <point x="1096.1076923076923" y="690.876923076923" type="line"/>
      <point x="1274.6615384615384" y="393.0" type="line" smooth="yes"/>
      <point x="1320.0" y="314.33846153846156"/>
      <point x="1371.1076923076923" y="282.4"/>
      <point x="1407.4307692307693" y="282.4" type="qcurve"/>
      <point x="1406.1692307692308" y="230.24615384615385" type="line"/>
      <point x="1170.8461538461538" y="230.24615384615385" type="line"/>
      <point x="1134.523076923077" y="242.35384615384615" type="line"/>
    </contour>
  </outline>
</glyph>
<glyph name="plusminus" format="2">
  <advance width="992"/>
  <unicode hex="00B1"/>
  <outline>
    <contour>
      <point x="55.43076923076923" y="677.6153846153846" type="line"/>
      <point x="55.43076923076923" y="926.3846153846154" type="line"/>
      <point x="936.7384615384615" y="926.3846153846154" type="line"/>
      <point x="936.7384615384615" y="677.6153846153846" type="line"/>
    </contour>
    <contour>
      <point x="348.2" y="364.61538461538464" type="line"/>
      <point x="348.2" y="1214.1538461538462" type="line"/>
      <point x="643.9692307692308" y="1214.1538461538462" type="line"/>
      <point x="643.9692307692308" y="364.61538461538464" type="line"/>
    </contour>
    <contour>
      <point x="55.43076923076923" y="1.0" type="line"/>
      <point x="55.43076923076923" y="235.76923076923077" type="line"/>
      <point x="936.7384615384615" y="235.76923076923077" type="line"/>
      <point x="936.7384615384615" y="1.0" type="line"/>
    </contour>
  </outline>
</glyph>
<glyph name="twosuperior" format="2">
  <advance width="815"/>
  <unicode hex="00B2"/>
  <outline>
    <contour>
      <point x="84.67692307692307" y="732.1846153846154" type="line"/>
      <point x="85.93846153846154" y="823.0461538461539" type="line"/>
      <point x="102.28734105642981" y="882.8809202972989"/>
      <point x="229.0" y="1036.7692307692307"/>
      <point x="337.38461538461536" y="1100.0307692307692" type="qcurve" smooth="yes"/>
      <point x="378.63076923076926" y="1125.5692307692307"/>
      <point x="433.799515292249" y="1207.0923076923077"/>
      <point x="441.63076923076926" y="1279.2307692307693" type="qcurve" smooth="yes"/>
      <point x="449.46202316928947" y="1339.1022409640634"/>
      <point x="384.2" y="1411.9384615384615"/>
      <point x="325.7846153846154" y="1411.9384615384615" type="qcurve" smooth="yes"/>
      <point x="277.4" y="1411.9384615384615"/>
      <point x="175.4" y="1353.4307692307693"/>
      <point x="134.90769230769232" y="1291.446153846154" type="qcurve"/>
      <point x="105.87692307692308" y="1373.4923076923078" type="line"/>
      <point x="144.52307692307693" y="1430.8"/>
      <point x="320.95384615384614" y="1520.0"/>
      <point x="429.03076923076924" y="1520.0" type="qcurve" smooth="yes"/>
      <point x="593.0923076923077" y="1520.0"/>
      <point x="716.9692307692308" y="1409.1384615384616"/>
      <point x="719.9692307692308" y="1321.0153846153846" type="qcurve" smooth="yes"/>
      <point x="722.9692307692308" y="1213.2153846153847"/>
      <point x="584.8953354971816" y="1084.5746821128596"/>
      <point x="455.75687395871995" y="1029.4357358666473" type="qcurve" smooth="yes"/>
      <point x="266.26262743540826" y="947.6595996305344"/>
      <point x="286.5820722874925" y="908.2387636715209"/>
      <point x="288.3314365132119" y="927.0" type="qcurve"/>
      <point x="290.3314365132119" y="925.2461538461539" type="line"/>
      <point x="735.5538461538462" y="924.2461538461539" type="line"/>
      <point x="735.5538461538462" y="732.1846153846154" type="line"/>
    </contour>
  </outline>
</glyph>
<glyph name="acute" format="2">
  <advance width="943"/>
  <unicode hex="00B4"/>
  <outline>
    <contour>
      <point x="756.723076923077" y="1408.876923076923" type="qcurve" smooth="yes"/>
      <point x="756.723076923077" y="1384.4307692307693"/>
      <point x="724.3846153846154" y="1305.323076923077"/>
      <point x="683.2615384615385" y="1280.1538461538462" type="qcurve" smooth="yes"/>
      <point x="415.6307692307692" y="1102.6615384615384" type="line"/>
      <point x="361.6923076923077" y="1152.8153846153846" type="line"/>
      <point x="503.89230769230767" y="1405.0615384615385" type="line" smooth="yes"/>
      <point x="535.276923076923" y="1457.2307692307693"/>
      <point x="611.5692307692308" y="1513.3692307692309"/>
      <point x="650.2153846153847" y="1513.3692307692309" type="qcurve" smooth="yes"/>
      <point x="691.7538461538461" y="1513.3692307692309"/>
      <point x="756.723076923077" y="1440.2615384615385"/>
    </contour>
  </outline>
</glyph>
<glyph name="paragraph" format="2">
  <advance width="1176"/>
  <unicode hex="00B6"/>
  <outline>
    <contour>
      <point x="1118.4769230769232" y="82.6923076923077" type="line"/>
      <point x="1118.4769230769232" y="0.0" type="line"/>
      <point x="317.9230769230769" y="0.0" type="line"/>
      <point x="317.9230769230769" y="83.6923076923077" type="line"/>
      <point x="827.0" y="112.6923076923077" type="line"/>
      <point x="829.0" y="727.0" type="line"/>
      <point x="790.0" y="721.0"/>
      <point x="550.0" y="713.0"/>
      <point x="491.0" y="713.0" type="qcurve" smooth="yes"/>
      <point x="298.0" y="713.0"/>
      <point x="64.0" y="919.0"/>
      <point x="64.0" y="1125.0" type="qcurve" smooth="yes"/>
      <point x="64.0" y="1296.0"/>
      <point x="286.0" y="1500.0"/>
      <point x="478.0" y="1500.0" type="qcurve" smooth="yes"/>
      <point x="1146.246153846154" y="1500.0" type="line"/>
      <point x="1146.246153846154" y="1407.0923076923077" type="line"/>
      <point x="970.4769230769231" y="1373.0923076923077" type="line"/>
      <point x="968.4769230769231" y="754.0" type="line"/>
      <point x="970.4769230769231" y="112.6923076923077" type="line"/>
    </contour>
    <contour>
      <point x="617.2307692307693" y="57.66153846153846" type="line"/>
      <point x="480.6923076923077" y="55.815384615384616" type="line"/>
      <point x="482.6923076923077" y="739.6153846153846" type="line"/>
      <point x="615.2307692307693" y="740.3076923076923" type="line"/>
    </contour>
  </outline>
</glyph>
<glyph name="periodcentered" format="2">
  <advance width="645"/>
  <unicode hex="00B7"/>
  <outline>
    <contour>
      <point x="94.41538461538462" y="634.6923076923077" type="qcurve" smooth="yes"/>
      <point x="94.41538461538462" y="722.123076923077"/>
      <point x="222.32307692307694" y="850.4"/>
      <point x="321.75384615384615" y="850.4" type="qcurve" smooth="yes"/>
      <point x="421.18461538461537" y="850.4"/>
      <point x="550.723076923077" y="722.123076923077"/>
      <point x="550.723076923077" y="634.6923076923077" type="qcurve" smooth="yes"/>
      <point x="550.723076923077" y="548.3692307692307"/>
      <point x="421.18461538461537" y="419.0923076923077"/>
      <point x="321.75384615384615" y="419.0923076923077" type="qcurve" smooth="yes"/>
      <point x="222.32307692307694" y="419.0923076923077"/>
      <point x="94.41538461538462" y="548.3692307692307"/>
    </contour>
  </outline>
</glyph>
<glyph name="cedilla" format="2">
  <advance width="943"/>
  <unicode hex="00B8"/>
  <outline>
    <contour>
      <point x="531.0153846153846" y="5.615384615384615" type="line"/>
      <point x="443.7076923076923" y="-133.0" type="line"/>
      <point x="471.38461538461536" y="-122.84615384615384"/>
      <point x="566.1538461538462" y="-112.06153846153846"/>
      <point x="603.8923076923077" y="-112.06153846153846" type="qcurve" smooth="yes"/>
      <point x="705.2615384615385" y="-112.06153846153846"/>
      <point x="844.0" y="-200.90769230769232"/>
      <point x="844.0" y="-302.0153846153846" type="qcurve" smooth="yes"/>
      <point x="844.0" y="-406.6461538461538"/>
      <point x="664.1538461538462" y="-532.0769230769231"/>
      <point x="508.15384615384613" y="-532.0769230769231" type="qcurve" smooth="yes"/>
      <point x="398.9384615384615" y="-532.0769230769231"/>
      <point x="244.96923076923076" y="-474.87692307692305"/>
      <point x="179.86153846153846" y="-421.3076923076923" type="qcurve"/>
      <point x="222.46153846153845" y="-369.4" type="line"/>
      <point x="271.46153846153845" y="-399.4"/>
      <point x="386.04615384615386" y="-428.3538461538462"/>
      <point x="458.5846153846154" y="-428.3538461538462" type="qcurve" smooth="yes"/>
      <point x="539.0923076923077" y="-428.3538461538462"/>
      <point x="625.1846153846154" y="-372.67692307692306"/>
      <point x="625.1846153846154" y="-314.4769230769231" type="qcurve" smooth="yes"/>
      <point x="625.1846153846154" y="-266.6461538461538"/>
      <point x="552.723076923077" y="-209.2923076923077"/>
      <point x="502.61538461538464" y="-209.2923076923077" type="qcurve" smooth="yes"/>
      <point x="465.5076923076923" y="-209.2923076923077"/>
      <point x="407.4" y="-221.07692307692307"/>
      <point x="388.03076923076924" y="-229.33846153846153" type="qcurve"/>
      <point x="325.2769230769231" y="-157.27692307692308" type="line"/>
      <point x="450.7076923076923" y="42.169230769230765" type="line"/>
    </contour>
  </outline>
</glyph>
<glyph name="guillemetright" format="2">
  <advance width="1473"/>
  <unicode hex="00BB"/>
  <outline>
    <contour>
      <point x="1428.076923076923" y="577.0615384615385" type="line"/>
      <point x="1353.076923076923" y="529.0615384615385"/>
      <point x="807.2769230769231" y="172.2923076923077"/>
      <point x="773.5538461538462" y="162.1076923076923" type="qcurve" smooth="yes"/>
      <point x="713.4" y="138.7076923076923"/>
      <point x="649.7846153846153" y="259.4923076923077"/>
      <point x="711.5692307692308" y="304.5230769230769" type="qcurve" smooth="yes"/>
      <point x="724.6153846153846" y="317.6923076923077"/>
      <point x="1117.923076923077" y="601.7538461538461"/>
      <point x="1126.753846153846" y="608.6923076923077" type="qcurve"/>
      <point x="1119.1846153846154" y="616.2615384615384"/>
      <point x="829.9230769230769" y="824.8923076923077"/>
      <point x="714.9384615384615" y="904.2307692307693" type="qcurve" smooth="yes"/>
      <point x="651.1538461538462" y="948.2615384615384"/>
      <point x="732.3384615384615" y="1087.3076923076924"/>
      <point x="795.7076923076924" y="1041.3846153846155" type="qcurve" smooth="yes"/>
      <point x="862.4461538461538" y="994.2307692307693"/>
      <point x="1428.076923076923" y="637.6923076923077"/>
      <point x="1427.446153846154" y="637.6923076923077" type="qcurve"/>
    </contour>
    <contour>
      <point x="817.3384615384615" y="577.6923076923077" type="line"/>
      <point x="742.3384615384615" y="529.6923076923077"/>
      <point x="197.8" y="174.18461538461537"/>
      <point x="164.0769230769231" y="163.36923076923077" type="qcurve" smooth="yes"/>
      <point x="103.92307692307692" y="141.23076923076923"/>
      <point x="35.89230769230769" y="258.8615384615385"/>
      <point x="99.56923076923077" y="304.5230769230769" type="qcurve" smooth="yes"/>
      <point x="110.0923076923077" y="313.2769230769231"/>
      <point x="503.4" y="597.3384615384615"/>
      <point x="517.276923076923" y="609.3230769230769" type="qcurve"/>
      <point x="508.44615384615383" y="616.8923076923077"/>
      <point x="205.93846153846152" y="834.3538461538461"/>
      <point x="102.93846153846154" y="903.6" type="qcurve" smooth="yes"/>
      <point x="40.41538461538462" y="946.3692307692307"/>
      <point x="120.33846153846153" y="1089.2"/>
      <point x="184.33846153846153" y="1042.0153846153846" type="qcurve" smooth="yes"/>
      <point x="252.33846153846153" y="998.0153846153846"/>
      <point x="816.7076923076924" y="637.6923076923077"/>
      <point x="816.7076923076924" y="637.6923076923077" type="qcurve"/>
    </contour>
  </outline>
</glyph>
<glyph name="questiondown" format="2">
  <advance width="1031"/>
  <unicode hex="00BF"/>
  <outline>
    <contour>
      <point x="899.1846153846154" y="1132.5384615384614" type="qcurve" smooth="yes"/>
      <point x="899.1846153846154" y="1056.7384615384615"/>
      <point x="784.9076923076923" y="949.723076923077"/>
      <point x="694.1076923076923" y="949.723076923077" type="qcurve" smooth="yes"/>
      <point x="603.3076923076923" y="949.723076923077"/>
      <point x="489.66153846153844" y="1056.7384615384615"/>
      <point x="489.66153846153844" y="1132.5384615384614" type="qcurve" smooth="yes"/>
      <point x="489.66153846153844" y="1209.6"/>
      <point x="603.3076923076923" y="1317.246153846154"/>
      <point x="694.1076923076923" y="1317.246153846154" type="qcurve" smooth="yes"/>
      <point x="784.9076923076923" y="1317.246153846154"/>
      <point x="899.1846153846154" y="1209.6"/>
    </contour>
    <contour>
      <point x="1011.8" y="78.16923076923078" type="qcurve" smooth="yes"/>
      <point x="1011.8" y="-44.184615384615384"/>
      <point x="791.0769230769231" y="-240.33846153846153"/>
      <point x="569.7384615384616" y="-240.33846153846153" type="qcurve" smooth="yes"/>
      <point x="329.8615384615385" y="-240.33846153846153"/>
      <point x="70.52307692307693" y="-40.76923076923077"/>
      <point x="70.52307692307693" y="130.35384615384615" type="qcurve" smooth="yes"/>
      <point x="70.52307692307693" y="277.75384615384615"/>
      <point x="197.41538461538462" y="475.8615384615385"/>
      <point x="378.33846153846156" y="562.4153846153846" type="qcurve" smooth="yes"/>
      <point x="455.2307692307692" y="602.876923076923"/>
      <point x="650.4461538461538" y="686.6461538461539"/>
      <point x="650.4461538461538" y="798.0307692307692" type="qcurve" smooth="yes"/>
      <point x="650.4461538461538" y="821.0615384615385" type="line"/>
      <point x="757.5538461538462" y="821.0615384615385" type="line"/>
      <point x="767.5076923076923" y="714.9846153846154" type="line" smooth="yes"/>
      <point x="782.4615384615385" y="597.4153846153846"/>
      <point x="674.4769230769231" y="415.2"/>
      <point x="601.0615384615385" y="356.5076923076923" type="qcurve" smooth="yes"/>
      <point x="562.6" y="323.0769230769231"/>
      <point x="497.26153846153846" y="177.7076923076923"/>
      <point x="497.26153846153846" y="65.04615384615384" type="qcurve" smooth="yes"/>
      <point x="497.26153846153846" y="-31.523076923076914"/>
      <point x="577.3384615384615" y="-108.87692307692308"/>
      <point x="651.8461538461538" y="-108.87692307692308" type="qcurve" smooth="yes"/>
      <point x="744.4307692307692" y="-108.87692307692308"/>
      <point x="852.4769230769231" y="-32.89230769230769"/>
      <point x="852.4769230769231" y="27.723076923076924" type="qcurve" smooth="yes"/>
      <point x="852.4769230769231" y="48.215384615384615"/>
      <point x="750.4615384615385" y="112.0"/>
      <point x="751.723076923077" y="173.16923076923078" type="qcurve" smooth="yes"/>
      <point x="753.6153846153846" y="217.3846153846154"/>
      <point x="811.6307692307693" y="283.6615384615385"/>
      <point x="870.3846153846154" y="283.6615384615385" type="qcurve" smooth="yes"/>
      <point x="926.0461538461539" y="283.6615384615385"/>
      <point x="1011.8" y="182.3846153846154"/>
    </contour>
  </outline>
</glyph>
<glyph name="multiply" format="2">
  <advance width="992"/>
  <unicode hex="00D7"/>
  <outline>
    <contour>
      <point x="234.01538461538462" y="184.2" type="line"/>
      <point x="48.784615384615385" y="370.4307692307692" type="line"/>
      <point x="759.7846153846153" y="1081.4307692307693" type="line"/>
      <point x="945.0153846153846" y="895.2" type="line"/>
    </contour>
    <contour>
      <point x="760.4153846153846" y="184.83076923076922" type="line"/>
      <point x="49.41538461538462" y="895.8307692307692" type="line"/>
      <point x="232.75384615384615" y="1080.1692307692308" type="line"/>
      <point x="943.7538461538461" y="369.16923076923075" type="line"/>
    </contour>
  </outline>
</glyph>
<glyph name="ae" format="2">
  <advance width="1837"/>
  <unicode hex="00E6"/>
  <outline>
    <contour>
      <point x="18.092307692307692" y="255.92307692307693" type="qcurve" smooth="yes"/>
      <point x="18.092307692307692" y="409.83076923076925"/>
      <point x="327.5076923076923" y="568.6"/>
      <point x="697.876923076923" y="602.1692307692308" type="qcurve"/>
      <point x="704.6153846153846" y="520.4307692307692" type="line"/>
      <point x="579.7846153846153" y="503.4923076923077"/>
      <point x="467.36923076923074" y="387.44615384615383"/>
      <point x="467.36923076923074" y="298.9076923076923" type="qcurve" smooth="yes"/>
      <point x="467.36923076923074" y="214.46153846153845"/>
      <point x="538.5230769230769" y="148.72307692307692"/>
      <point x="590.6923076923077" y="148.72307692307692" type="qcurve" smooth="yes"/>
      <point x="631.6615384615385" y="148.72307692307692"/>
      <point x="699.0307692307692" y="218.83076923076925"/>
      <point x="711.723076923077" y="256.26153846153846" type="qcurve"/>
      <point x="698.9846153846154" y="294.9384615384615"/>
      <point x="696.3384615384615" y="351.5230769230769"/>
      <point x="695.7076923076924" y="410.73846153846154" type="qcurve" smooth="yes"/>
      <point x="693.1846153846154" y="565.3230769230769" type="line" smooth="yes"/>
      <point x="690.0307692307692" y="742.2923076923076"/>
      <point x="585.0769230769231" y="886.0"/>
      <point x="462.2923076923077" y="886.0" type="qcurve" smooth="yes"/>
      <point x="428.63076923076926" y="886.0"/>
      <point x="334.13846153846157" y="861.1076923076923"/>
      <point x="325.6" y="847.7384615384616" type="qcurve"/>
      <point x="350.6923076923077" y="831.4769230769231"/>
      <point x="387.46153846153845" y="777.0153846153846"/>
      <point x="388.5692307692308" y="739.5538461538462" type="qcurve" smooth="yes"/>
      <point x="390.15384615384613" y="684.0769230769231"/>
      <point x="325.9384615384615" y="621.6461538461539"/>
      <point x="263.61538461538464" y="616.6461538461539" type="qcurve" smooth="yes"/>
      <point x="197.66153846153847" y="611.6461538461539"/>
      <point x="101.50769230769231" y="685.4"/>
      <point x="101.50769230769231" y="756.723076923077" type="qcurve" smooth="yes"/>
      <point x="101.50769230769231" y="861.0"/>
      <point x="361.6615384615385" y="1025.2769230769231"/>
      <point x="609.0615384615385" y="1025.2769230769231" type="qcurve" smooth="yes"/>
      <point x="722.1846153846154" y="1025.2769230769231"/>
      <point x="900.6307692307693" y="977.9384615384615"/>
      <point x="946.8923076923077" y="938.5692307692308" type="qcurve"/>
      <point x="953.3692307692307" y="938.5692307692308" type="line"/>
      <point x="990.0" y="965.4153846153846"/>
      <point x="1152.5076923076922" y="1026.5384615384614"/>
      <point x="1291.8923076923077" y="1026.5384615384614" type="qcurve" smooth="yes"/>
      <point x="1508.6" y="1026.5384615384614"/>
      <point x="1797.9384615384615" y="786.8461538461538"/>
      <point x="1808.7384615384615" y="583.0923076923077" type="qcurve"/>
      <point x="1809.3692307692309" y="504.16923076923075" type="line"/>
      <point x="1083.8307692307692" y="504.16923076923075" type="line"/>
      <point x="1083.8307692307692" y="593.9076923076923" type="line"/>
      <point x="1403.8923076923077" y="593.9076923076923" type="line"/>
      <point x="1406.5692307692307" y="754.4769230769231"/>
      <point x="1370.1538461538462" y="926.7846153846153"/>
      <point x="1290.0461538461539" y="926.7846153846153" type="qcurve" smooth="yes"/>
      <point x="1229.0153846153846" y="926.7846153846153"/>
      <point x="1159.0923076923077" y="789.723076923077"/>
      <point x="1159.4615384615386" y="536.4461538461538" type="qcurve" smooth="yes"/>
      <point x="1159.8307692307692" y="282.9230769230769"/>
      <point x="1276.5538461538463" y="128.36923076923077"/>
      <point x="1402.1076923076923" y="128.36923076923077" type="qcurve" smooth="yes"/>
      <point x="1511.9538461538461" y="128.36923076923077"/>
      <point x="1683.8461538461538" y="232.64615384615385"/>
      <point x="1733.8461538461538" y="292.6307692307692" type="qcurve"/>
      <point x="1787.4" y="216.27692307692308" type="line"/>
      <point x="1735.923076923077" y="125.44615384615385"/>
      <point x="1480.123076923077" y="-27.0"/>
      <point x="1278.8461538461538" y="-27.0" type="qcurve" smooth="yes"/>
      <point x="1130.3384615384616" y="-27.0"/>
      <point x="865.4307692307692" y="36.44615384615385"/>
      <point x="779.8615384615384" y="141.58461538461538" type="qcurve"/>
      <point x="724.2615384615385" y="73.21538461538462"/>
      <point x="528.4307692307692" y="-15.107692307692307"/>
      <point x="387.6" y="-15.107692307692307" type="qcurve" smooth="yes"/>
      <point x="200.8923076923077" y="-15.107692307692307"/>
      <point x="18.092307692307692" y="120.66153846153847"/>
    </contour>
  </outline>
</glyph>
<glyph name="eth" format="2">
  <advance width="1427"/>
  <unicode hex="00F0"/>
  <outline>
    <contour>
      <point x="41.90769230769231" y="482.9230769230769" type="qcurve" smooth="yes"/>
      <point x="41.90769230769231" y="728.4"/>
      <point x="406.46153846153845" y="990.5846153846154"/>
      <point x="701.6" y="990.5846153846154" type="qcurve" smooth="yes"/>
      <point x="908.1076923076923" y="990.5846153846154"/>
      <point x="1060.1384615384616" y="691.9846153846154"/>
      <point x="1066.0461538461539" y="474.55384615384617" type="qcurve"/>
      <point x="879.7538461538461" y="477.0769230769231" type="line"/>
      <point x="827.5454865637114" y="716.201454123253"/>
      <point x="740.0010889738697" y="884.4615384615385"/>
      <point x="711.6" y="887.4615384615385" type="qcurve" smooth="yes"/>
      <point x="632.8307692307692" y="890.4615384615385"/>
      <point x="545.7076923076924" y="745.0923076923077"/>
      <point x="546.0769230769231" y="497.2923076923077" type="qcurve" smooth="yes"/>
      <point x="546.4461538461538" y="230.55384615384617"/>
      <point x="631.6307692307693" y="64.53846153846155"/>
      <point x="704.5538461538462" y="63.90769230769231" type="qcurve" smooth="yes"/>
      <point x="811.5846153846154" y="63.276923076923076"/>
      <point x="872.2923076923078" y="285.4153846153846"/>
      <point x="872.2923076923078" y="520.0769230769231" type="qcurve" smooth="yes"/>
      <point x="872.2923076923078" y="872.5230769230769"/>
      <point x="598.6923076923077" y="1382.8153846153846"/>
      <point x="315.2" y="1481.8153846153846" type="qcurve"/>
      <point x="397.6923076923077" y="1564.0307692307692" type="line"/>
      <point x="917.8461538461538" y="1422.923076923077"/>
      <point x="1376.3136283590723" y="908.4769230769231"/>
      <point x="1376.3136283590723" y="601.9230769230769" type="qcurve" smooth="yes"/>
      <point x="1376.3136283590723" y="316.1155671900762"/>
      <point x="1007.6873410564299" y="-25.73846153846154"/>
      <point x="691.9027256718144" y="-25.73846153846154" type="qcurve" smooth="yes"/>
      <point x="395.13349490258366" y="-25.73846153846154"/>
      <point x="41.90769230769231" y="223.6"/>
    </contour>
    <contour>
      <point x="358.9964874873751" y="1183.0923076923077" type="line"/>
      <point x="1102.9964874873754" y="1519.0923076923077" type="line"/>
      <point x="1146.2272567181446" y="1407.4307692307693" type="line"/>
      <point x="402.2272567181443" y="1069.4307692307693" type="line"/>
    </contour>
  </outline>
</glyph>
<glyph name="divide" format="2">
  <advance width="992"/>
  <unicode hex="00F7"/>
  <outline>
    <contour>
      <point x="54.8" y="504.61538461538464" type="line"/>
      <point x="54.8" y="759.3846153846154" type="line"/>
      <point x="936.1076923076923" y="759.3846153846154" type="line"/>
      <point x="936.1076923076923" y="504.61538461538464" type="line"/>
    </contour>
    <contour>
      <point x="308.46153846153845" y="260.4307692307692" type="qcurve" smooth="yes"/>
      <point x="308.46153846153845" y="333.75384615384615"/>
      <point x="412.26153846153846" y="445.9230769230769"/>
      <point x="493.95384615384614" y="445.9230769230769" type="qcurve" smooth="yes"/>
      <point x="575.6461538461539" y="445.9230769230769"/>
      <point x="679.4461538461538" y="333.75384615384615"/>
      <point x="679.4461538461538" y="260.4307692307692" type="qcurve" smooth="yes"/>
      <point x="679.4461538461538" y="187.73846153846154"/>
      <point x="575.6461538461539" y="76.56923076923077"/>
      <point x="493.95384615384614" y="76.56923076923077" type="qcurve" smooth="yes"/>
      <point x="412.26153846153846" y="76.56923076923077"/>
      <point x="308.46153846153845" y="187.73846153846154"/>
    </contour>
    <contour>
      <point x="308.46153846153845" y="1002.5692307692308" type="qcurve" smooth="yes"/>
      <point x="308.46153846153845" y="1076.2615384615385"/>
      <point x="412.26153846153846" y="1187.4307692307693"/>
      <point x="493.95384615384614" y="1187.4307692307693" type="qcurve" smooth="yes"/>
      <point x="575.6461538461539" y="1187.4307692307693"/>
      <point x="679.4461538461538" y="1076.2615384615385"/>
      <point x="679.4461538461538" y="1002.5692307692308" type="qcurve" smooth="yes"/>
      <point x="679.4461538461538" y="930.2461538461539"/>
      <point x="575.6461538461539" y="818.0769230769231"/>
      <point x="493.95384615384614" y="818.0769230769231" type="qcurve" smooth="yes"/>
      <point x="412.26153846153846" y="818.0769230769231"/>
      <point x="308.46153846153845" y="930.2461538461539"/>
    </contour>
  </outline>
</glyph>
<glyph name="gcommaaccent" format="2">
  <advance width="1195"/>
  <unicode hex="0123"/>
  <outline>
    <contour>
      <point x="751.5538461538462" y="1566.9692307692308" type="line"/>
      <point x="704.9230769230769" y="1553.5846153846153"/>
      <point x="624.7076923076924" y="1475.4153846153847"/>
      <point x="596.0769230769231" y="1406.2615384615385" type="qcurve"/>
      <point x="658.5692307692308" y="1411.3076923076924"/>
      <point x="733.4153846153846" y="1324.5692307692307"/>
      <point x="733.4153846153846" y="1268.876923076923" type="qcurve" smooth="yes"/>
      <point x="733.4153846153846" y="1212.0307692307692"/>
      <point x="656.2461538461539" y="1132.6461538461538"/>
      <point x="592.7076923076924" y="1132.6461538461538" type="qcurve" smooth="yes"/>
      <point x="529.276923076923" y="1132.6461538461538"/>
      <point x="457.61538461538464" y="1203.0307692307692"/>
      <point x="457.61538461538464" y="1268.3692307692309" type="qcurve" smooth="yes"/>
      <point x="457.61538461538464" y="1367.123076923077"/>
      <point x="598.0769230769231" y="1546.6461538461538"/>
      <point x="732.9384615384615" y="1599.7384615384615" type="qcurve"/>
    </contour>
    <component base="g"/>
  </outline>
</glyph>
<glyph name="Aringacute" format="2">
  <advance width="1452"/>
  <unicode hex="01FA"/>
  <outline>
    <contour>
      <point x="462.04615384615386" y="1781.8615384615384" type="qcurve" smooth="yes"/>
      <point x="462.04615384615386" y="1888.076923076923"/>
      <point x="615.4769230769231" y="2037.6615384615384"/>
      <point x="723.8" y="2037.6615384615384" type="qcurve" smooth="yes"/>
      <point x="832.123076923077" y="2037.6615384615384"/>
      <point x="985.5538461538462" y="1888.076923076923"/>
      <point x="985.5538461538462" y="1781.8615384615384" type="qcurve" smooth="yes"/>
      <point x="985.5538461538462" y="1675.6461538461538"/>
      <point x="832.123076923077" y="1526.0615384615385"/>
      <point x="723.8" y="1526.0615384615385" type="qcurve" smooth="yes"/>
      <point x="615.4769230769231" y="1526.0615384615385"/>
      <point x="462.04615384615386" y="1675.6461538461538"/>
    </contour>
    <contour>
      <point x="587.8153846153846" y="1781.8615384615384" type="qcurve" smooth="yes"/>
      <point x="587.8153846153846" y="1720.1846153846154"/>
      <point x="661.123076923077" y="1645.876923076923"/>
      <point x="723.8" y="1645.876923076923" type="qcurve" smooth="yes"/>
      <point x="789.4769230769231" y="1645.876923076923"/>
      <point x="859.7846153846153" y="1715.1846153846154"/>
      <point x="859.7846153846153" y="1781.8615384615384" type="qcurve" smooth="yes"/>
      <point x="859.7846153846153" y="1842.5384615384614"/>
      <point x="786.4769230769231" y="1917.8461538461538"/>
      <point x="723.8" y="1917.8461538461538" type="qcurve" smooth="yes"/>
      <point x="658.123076923077" y="1917.8461538461538"/>
      <point x="587.8153846153846" y="1848.5384615384614"/>
    </contour>
    <contour>
      <point x="987.9384615384615" y="2300.4153846153845" type="qcurve" smooth="yes"/>
      <point x="985.3538461538461" y="2279.3384615384616"/>
      <point x="938.8615384615384" y="2215.3384615384616"/>
      <point x="898.8923076923077" y="2198.123076923077" type="qcurve" smooth="yes"/>
      <point x="596.6461538461539" y="2072.8615384615387" type="line"/>
      <point x="561.0923076923077" y="2118.923076923077" type="line"/>
      <point x="757.1538461538462" y="2335.723076923077" type="line" smooth="yes"/>
      <point x="793.0153846153846" y="2377.6769230769232"/>
      <point x="873.5230769230769" y="2412.9692307692308"/>
      <point x="908.1692307692308" y="2406.8615384615387" type="qcurve" smooth="yes"/>
      <point x="946.7076923076924" y="2399.123076923077"/>
      <point x="992.4153846153846" y="2325.8"/>
    </contour>
    <component base="A"/>
  </outline>
</glyph>
<glyph name="Otildemacron" format="2">
  <advance width="1693"/>
  <unicode hex="022C"/>
  <outline>
    <contour>
      <point x="500.55384615384617" y="1666.9692307692308" type="line"/>
      <point x="534.6615384615385" y="1750.2769230769231"/>
      <point x="658.4153846153846" y="1879.4307692307693"/>
      <point x="733.3230769230769" y="1879.4307692307693" type="qcurve" smooth="yes"/>
      <point x="777.0615384615385" y="1879.4307692307693"/>
      <point x="844.6" y="1857.5846153846153"/>
      <point x="883.8153846153846" y="1833.4769230769232" type="qcurve" smooth="yes"/>
      <point x="926.0153846153846" y="1805.5384615384614"/>
      <point x="994.3076923076923" y="1771.7846153846153"/>
      <point x="1035.523076923077" y="1771.7846153846153" type="qcurve" smooth="yes"/>
      <point x="1073.8461538461538" y="1771.7846153846153"/>
      <point x="1139.8153846153846" y="1820.2615384615385"/>
      <point x="1167.3384615384616" y="1869.9846153846154" type="qcurve"/>
      <point x="1217.9384615384615" y="1803.8923076923077" type="line"/>
      <point x="1177.5692307692307" y="1707.5846153846153"/>
      <point x="1069.6" y="1601.8"/>
      <point x="1006.1692307692308" y="1601.8" type="qcurve" smooth="yes"/>
      <point x="961.1076923076923" y="1601.8"/>
      <point x="877.9230769230769" y="1637.1846153846154"/>
      <point x="842.5076923076923" y="1656.446153846154" type="qcurve" smooth="yes"/>
      <point x="800.2461538461539" y="1679.8153846153846"/>
      <point x="736.6" y="1713.7076923076922"/>
      <point x="705.2307692307693" y="1713.7076923076922" type="qcurve" smooth="yes"/>
      <point x="659.5384615384615" y="1713.7076923076922"/>
      <point x="570.8461538461538" y="1645.8615384615384"/>
      <point x="548.9538461538461" y="1606.7692307692307" type="qcurve"/>
    </contour>
    <contour>
      <point x="533.7692307692307" y="1956.9538461538461" type="line"/>
      <point x="533.7692307692307" y="2125.723076923077" type="line"/>
      <point x="1167.123076923077" y="2125.723076923077" type="line"/>
      <point x="1167.123076923077" y="1956.9538461538461" type="line"/>
    </contour>
    <component base="O"/>
  </outline>
</glyph>
<glyph name="odotaccentmacron" format="2">
  <advance width="1417"/>
  <unicode hex="0231"/>
  <outline>
    <contour>
      <point x="391.61538461538464" y="1447.876923076923" type="line"/>
      <point x="391.61538461538464" y="1610.3384615384616" type="line"/>
      <point x="1026.2307692307693" y="1610.3384615384616" type="line"/>
      <point x="1026.2307692307693" y="1447.876923076923" type="line"/>
    </contour>
    <contour>
      <point x="564.1692307692308" y="1246.0923076923077" type="qcurve" smooth="yes"/>
      <point x="564.1692307692308" y="1313.523076923077"/>
      <point x="643.276923076923" y="1390.6307692307691"/>
      <point x="711.0769230769231" y="1390.6307692307691" type="qcurve" smooth="yes"/>
      <point x="775.5076923076923" y="1390.6307692307691"/>
      <point x="857.9846153846154" y="1307.523076923077"/>
      <point x="857.9846153846154" y="1246.0923076923077" type="qcurve" smooth="yes"/>
      <point x="857.9846153846154" y="1179.6615384615384"/>
      <point x="780.876923076923" y="1101.553846153846"/>
      <point x="711.0769230769231" y="1101.553846153846" type="qcurve" smooth="yes"/>
      <point x="646.6461538461539" y="1101.553846153846"/>
      <point x="564.1692307692308" y="1183.6615384615384"/>
    </contour>
    <component base="o"/>
  </outline>
</glyph>
<glyph name="schwa" format="2">
  <advance width="1227"/>
  <unicode hex="0259"/>
  <outline>
    <contour>
      <point x="1185.2769230769231" y="499.3076923076923" type="qcurve" smooth="yes"/>
      <point x="1185.2769230769231" y="240.8923076923077"/>
      <point x="865.2923076923076" y="-27.0"/>
      <point x="583.4769230769231" y="-27.0" type="qcurve" smooth="yes"/>
      <point x="327.7692307692308" y="-27.0"/>
      <point x="43.8" y="213.95384615384614"/>
      <point x="32.36923076923077" y="422.75384615384615" type="qcurve"/>
      <point x="31.73846153846154" y="501.67692307692306" type="line"/>
      <point x="767.3692307692307" y="501.67692307692306" type="line"/>
      <point x="767.3692307692307" y="411.9384615384615" type="line"/>
      <point x="437.2153846153846" y="411.9384615384615" type="line"/>
      <point x="434.53846153846155" y="251.36923076923077"/>
      <point x="477.26153846153846" y="72.75384615384615"/>
      <point x="557.3692307692307" y="72.75384615384615" type="qcurve" smooth="yes"/>
      <point x="618.4" y="72.75384615384615"/>
      <point x="690.8461538461538" y="209.81538461538463"/>
      <point x="690.4769230769231" y="463.0923076923077" type="qcurve" smooth="yes"/>
      <point x="690.1076923076923" y="716.6153846153846"/>
      <point x="570.8615384615384" y="871.1692307692308"/>
      <point x="445.3076923076923" y="871.1692307692308" type="qcurve" smooth="yes"/>
      <point x="335.46153846153845" y="871.1692307692308"/>
      <point x="157.26153846153846" y="766.8923076923077"/>
      <point x="107.26153846153846" y="706.9076923076923" type="qcurve"/>
      <point x="53.70769230769231" y="783.2615384615385" type="line"/>
      <point x="105.18461538461538" y="874.0923076923077"/>
      <point x="360.3538461538462" y="1026.5384615384614"/>
      <point x="547.7538461538461" y="1026.5384615384614" type="qcurve" smooth="yes"/>
      <point x="843.4" y="1026.5384615384614"/>
      <point x="1185.2769230769231" y="752.8461538461538"/>
    </contour>
  </outline>
</glyph>
<glyph name="doubleprimemod" format="2">
  <advance width="1044"/>
  <unicode hex="02BA"/>
  <outline>
    <contour>
      <point x="223.07692307692307" y="1502.0" type="line"/>
      <point x="531.7692307692307" y="1502.0" type="line"/>
      <point x="319.15384615384613" y="852.9230769230769" type="line"/>
      <point x="197.92307692307693" y="857.9230769230769" type="line"/>
    </contour>
    <contour>
      <point x="643.0769230769231" y="1502.0" type="line"/>
      <point x="951.7692307692307" y="1502.0" type="line"/>
      <point x="739.1538461538462" y="852.9230769230769" type="line"/>
      <point x="617.9230769230769" y="857.9230769230769" type="line"/>
    </contour>
  </outline>
</glyph>
<glyph name="dotaccent" format="2">
  <advance width="943"/>
  <unicode hex="02D9"/>
  <outline>
    <contour>
      <point x="325.7230769230769" y="1230.7692307692307" type="qcurve" smooth="yes"/>
      <point x="325.7230769230769" y="1298.2"/>
      <point x="404.83076923076925" y="1375.3076923076924"/>
      <point x="472.63076923076926" y="1375.3076923076924" type="qcurve" smooth="yes"/>
      <point x="537.0615384615385" y="1375.3076923076924"/>
      <point x="619.5384615384615" y="1292.2"/>
      <point x="619.5384615384615" y="1230.7692307692307" type="qcurve" smooth="yes"/>
      <point x="619.5384615384615" y="1164.3384615384616"/>
      <point x="542.4307692307692" y="1086.2307692307693"/>
      <point x="472.63076923076926" y="1086.2307692307693" type="qcurve" smooth="yes"/>
      <point x="408.2" y="1086.2307692307693"/>
      <point x="325.7230769230769" y="1168.3384615384616"/>
    </contour>
  </outline>
</glyph>
<glyph name="tilde" format="2">
  <advance width="943"/>
  <unicode hex="02DC"/>
  <outline>
    <contour>
      <point x="125.50769230769231" y="1214.4923076923078" type="line"/>
      <point x="153.30769230769232" y="1283.2923076923078"/>
      <point x="268.8615384615385" y="1408.0307692307692"/>
      <point x="348.81538461538463" y="1408.0307692307692" type="qcurve" smooth="yes"/>
      <point x="387.5076923076923" y="1408.0307692307692"/>
      <point x="455.04615384615386" y="1386.8153846153846"/>
      <point x="492.36923076923074" y="1363.9692307692308" type="qcurve" smooth="yes"/>
      <point x="524.4769230769231" y="1342.9692307692308"/>
      <point x="594.6615384615385" y="1304.8"/>
      <point x="640.2923076923076" y="1304.8" type="qcurve" smooth="yes"/>
      <point x="677.3538461538461" y="1304.8"/>
      <point x="742.0615384615385" y="1351.3846153846155"/>
      <point x="761.3846153846154" y="1385.3384615384616" type="qcurve"/>
      <point x="810.723076923077" y="1324.1384615384616" type="line"/>
      <point x="779.1846153846154" y="1244.2307692307693"/>
      <point x="681.9384615384615" y="1141.6"/>
      <point x="614.0923076923077" y="1141.6" type="qcurve" smooth="yes"/>
      <point x="569.6615384615385" y="1141.6"/>
      <point x="482.6923076923077" y="1175.246153846154"/>
      <point x="452.95384615384614" y="1191.3538461538462" type="qcurve" smooth="yes"/>
      <point x="416.36923076923074" y="1211.5692307692307"/>
      <point x="348.3076923076923" y="1246.7230769230769"/>
      <point x="319.46153846153845" y="1246.7230769230769" type="qcurve" smooth="yes"/>
      <point x="275.03076923076924" y="1246.7230769230769"/>
      <point x="188.86153846153846" y="1182.0307692307692"/>
      <point x="172.64615384615385" y="1155.553846153846" type="qcurve"/>
    </contour>
  </outline>
</glyph>
<glyph name="horncomb" format="2">
  <advance width="943"/>
  <unicode hex="031B"/>
  <outline>
    <contour>
      <point x="-1.0" y="951.4307692307692" type="line"/>
      <point x="45.15384615384615" y="942.4307692307692"/>
      <point x="122.0" y="933.0615384615385"/>
      <point x="152.47692307692307" y="933.0615384615385" type="qcurve" smooth="yes"/>
      <point x="221.63076923076923" y="933.0615384615385"/>
      <point x="291.15384615384613" y="999.4769230769231"/>
      <point x="291.15384615384613" y="1060.3076923076924" type="qcurve" smooth="yes"/>
      <point x="291.15384615384613" y="1093.4153846153847"/>
      <point x="281.7846153846154" y="1165.6307692307691"/>
      <point x="269.7846153846154" y="1216.2615384615385" type="qcurve"/>
      <point x="383.0" y="1216.2615384615385" type="line"/>
      <point x="410.15384615384613" y="1161.8461538461538"/>
      <point x="439.67692307692306" y="1067.5230769230768"/>
      <point x="440.3076923076923" y="1027.676923076923" type="qcurve" smooth="yes"/>
      <point x="440.9384615384615" y="906.3538461538461"/>
      <point x="291.0923076923077" y="792.9076923076923"/>
      <point x="173.4923076923077" y="793.5384615384615" type="qcurve" smooth="yes"/>
      <point x="136.75384615384615" y="794.1692307692308"/>
      <point x="46.84615384615385" y="810.5384615384615"/>
      <point x="-1.0" y="827.0153846153846" type="qcurve"/>
    </contour>
  </outline>
</glyph>
<glyph name="dotbelowcomb" format="2">
  <advance width="943"/>
  <unicode hex="0323"/>
  <outline>
    <contour>
      <point x="329.5076923076923" y="-300.7076923076923" type="qcurve" smooth="yes"/>
      <point x="329.5076923076923" y="-232.01538461538462"/>
      <point x="403.5692307692308" y="-159.95384615384614"/>
      <point x="472.63076923076926" y="-159.95384615384614" type="qcurve" smooth="yes"/>
      <point x="538.3230769230769" y="-159.95384615384614"/>
      <point x="615.7538461538461" y="-238.01538461538462"/>
      <point x="615.7538461538461" y="-300.7076923076923" type="qcurve" smooth="yes"/>
      <point x="615.7538461538461" y="-368.4"/>
      <point x="543.6923076923077" y="-441.46153846153845"/>
      <point x="472.63076923076926" y="-441.46153846153845" type="qcurve" smooth="yes"/>
      <point x="406.9384615384615" y="-441.46153846153845"/>
      <point x="329.5076923076923" y="-364.4"/>
    </contour>
  </outline>
</glyph>
<glyph name="commaaccentcomb" format="2">
  <advance width="943"/>
  <unicode hex="0326"/>
  <outline>
    <contour>
      <point x="343.81538461538463" y="-585.4461538461538" type="line"/>
      <point x="396.12307692307695" y="-553.7692307692307"/>
      <point x="453.63076923076926" y="-483.16923076923075"/>
      <point x="477.84615384615387" y="-424.10769230769233" type="qcurve"/>
      <point x="410.9384615384615" y="-424.73846153846154"/>
      <point x="346.18461538461537" y="-349.9846153846154"/>
      <point x="346.18461538461537" y="-298.0769230769231" type="qcurve" smooth="yes"/>
      <point x="346.18461538461537" y="-246.90769230769232"/>
      <point x="415.7846153846154" y="-173.2"/>
      <point x="477.4307692307692" y="-173.2" type="qcurve" smooth="yes"/>
      <point x="539.6" y="-173.2"/>
      <point x="614.4153846153846" y="-246.1076923076923"/>
      <point x="614.4153846153846" y="-311.44615384615383" type="qcurve" smooth="yes"/>
      <point x="614.4153846153846" y="-390.0153846153846"/>
      <point x="487.83076923076925" y="-561.3384615384615"/>
      <point x="366.2153846153846" y="-615.6923076923077" type="qcurve"/>
    </contour>
  </outline>
</glyph>
<glyph name="macronbelowcomb" format="2">
  <advance width="943"/>
  <unicode hex="0331"/>
  <outline>
    <contour>
      <point x="141.7076923076923" y="-427.0923076923077" type="line"/>
      <point x="141.7076923076923" y="-276.61538461538464" type="line"/>
      <point x="801.5538461538462" y="-276.61538461538464" type="line"/>
      <point x="801.5538461538462" y="-427.0923076923077" type="line"/>
    </contour>
  </outline>
</glyph>
<glyph name="Acircumflexacute" format="2">
  <advance width="1452"/>
  <unicode hex="1EA4"/>
  <outline>
    <contour>
      <point x="719.6461538461539" y="1977.0461538461539" type="qcurve" smooth="yes"/>
      <point x="751.8153846153846" y="1977.0461538461539"/>
      <point x="811.7692307692307" y="1920.1692307692308"/>
      <point x="856.5076923076923" y="1865.8" type="qcurve" smooth="yes"/>
      <point x="1072.9384615384615" y="1599.8461538461538" type="line"/>
      <point x="1014.8923076923077" y="1547.8" type="line"/>
      <point x="719.6461538461539" y="1765.076923076923" type="line"/>
      <point x="430.7076923076923" y="1547.8" type="line"/>
      <point x="373.9230769230769" y="1599.2153846153847" type="line"/>
      <point x="582.7846153846153" y="1865.8" type="line" smooth="yes"/>
      <point x="626.1076923076923" y="1921.6461538461538"/>
      <point x="687.4769230769231" y="1977.0461538461539"/>
    </contour>
    <contour>
      <point x="975.323076923077" y="2235.1846153846154" type="qcurve" smooth="yes"/>
      <point x="972.7384615384615" y="2214.107692307692"/>
      <point x="926.2461538461539" y="2150.107692307692"/>
      <point x="886.2769230769231" y="2132.892307692308" type="qcurve" smooth="yes"/>
      <point x="584.0307692307692" y="2007.6307692307691" type="line"/>
      <point x="548.4769230769231" y="2053.6923076923076" type="line"/>
      <point x="744.5384615384615" y="2270.492307692308" type="line" smooth="yes"/>
      <point x="780.4" y="2312.4461538461537"/>
      <point x="860.9076923076923" y="2347.7384615384617"/>
      <point x="895.5538461538462" y="2341.630769230769" type="qcurve" smooth="yes"/>
      <point x="934.0923076923077" y="2333.892307692308"/>
      <point x="979.8" y="2260.5692307692307"/>
    </contour>
    <component base="A"/>
  </outline>
</glyph>
<glyph name="acircumflexhookabove" format="2">
  <advance width="1330"/>
  <unicode hex="1EA9"/>
  <outline>
    <contour>
      <point x="996.1384615384616" y="998.5230769230769" type="line"/>
      <point x="996.1384615384616" y="1160.7692307692307" type="line"/>
      <point x="1053.9538461538461" y="1205.553846153846" type="line"/>
      <point x="1074.5846153846153" y="1200.8153846153846"/>
      <point x="1110.2307692307693" y="1195.7076923076922"/>
      <point x="1121.8153846153846" y="1195.7076923076922" type="qcurve" smooth="yes"/>
      <point x="1166.0307692307692" y="1195.7076923076922"/>
      <point x="1222.7076923076922" y="1247.8615384615384"/>
      <point x="1222.7076923076922" y="1284.9692307692308" type="qcurve" smooth="yes"/>
      <point x="1222.7076923076922" y="1326.3384615384616"/>
      <point x="1163.9076923076923" y="1365.923076923077"/>
      <point x="1105.123076923077" y="1365.923076923077" type="qcurve" smooth="yes"/>
      <point x="1072.5692307692307" y="1365.923076923077"/>
      <point x="983.8" y="1343.076923076923"/>
      <point x="931.2307692307693" y="1322.8153846153846" type="qcurve"/>
      <point x="899.2" y="1414.0923076923077" type="line"/>
      <point x="949.6307692307693" y="1447.3538461538462"/>
      <point x="1080.246153846154" y="1496.7076923076922"/>
      <point x="1138.676923076923" y="1496.7076923076922" type="qcurve" smooth="yes"/>
      <point x="1279.5538461538463" y="1496.7076923076922"/>
      <point x="1412.6461538461538" y="1391.7846153846153"/>
      <point x="1412.6461538461538" y="1286.7076923076922" type="qcurve" smooth="yes"/>
      <point x="1412.6461538461538" y="1196.5846153846153"/>
      <point x="1283.323076923077" y="1088.1384615384616"/>
      <point x="1181.7384615384615" y="1088.7692307692307" type="qcurve" smooth="yes"/>
      <point x="1154.4153846153847" y="1088.7692307692307"/>
      <point x="1117.0923076923077" y="1090.246153846154"/>
      <point x="1096.3076923076924" y="1097.4" type="qcurve"/>
      <point x="1096.3076923076924" y="998.5230769230769" type="line"/>
    </contour>
    <contour>
      <point x="643.4769230769231" y="1511.0461538461539" type="qcurve" smooth="yes"/>
      <point x="675.6461538461539" y="1511.0461538461539"/>
      <point x="736.6" y="1460.8461538461538"/>
      <point x="780.3384615384615" y="1406.1076923076923" type="qcurve" smooth="yes"/>
      <point x="965.2307692307693" y="1155.3846153846155" type="line"/>
      <point x="907.1846153846154" y="1103.3384615384616" type="line"/>
      <point x="643.4769230769231" y="1301.6923076923076" type="line"/>
      <point x="379.7692307692308" y="1103.3384615384616" type="line"/>
      <point x="322.9846153846154" y="1154.753846153846" type="line"/>
      <point x="506.61538461538464" y="1406.1076923076923" type="line" smooth="yes"/>
      <point x="550.8307692307692" y="1466.1076923076923"/>
      <point x="611.3076923076923" y="1511.0461538461539"/>
    </contour>
    <component base="a"/>
  </outline>
</glyph>
<glyph name="abrevegrave" format="2">
  <advance width="1330"/>
  <unicode hex="1EB1"/>
  <outline>
    <contour>
      <point x="452.5846153846154" y="1653.3692307692309" type="qcurve" smooth="yes"/>
      <point x="447.4769230769231" y="1676.753846153846"/>
      <point x="493.96923076923076" y="1746.076923076923"/>
      <point x="529.5076923076923" y="1752.8153846153846" type="qcurve" smooth="yes"/>
      <point x="562.7846153846153" y="1758.923076923077"/>
      <point x="635.6615384615385" y="1722.7384615384615"/>
      <point x="671.1538461538462" y="1686.0461538461539" type="qcurve" smooth="yes"/>
      <point x="867.876923076923" y="1469.4923076923078" type="line"/>
      <point x="840.3692307692307" y="1424.0153846153846" type="line"/>
      <point x="535.2615384615385" y="1557.7076923076922" type="line" smooth="yes"/>
      <point x="496.4" y="1571.4"/>
      <point x="454.8" y="1634.2923076923078"/>
    </contour>
    <contour>
      <point x="936.0" y="1447.7692307692307" type="qcurve"/>
      <point x="999.723076923077" y="1429.0" type="line"/>
      <point x="985.6153846153846" y="1318.7230769230769"/>
      <point x="807.8923076923077" y="1120.5384615384614"/>
      <point x="656.1846153846154" y="1120.5384615384614" type="qcurve" smooth="yes"/>
      <point x="504.4769230769231" y="1120.5384615384614"/>
      <point x="325.12307692307695" y="1297.246153846154"/>
      <point x="310.6461538461538" y="1426.0" type="qcurve"/>
      <point x="379.36923076923074" y="1448.1384615384616" type="line"/>
      <point x="412.95384615384614" y="1377.076923076923"/>
      <point x="557.0615384615385" y="1285.3692307692309"/>
      <point x="657.1846153846154" y="1286.0" type="qcurve" smooth="yes"/>
      <point x="762.6769230769231" y="1285.3692307692309"/>
      <point x="907.7846153846153" y="1379.076923076923"/>
    </contour>
    <component base="a"/>
  </outline>
</glyph>
